<mxfile host="app.diagrams.net" agent="Mozilla/5.0 (Windows NT 10.0; Win64; x64) AppleWebKit/537.36 (KHTML, like Gecko) Chrome/141.0.0.0 Safari/537.36 Edg/141.0.0.0" version="28.2.6">
  <diagram name="Page-1" id="6AxY8d68MYG01BG7uqcW">
    <mxGraphModel dx="20580" dy="11160" grid="0" gridSize="10" guides="1" tooltips="1" connect="1" arrows="1" fold="1" page="1" pageScale="1" pageWidth="1600" pageHeight="1200" background="light-dark(#FFFFFF,#FFFFFF)" math="0" shadow="1">
      <root>
        <mxCell id="0" />
        <mxCell id="1" parent="0" />
        <mxCell id="KaTq5aqVhibnrpRyyDtL-58" value="On-Premise" style="outlineConnect=0;gradientColor=none;html=1;whiteSpace=wrap;fontSize=100;fontStyle=0;shape=mxgraph.aws4.group;grIcon=mxgraph.aws4.group_on_premise;strokeColor=#858B94;fillColor=none;verticalAlign=top;align=left;spacingLeft=30;fontColor=#858B94;dashed=0;strokeWidth=18;" parent="1" vertex="1">
          <mxGeometry x="-6251" y="-3044" width="2291" height="5159" as="geometry" />
        </mxCell>
        <mxCell id="KaTq5aqVhibnrpRyyDtL-48" style="edgeStyle=orthogonalEdgeStyle;rounded=0;orthogonalLoop=1;jettySize=auto;html=1;strokeColor=light-dark(#000000,#000099);strokeWidth=7;" parent="1" source="KaTq5aqVhibnrpRyyDtL-47" target="VVqcYURe2gfnDvIVS-2d-10" edge="1">
          <mxGeometry relative="1" as="geometry">
            <Array as="points">
              <mxPoint x="-3399" y="-594" />
            </Array>
          </mxGeometry>
        </mxCell>
        <mxCell id="KaTq5aqVhibnrpRyyDtL-47" value="Users" style="outlineConnect=0;fontColor=light-dark(#232F3E,#000000);gradientColor=none;strokeColor=light-dark(#232F3E,#000000);fillColor=none;dashed=0;verticalLabelPosition=bottom;verticalAlign=top;align=center;html=1;fontSize=38;fontStyle=0;aspect=fixed;shape=mxgraph.aws4.resourceIcon;resIcon=mxgraph.aws4.users;strokeWidth=14;" parent="1" vertex="1">
          <mxGeometry x="-3554" y="64" width="250" height="250" as="geometry" />
        </mxCell>
        <mxCell id="KaTq5aqVhibnrpRyyDtL-50" value="" style="verticalLabelPosition=bottom;aspect=fixed;html=1;verticalAlign=top;strokeColor=none;fillColor=light-dark(#000000,#333333);align=center;outlineConnect=0;pointerEvents=1;shape=mxgraph.citrix2.internal_users;fontColor=light-dark(#000000,#000000);fontSize=21;" parent="1" vertex="1">
          <mxGeometry x="-5703" y="-2769" width="764.12" height="735" as="geometry" />
        </mxCell>
        <mxCell id="VVqcYURe2gfnDvIVS-2d-100" value="" style="verticalLabelPosition=bottom;html=1;fillColor=light-dark(#FFFFFF,#990099);strokeColor=none;verticalAlign=top;align=center;points=[[0,0.5,0],[0.125,0.25,0],[0.25,0,0],[0.5,0,0],[0.75,0,0],[0.875,0.25,0],[1,0.5,0],[0.875,0.75,0],[0.75,1,0],[0.5,1,0],[0.125,0.75,0]];pointerEvents=1;shape=mxgraph.cisco_safe.compositeIcon;bgIcon=mxgraph.cisco_safe.design.blank_device;resIcon=mxgraph.cisco_safe.design.siem_2;" parent="1" vertex="1">
          <mxGeometry x="-3047" y="1642" width="380.25" height="308" as="geometry" />
        </mxCell>
        <mxCell id="VVqcYURe2gfnDvIVS-2d-102" value="&lt;h1&gt;&lt;font style=&quot;color: light-dark(rgb(51, 0, 0), rgb(102, 51, 0)); font-size: 35px;&quot;&gt;HTTP/Syslog&lt;/font&gt;&lt;/h1&gt;" style="text;strokeColor=none;fillColor=none;html=1;fontSize=24;fontStyle=1;verticalAlign=middle;align=center;" parent="1" vertex="1">
          <mxGeometry x="-2409" y="1522" width="226" height="109" as="geometry" />
        </mxCell>
        <mxCell id="VVqcYURe2gfnDvIVS-2d-101" style="edgeStyle=orthogonalEdgeStyle;rounded=0;orthogonalLoop=1;jettySize=auto;html=1;entryX=0.5;entryY=0;entryDx=0;entryDy=0;entryPerimeter=0;strokeColor=light-dark(#000000,#330033);strokeWidth=9;" parent="1" source="VVqcYURe2gfnDvIVS-2d-81" target="VVqcYURe2gfnDvIVS-2d-100" edge="1">
          <mxGeometry relative="1" as="geometry">
            <mxPoint x="664" y="950" as="sourcePoint" />
            <Array as="points">
              <mxPoint x="-1785" y="795" />
              <mxPoint x="-1785" y="1486" />
              <mxPoint x="-2857" y="1486" />
            </Array>
          </mxGeometry>
        </mxCell>
        <mxCell id="KaTq5aqVhibnrpRyyDtL-57" value="AWS Cloud" style="points=[[0,0],[0.25,0],[0.5,0],[0.75,0],[1,0],[1,0.25],[1,0.5],[1,0.75],[1,1],[0.75,1],[0.5,1],[0.25,1],[0,1],[0,0.75],[0,0.5],[0,0.25]];outlineConnect=0;gradientColor=none;html=1;whiteSpace=wrap;fontSize=100;fontStyle=0;container=1;pointerEvents=0;collapsible=0;recursiveResize=0;shape=mxgraph.aws4.group;grIcon=mxgraph.aws4.group_aws_cloud_alt;strokeColor=light-dark(#232F3E,#000000);fillColor=none;verticalAlign=top;align=left;spacingLeft=30;fontColor=light-dark(#232F3E,#1A1A1A);dashed=0;strokeWidth=6;" parent="1" vertex="1">
          <mxGeometry x="-672" y="-2621" width="5919" height="4126" as="geometry" />
        </mxCell>
        <mxCell id="98MHwAq_paq7Vv6iNTmb-9" style="edgeStyle=orthogonalEdgeStyle;rounded=0;orthogonalLoop=1;jettySize=auto;html=1;strokeColor=light-dark(#000000,#660066);strokeWidth=9;" parent="1" source="98MHwAq_paq7Vv6iNTmb-6" target="98MHwAq_paq7Vv6iNTmb-5" edge="1">
          <mxGeometry relative="1" as="geometry" />
        </mxCell>
        <mxCell id="98MHwAq_paq7Vv6iNTmb-6" value="" style="sketch=0;points=[[0,0,0],[0.25,0,0],[0.5,0,0],[0.75,0,0],[1,0,0],[0,1,0],[0.25,1,0],[0.5,1,0],[0.75,1,0],[1,1,0],[0,0.25,0],[0,0.5,0],[0,0.75,0],[1,0.25,0],[1,0.5,0],[1,0.75,0]];outlineConnect=0;fontColor=#232F3E;fillColor=#8C4FFF;strokeColor=#ffffff;dashed=0;verticalLabelPosition=bottom;verticalAlign=top;align=center;html=1;fontSize=12;fontStyle=0;aspect=fixed;shape=mxgraph.aws4.resourceIcon;resIcon=mxgraph.aws4.site_to_site_vpn;" parent="1" vertex="1">
          <mxGeometry x="-3027" y="-1241" width="365" height="365" as="geometry" />
        </mxCell>
        <mxCell id="98MHwAq_paq7Vv6iNTmb-8" style="edgeStyle=orthogonalEdgeStyle;rounded=0;orthogonalLoop=1;jettySize=auto;html=1;fontColor=default;strokeColor=light-dark(#000000,#4C0099);strokeWidth=11;" parent="1" source="98MHwAq_paq7Vv6iNTmb-7" target="98MHwAq_paq7Vv6iNTmb-6" edge="1">
          <mxGeometry relative="1" as="geometry" />
        </mxCell>
        <mxCell id="98MHwAq_paq7Vv6iNTmb-7" value="" style="sketch=0;outlineConnect=0;fontColor=#232F3E;gradientColor=none;fillColor=#8C4FFF;strokeColor=none;dashed=0;verticalLabelPosition=bottom;verticalAlign=top;align=center;html=1;fontSize=12;fontStyle=0;aspect=fixed;pointerEvents=1;shape=mxgraph.aws4.customer_gateway;" parent="1" vertex="1">
          <mxGeometry x="-4686" y="-1224" width="331" height="331" as="geometry" />
        </mxCell>
        <mxCell id="98MHwAq_paq7Vv6iNTmb-16" value="&lt;h1&gt;&lt;font style=&quot;color: light-dark(rgb(0, 0, 0), rgb(51, 0, 0)); font-size: 56px;&quot;&gt;VPN SECURE CONNECTION&lt;/font&gt;&lt;/h1&gt;" style="text;strokeColor=none;fillColor=none;html=1;fontSize=24;fontStyle=1;verticalAlign=middle;align=center;" parent="1" vertex="1">
          <mxGeometry x="-2890" y="-833" width="100" height="40" as="geometry" />
        </mxCell>
        <mxCell id="98MHwAq_paq7Vv6iNTmb-17" value="&lt;h1&gt;&lt;font style=&quot;color: light-dark(rgb(0, 0, 0), rgb(51, 0, 0)); font-size: 56px;&quot;&gt;Customer Getway&lt;/font&gt;&lt;/h1&gt;" style="text;strokeColor=none;fillColor=none;html=1;fontSize=24;fontStyle=1;verticalAlign=middle;align=center;" parent="1" vertex="1">
          <mxGeometry x="-4560" y="-853" width="100" height="40" as="geometry" />
        </mxCell>
        <mxCell id="VVqcYURe2gfnDvIVS-2d-103" value="&lt;h1&gt;&lt;font style=&quot;color: light-dark(rgb(0, 0, 0), rgb(51, 0, 0)); font-size: 32px;&quot;&gt;External&lt;/font&gt;&lt;/h1&gt;" style="text;strokeColor=none;fillColor=none;html=1;fontSize=24;fontStyle=1;verticalAlign=middle;align=center;" parent="1" vertex="1">
          <mxGeometry x="-2039" y="379" width="232" height="53" as="geometry" />
        </mxCell>
        <mxCell id="RUZbRdO7xpZEqCK_7VyW-138" style="edgeStyle=orthogonalEdgeStyle;rounded=0;orthogonalLoop=1;jettySize=auto;html=1;exitX=1;exitY=0.71;exitDx=0;exitDy=0;exitPerimeter=0;strokeColor=light-dark(#000000,#000066);strokeWidth=9;" parent="1" source="RUZbRdO7xpZEqCK_7VyW-1" target="RUZbRdO7xpZEqCK_7VyW-137" edge="1">
          <mxGeometry relative="1" as="geometry" />
        </mxCell>
        <mxCell id="RUZbRdO7xpZEqCK_7VyW-1" value="" style="points=[[0.35,0,0],[0.98,0.51,0],[1,0.71,0],[0.67,1,0],[0,0.795,0],[0,0.65,0]];verticalLabelPosition=bottom;sketch=0;html=1;verticalAlign=top;aspect=fixed;align=center;pointerEvents=1;shape=mxgraph.cisco19.user;fillColor=light-dark(#005073,#000066);strokeColor=none;" parent="1" vertex="1">
          <mxGeometry x="-3334" y="-3469" width="350" height="350" as="geometry" />
        </mxCell>
        <mxCell id="RUZbRdO7xpZEqCK_7VyW-2" value="&lt;h1&gt;&lt;font style=&quot;color: light-dark(rgb(0, 0, 0), rgb(51, 0, 0)); font-size: 56px;&quot;&gt;Cloud Engineer&lt;/font&gt;&lt;/h1&gt;" style="text;strokeColor=none;fillColor=none;html=1;fontSize=24;fontStyle=1;verticalAlign=middle;align=center;" parent="1" vertex="1">
          <mxGeometry x="-3445" y="-3075" width="568" height="40" as="geometry" />
        </mxCell>
        <mxCell id="RUZbRdO7xpZEqCK_7VyW-5" style="edgeStyle=orthogonalEdgeStyle;rounded=0;orthogonalLoop=1;jettySize=auto;html=1;exitX=0.5;exitY=1;exitDx=0;exitDy=0;entryX=0.5;entryY=0;entryDx=0;entryDy=0;" parent="1" source="RUZbRdO7xpZEqCK_7VyW-2" target="RUZbRdO7xpZEqCK_7VyW-2" edge="1">
          <mxGeometry relative="1" as="geometry" />
        </mxCell>
        <mxCell id="RUZbRdO7xpZEqCK_7VyW-139" style="edgeStyle=orthogonalEdgeStyle;rounded=0;orthogonalLoop=1;jettySize=auto;html=1;entryX=0.5;entryY=0;entryDx=0;entryDy=0;strokeColor=light-dark(#000000,#330066);strokeWidth=9;" parent="1" source="RUZbRdO7xpZEqCK_7VyW-137" target="KaTq5aqVhibnrpRyyDtL-57" edge="1">
          <mxGeometry relative="1" as="geometry">
            <Array as="points">
              <mxPoint x="1398" y="-3218" />
            </Array>
          </mxGeometry>
        </mxCell>
        <mxCell id="RUZbRdO7xpZEqCK_7VyW-137" value="" style="shape=image;verticalLabelPosition=bottom;labelBackgroundColor=default;verticalAlign=top;aspect=fixed;imageAspect=0;image=data:image/png,iVBORw0KGgoAAAANSUhEUgAAAKkAAACwCAYAAAB0DE58AAAAAXNSR0IArs4c6QAAAARnQU1BAACxjwv8YQUAAAAJcEhZcwAADsMAAA7DAcdvqGQAABJDSURBVHhe7Z15eNNVuse/bdI2TZukKSAgstRBYFQ2HVavOIqKzniVea4L4CMzFx1ZFIaxIHtbKKt1KFvLIoo4KMiIXsfLIo7eAfFhK4jKJlBA1rK2SdOkTZP0/t6T5hFKqV2ynOT3fp7Hh25/2OTb93zOe87vnKgKBTCMxERX/ssw0sIhZaSHQ8pID4eUkR4OKSM9HFJGejikjPRwSBnp4ZAy0sMhZaSHQ8pID4eUkZ4GhTT/cDkunHXD7ar8AsMEgAaF9NxJF94YW4iP3rbhykUPPJ7KbzCMH2lQSN1uoKS4Av/61IHMkVexdaMDJVYPePMf40/84qTlzgpYrnqwerENM18rwsG9TpSVclIZ/+C3iRNVTwrm+VMuLJpmQW6mBaePu+Aqr/wBhqknfgupD/JSR0kFDuxxKr5ahLVv2XCVfZVpAH4PqQ+XMuMvtnjw7/WKr466ii3Kvzb2VaYeBCykPpxlFSi64sGHy2yYrfgqVdgyByeVqT0BDylB1bNUCeY5xVcXz1B8dTr7KlN7ghJSH+Sl1LKiavrm+CKsWVqMKxfd7KtMjQQ1pD7IV6lltXVjKWanFuHLT+3CX9lXmeoISUh9kK9eLnBj3YoSUVm/21GGUjsnlbmekIaUEL6qBPN0vgvLs4qxeKYFJ4+6xAIBwxAhD6kP8lJqUR3Ic2L+lCKsXmITVdbjrvwBRrVIE1If5KuFlz3Y9nkp3pxQhM2f2GEtYl9VM9KF1Af56oUzbvzPeyVKZbVg7zdlYiWLUR/ShpTw+eqJH8uxIrsYy+ZYcfxwOfuqypA6pD6Er1o8+GFXGRZNtQhfvXSefVUthEVIfZCvXr3k9dXsyRZ8/rEdlkL21UgnrELqg3yVtgR++vcSUVnzvi6DnX01YgnLkBI+X80/WI6V84rxdpYV+YfKRYCZyCJsQ+rD11/dt6MMOdMsWLPUhovn3OLRFiYyCPuQ+qAnVslXv95UKlpWm9cpvnqVfTUSiJiQ+qD2FG0JJF+lLYHUX+UtgeFNxIWUEL7qqMDR/eX46J0S8TETvkRkSH2Qr1Jldbs5pOFMRIe0Oii45Kp2GwfX3zidHly86PB7UVBfSJVZ/74dTqycX4xjB7ll5Q9cLm84P/jgKGbP/lYJqVIJ/IjqQkp3qznsHuzeWipaVp+sLEHBGW5Z1QePpwIWixObNp3GlCm7sWZNPgoKHH7vqKgupD6ootKWwC8+sYtVq//7zCGeauWW1S9Dr5Hd7sLu3ZdE5Vyy5CCOHLGgrCwwf+mqDakPak+dPenCP5bbsGy21bvEyr56UyiIx45ZsHjxASWg+7Bz50WUlLgqvxsYVB9SgioDHRF0aJ8TK+Za8fdFxTh6gH31Wsg7z5+3Y+3afKSn52HjxtMoKioLysjDIb0GMYwpVXTnV6XiLKt/rioRG1nU7KvknYWFZdi8+QymTs3DqlXHRFiD2dbjkFYDtanIVzf+Q/HVaVZxVBB9riZfpd+VhnHyzqys75CbewA//miB0xn8v1gOaQ3QfgDy1TVLyFe9S6xq8NXSUjeOHrVg2bKDYmK0Y8eFgHtnTXBIawGtWh3+rhzLs6xYpfjqsQj11fJyD86ds2PduuPCO9evP6V4pzPkIwiHtJbQG0UPAm7/shQLp1rw2fslYiNLJPgq+SV551dfnUVGRh7ee+8ICgqC6501wSGtIxRWWlZdv0bx1Qwrtm4KX1+l/2ebrRx7917GnDn7sGDBfjHM0/KmTHBI6wlNrqiSvq8M/0tnWcSm63Dy1Z+98xBmzNiLXbsuiga9jHBIGwgtBpCvLp3p7a/K/giL1ztL8PHHx5GWthsbNpwSS5syjwQcUj9Be1a3/6sUC9Is+N/VJTh/Wq77rXzeuWXLOSWceVi58gguXPD/jqVAwCH1M/SI9Wfv25WwFuGbL7y+SmoQKnze+f33VzBr1rfIzv4B+flW6byzJjikAYCCQZWUtgPSydb795ShpDj4kyvyzuPHrVi69JAya9+DvLxL0npnTXBIAwgN90d+KEfuNCveUwL701GX2CMQ6LCSd9LSJXnnhAk7sXHjKVitcntnTXBIgwD56s5/l2HupCJ89kGJuI81EA8H+rxz27YCTJq0C+++ewSXLpWGhXfWBIc0iFgVX12/2o5sJazbvyoV+1f9cZ6VzzsPHSpEZuYeZGXtw4kTxaKiRgIc0iBDgaJK+m62FQszinD4e6fXV+uZJ/LOU6eKkZNzABMn7sK+fVfgcETWtq0GhdRgikaiMRoaTeUXmFpDvpp/yIX5aRa887dinP2pbr5KVZKeKyLvTE3dIbbSFReXh6131kSDQtqlZxz+kmlC2ztjoE+MQjTX5TpDF6/t2VYmrrik/auXL5Cv3jxp5JfUfKedSWPGbMeKFUdw5Uqp2PcZqTQoVhot0PJ2Lf46MwlDJxhxa2st4nRRiIqq/AGm1tCR6xs+tOONMUViklWsfF61v0rtI2op0Yx9xoxvcfp0idgxH+n4pfbp4qPQuUccxmUlof9gPRrdokFMLCe1rtBQfanArQz/VnFEUNXr2GkLXWrqdhw+XBSwh95kxK8DtCEpGo89k4AJ2Uno/kAcjMrnVG2ZukG+SitVVYd92utJk6JI9M6a8LtF0lBPlXRIqhGvK5X1V79WfDWBfZWpPwGLDlXQ21K0SFV8ddgkI5q1ZF9l6kfA61uc4qudusdhwtwk/NeQBJgbR3t9lcPK1JKgDcLUU33kD3pMzDaj9yM6b3+VfZWpBUE1RRrqGzfTYPBIA16fk4QOnWIRr2dfZWomJPGgCtqqrRajppkwdKIRt7bSIjaOfZWpnpDWMJpI0arVuDeT8MxLCUhqFA1tDCeVuR4pBlrqrz7c3+urD/xOhwQD7wdgfkYaG6ShvklzDQaNMGDM7CTcdU+sWMliX2WkiwBV0JT2WrySXumrrbWiZcW+ql6krVPkq117eX31uZcTYTKzr6oV6QdT6q/2fSoek+ab8eATOrHEyr6qLsLC+Hy+OmCYAWPfMKNjtzjRsmJfVQdh9Tb7fHXEFCOGT/L6KikA+2pkE5a1iKpo197e/QADhiYIJWAFiFzCesCkfmrfp/RIzzXj4f7x3LKKUML+LaWhnvavPveyQamsZnTpFacogPfrTGQQMXUnWhnuW9+hFa76aroJLVK0QgE4q+FPxA2O1Pin/QCT55kxaEQiEo3KxKrye0x4ErEGp9NH4aEn9ZiQbRbuyoQvEf3ukZdSJ4A3V4c3qiwxNPzzxCowBOJ1VV1Iqfnfs69OtKy0Wk6qv9BoonD33WaMHdsFcXH+bVqrLqT0l06bVQYONyAj14zOPWK5qjYAeu2aN9cr4eyMefPuQ5cujSq/4z9UO6Ogpv9tt2sxcqoJo5T/WrThJau6YjDE4I9/bIflyx/Ao4+2FNU0EKg2pD5oyKcFgPScZAwangiDicvqL6HTadCv321YtqwPBg9uB71eG9DRSPUhJegFpi7Aw3/QY+bbjYSvxvDe1RugSknD+Zw5PYR7Nm2qV167wL9OqgupywV8v9OJ/Xk3niFPCkDPWw0cZkB6bjI692RfJeg1aNkyQXgnBbRjx0YisMF6bVQX0gpPBc6fcWFBukWcXEeH11aF+qrkqK+mmcT5q3S8pVoxm+PEkJ6bez8eeeQ2xMZqgv6Hq8rhnioo3Vq35+syTB9ZiHXv2FBsuf6cT3ojaIm1c/c4TF5gFr5KXQG1QJ7Zr19L5OT8B154oR0SEmKUkSY0w4oqQ+qDDql12CuwYa0daUOvYstGh7g2/FqilFeInrfq21+P6W8lC1+NjeCzV7XaaNxzT2PMnt0Dqamd0KyZPqhDe3WoOqQ+6DxQuglk1UIbZvyl0OurVQ5Qph1VtLl6wNBEZCxORpdekeWr9Lu0aWPAuHGdMWNGN9x1l1mZPEZL8TtySCshBaAq+lO+S9xnn0O+erKKrypvGK1YNW+lwYjJJrw2MykifLVxYx3+9Kf2mD+/Nx58sAV0Om3Ihvbq4JBWgSooXbaw95syzBhdiI/eton7l66Fqgu1rO66N1Y8xfr8KwYkJYffS5mQoMVjj7VUwnkfBg5sC4MhNmAN+YbAIb0JdAkY3V+/6SM70od7fbXqFeHUsqJHVh76z3hMW+b1VfJX2aFhnLyT2kmjR3dE8+bUF5ZjaK8ODukvQNcrkq++v8jrqwf2kK9eH1ZqWdH9AHSIBa1c0X4AGZ+1ohCmpBgwfnwXZGZ2Q4cOZrEZJBgN+YbAIa0FvpbVqeNeX1041Vptf5VaVsJXp5iQOsvrq7K8/02a6DBkSAdkZ/dGnz7NRYtJxqG9OjikdYB8tdRege92KL6qVNW1b9nE/fbXQqGkIf/XXWLFKYHkq8lNQjeUJibG4PHHvd757LO/gtEYK9pM4QSHtB64K31188cOZJCvbnDccOcSPRgYnxCF3/5eJxSAjgqiz4P1wBU5ZteujZCV1ROjRnVE06bU35XXO2uCQ9oA6J4lum/pg1wbpo9SfHWvU5lwXR9WalmZlJn/s39ORNrCZHTqplSymMpvBgBqHVG/c/Lkrpg2rRvuuMMkdi3J1FKqKxxSP0BV9MwJFxYpvrogw4Jziq9W3bxCLatmLTUYPtnrq3R9kL9PXSHvfPHFDpg7txd6924mhvpw8c6a4JD6CQqlo6QCP+xyYuZfi/DhMq+vXhtWGmrpIot2HWPFEUHPv+r11YZ2AiiMvn7n00+nICkpLuy8syY4pH6GfNVm9eDLTx2YOuIqtm50oNRxfVmlCkqPWd/fT4e0Rcl46Ml4cct1XX2RHLNTp2Rlxt5L8c67K70z+LuUAg2HNEDQEuvVSx6sXuztrx7aV37DXaHUsqLLLJ55SfFVJax0BDtpwS9BftmqVaJwzunTuyMlxYj4eLmWMv0JhzTAUBU9c9KFhRlFYg/r+dNusZp1LdSyanqrBiPSTBg7x4Tmirve7ElWWmcfNuxO0e+8997G4jmjSPDOmoiqUKj8WBVQhfvynw6sWWKr/ErwoJUpfWI0evXV4YkBerGrirYCXou3veXByR9d6NAlRlRbH9u2FaB9e5PodUbisH4zOKQhgIZ0ozkaTwzUo8dvdeJIoKqBo2pLAb726253hRjS1RJOHzzchwBaYr1c4MaHS22Y9VohDiu+esPmFWVyVTWMod58HCo4pCGEngo4fcKFnEyL4qzkqy6xAZu5Hg5piKH9ANSyOvitE3PGFGHN0mKx64oebWG8cEglwfcIy5YNpZiVWohvNpfeoABqhUMqGRTMC2fd+HydHeUcUgGHVEaUbFLjv8reatXCIWWkh0PKSA+HlJEeDikjPRxSRno4pIz0cEgZ6eGQMtLDIWWkh0PKSA+HlJEeDikjPRxSRno4pIz0cEgZ6eGQMtLDIWWkh0PKSA+HlJEeDikjPRxSRnpUF9JoTRRatNGiaQuNOECMkR/VhZQOsKWbQejKxd59deImOzWerxROqHK41yoVlCrpC6MMGD7JiI7dYpFg4KTKiqqdlI5gbNcpVgmqCQOGGpDSPiYsrl1UG6qfONFQT/cr3feoDqOnm9DvaT37qmSoPqQ+6AYQkzkaT72QIHyVDrel8+zZV0MPh7QKNLGiSvrfr5GvmnBnV/bVUMMhvQl0Vn27jjEYOdWEQSMMaN1Wi1j21ZDAIa0BGurpPvveD+swZk4SHn9Gj1tuZV8NNhzSWkBhpZtC+iu+OlYJa/c+cdxfDSIc0jpAt4E0aa7BS68b8WqGSegA3WTHBBYOaT3QaKPQ9s4YcZHt4FEGtGitqdVNdkz94JA2AApmz4d0mJidjN89p0ejW9hXAwGH1A8kGKPQf3CCuHm52/1x4iKxht68zPwMv5R+pHEzDV6eYMLoTBNu76D4aoI6LwfzNxxSP0MVlAI67s0kDBljFBMt4asc1nrDIQ0QtBjwG2XoT89JxpPP65GkKADtvmLqDoc0wNCS6hODEjB5gRm/6ROHRCP7al3hlytICF8db0LqLBPatItBfDU3MzPVwyENIlRBac/q+L8l4c/jjGjU1OurHNaa4ZCGAArmPffFISPHLFpX1LJiX705HNIQkmiKFosAk+aZ0eNBnfBXuueeuR4OqQTQzqoXxxrFMmuK4qu084r2CTBeoioUKj9mJKDcWYH9eU588Ykdr6SZlOrKaeWQSgqFVRvDkyqCQ8pID48ljPRwSBnp4ZAy0sMhZaSHQ8pID4eUkR4OKSM9HFJGejikjPRwSBnp4ZAykgP8PwtIKfP45JhTAAAAAElFTkSuQmCC;" parent="1" vertex="1">
          <mxGeometry x="-1545" y="-3401" width="351.44" height="366" as="geometry" />
        </mxCell>
        <mxCell id="RUZbRdO7xpZEqCK_7VyW-140" value="&lt;h1&gt;&lt;font style=&quot;color: light-dark(rgb(0, 0, 0), rgb(51, 0, 0)); font-size: 56px;&quot;&gt;Terraform&lt;/font&gt;&lt;/h1&gt;" style="text;strokeColor=none;fillColor=none;html=1;fontSize=24;fontStyle=1;verticalAlign=middle;align=center;" parent="1" vertex="1">
          <mxGeometry x="-1638" y="-2986" width="568" height="40" as="geometry" />
        </mxCell>
        <mxCell id="RUZbRdO7xpZEqCK_7VyW-142" value="&lt;h1&gt;&lt;font style=&quot;color: light-dark(rgb(0, 0, 0), rgb(51, 0, 0)); font-size: 56px;&quot;&gt;Blan Infrastructure&lt;/font&gt;&lt;/h1&gt;" style="text;strokeColor=none;fillColor=none;html=1;fontSize=24;fontStyle=1;verticalAlign=middle;align=center;" parent="1" vertex="1">
          <mxGeometry x="-2653" y="-3322" width="568" height="40" as="geometry" />
        </mxCell>
        <mxCell id="RUZbRdO7xpZEqCK_7VyW-143" value="&lt;h1&gt;&lt;font style=&quot;color: light-dark(rgb(0, 0, 0), rgb(51, 0, 0)); font-size: 56px;&quot;&gt;Deploy Infrastrucure&lt;/font&gt;&lt;/h1&gt;" style="text;strokeColor=none;fillColor=none;html=1;fontSize=24;fontStyle=1;verticalAlign=middle;align=center;" parent="1" vertex="1">
          <mxGeometry x="-748" y="-3322" width="568" height="40" as="geometry" />
        </mxCell>
        <mxCell id="KaTq5aqVhibnrpRyyDtL-56" value="&lt;font style=&quot;font-size: 100px;&quot;&gt;Region&lt;/font&gt;" style="points=[[0,0],[0.25,0],[0.5,0],[0.75,0],[1,0],[1,0.25],[1,0.5],[1,0.75],[1,1],[0.75,1],[0.5,1],[0.25,1],[0,1],[0,0.75],[0,0.5],[0,0.25]];outlineConnect=0;gradientColor=none;html=1;whiteSpace=wrap;fontSize=41;fontStyle=0;container=1;pointerEvents=0;collapsible=0;recursiveResize=0;shape=mxgraph.aws4.group;grIcon=mxgraph.aws4.group_region;strokeColor=light-dark(#00A4A6,#003333);fillColor=none;verticalAlign=top;align=left;spacingLeft=30;fontColor=#147EBA;dashed=1;strokeWidth=10;" parent="1" vertex="1">
          <mxGeometry x="-462" y="-2379" width="5440" height="3701" as="geometry" />
        </mxCell>
        <mxCell id="VVqcYURe2gfnDvIVS-2d-83" style="edgeStyle=orthogonalEdgeStyle;rounded=0;orthogonalLoop=1;jettySize=auto;html=1;strokeColor=light-dark(#000000,#663300);strokeWidth=9;" parent="KaTq5aqVhibnrpRyyDtL-56" source="VVqcYURe2gfnDvIVS-2d-85" target="VVqcYURe2gfnDvIVS-2d-81" edge="1">
          <mxGeometry relative="1" as="geometry">
            <Array as="points">
              <mxPoint x="221" y="2970" />
              <mxPoint x="221" y="2970" />
            </Array>
          </mxGeometry>
        </mxCell>
        <mxCell id="VVqcYURe2gfnDvIVS-2d-81" value="" style="outlineConnect=0;fontColor=#232F3E;gradientColor=none;fillColor=#ED7100;strokeColor=none;dashed=0;verticalLabelPosition=bottom;verticalAlign=top;align=center;html=1;fontSize=12;fontStyle=0;aspect=fixed;pointerEvents=1;shape=mxgraph.aws4.lambda_function;" parent="KaTq5aqVhibnrpRyyDtL-56" vertex="1">
          <mxGeometry x="82" y="3035" width="278" height="278" as="geometry" />
        </mxCell>
        <mxCell id="VVqcYURe2gfnDvIVS-2d-84" value="&lt;h1&gt;&lt;font style=&quot;color: light-dark(rgb(0, 0, 0), rgb(51, 0, 0)); font-size: 41px;&quot;&gt;LAMBDA&lt;/font&gt;&lt;/h1&gt;" style="text;strokeColor=none;fillColor=none;html=1;fontSize=24;fontStyle=1;verticalAlign=middle;align=center;" parent="KaTq5aqVhibnrpRyyDtL-56" vertex="1">
          <mxGeometry x="105" y="3332" width="232" height="53" as="geometry" />
        </mxCell>
        <mxCell id="VVqcYURe2gfnDvIVS-2d-85" value="&lt;h1&gt;&lt;font style=&quot;color: light-dark(rgb(51, 0, 0), rgb(102, 51, 0)); font-size: 56px;&quot;&gt;Object created Event&lt;/font&gt;&lt;/h1&gt;" style="text;strokeColor=none;fillColor=none;html=1;fontSize=24;fontStyle=1;verticalAlign=middle;align=center;" parent="KaTq5aqVhibnrpRyyDtL-56" vertex="1">
          <mxGeometry x="177" y="2822" width="232" height="53" as="geometry" />
        </mxCell>
        <mxCell id="VVqcYURe2gfnDvIVS-2d-99" value="&lt;h1&gt;&lt;font style=&quot;color: light-dark(rgb(51, 0, 0), rgb(102, 51, 0)); font-size: 50px;&quot;&gt;Parsing + Formatting&lt;/font&gt;&lt;/h1&gt;" style="text;strokeColor=none;fillColor=none;html=1;fontSize=24;fontStyle=1;verticalAlign=middle;align=center;" parent="KaTq5aqVhibnrpRyyDtL-56" vertex="1">
          <mxGeometry x="166" y="3398" width="232" height="53" as="geometry" />
        </mxCell>
        <mxCell id="VVqcYURe2gfnDvIVS-2d-80" value="&lt;h1&gt;&lt;font style=&quot;color: light-dark(rgb(0, 0, 0), rgb(0, 102, 0)); font-size: 40px;&quot;&gt;write access logs&lt;/font&gt;&lt;/h1&gt;" style="text;strokeColor=none;fillColor=none;html=1;fontSize=24;fontStyle=1;verticalAlign=middle;align=center;" parent="KaTq5aqVhibnrpRyyDtL-56" vertex="1">
          <mxGeometry x="580" y="2442" width="117" height="16" as="geometry" />
        </mxCell>
        <mxCell id="C26DziEsk0qb_1Ea8kbx-34" value="&lt;h1&gt;&lt;font style=&quot;color: light-dark(rgb(0, 0, 0), rgb(76, 0, 153)); font-size: 40px;&quot;&gt;write traffic logs&lt;/font&gt;&lt;/h1&gt;" style="text;strokeColor=none;fillColor=none;html=1;fontSize=24;fontStyle=1;verticalAlign=middle;align=center;" parent="KaTq5aqVhibnrpRyyDtL-56" vertex="1">
          <mxGeometry x="577" y="2570" width="117" height="16" as="geometry" />
        </mxCell>
        <mxCell id="VVqcYURe2gfnDvIVS-2d-6" style="edgeStyle=orthogonalEdgeStyle;rounded=0;orthogonalLoop=1;jettySize=auto;html=1;exitX=0;exitY=1;exitDx=0;exitDy=0;" parent="KaTq5aqVhibnrpRyyDtL-56" source="VVqcYURe2gfnDvIVS-2d-10" edge="1">
          <mxGeometry relative="1" as="geometry">
            <mxPoint x="1909.666666666667" y="2366.796666666667" as="targetPoint" />
          </mxGeometry>
        </mxCell>
        <mxCell id="VVqcYURe2gfnDvIVS-2d-5" value="PRODUCTION VPC" style="points=[[0,0],[0.25,0],[0.5,0],[0.75,0],[1,0],[1,0.25],[1,0.5],[1,0.75],[1,1],[0.75,1],[0.5,1],[0.25,1],[0,1],[0,0.75],[0,0.5],[0,0.25]];outlineConnect=0;gradientColor=none;html=1;whiteSpace=wrap;fontSize=76;fontStyle=0;container=1;pointerEvents=0;collapsible=0;recursiveResize=0;shape=mxgraph.aws4.group;grIcon=mxgraph.aws4.group_vpc2;strokeColor=#8C4FFF;fillColor=none;verticalAlign=top;align=left;spacingLeft=30;fontColor=#AAB7B8;strokeWidth=8;perimeterSpacing=6;" parent="KaTq5aqVhibnrpRyyDtL-56" vertex="1">
          <mxGeometry x="1094" y="1622" width="2227" height="1912" as="geometry" />
        </mxCell>
        <mxCell id="VVqcYURe2gfnDvIVS-2d-8" value="Availability Zone-a" style="fillColor=none;strokeColor=#147EBA;dashed=1;verticalAlign=top;fontStyle=0;fontColor=#147EBA;whiteSpace=wrap;html=1;strokeWidth=7;rounded=1;glass=0;arcSize=17;fontSize=28;" parent="VVqcYURe2gfnDvIVS-2d-5" vertex="1">
          <mxGeometry x="143" y="185" width="832" height="1602" as="geometry" />
        </mxCell>
        <mxCell id="VVqcYURe2gfnDvIVS-2d-9" value="Availability Zone-b" style="fillColor=none;strokeColor=#147EBA;dashed=1;verticalAlign=top;fontStyle=0;fontColor=#147EBA;whiteSpace=wrap;html=1;strokeWidth=7;perimeterSpacing=3;rounded=1;glass=0;shadow=0;fontSize=27;" parent="VVqcYURe2gfnDvIVS-2d-5" vertex="1">
          <mxGeometry x="1175" y="185" width="914" height="1594" as="geometry" />
        </mxCell>
        <mxCell id="VVqcYURe2gfnDvIVS-2d-12" value="" style="shape=ext;double=1;rounded=1;whiteSpace=wrap;html=1;fillColor=none;strokeWidth=2;strokeColor=light-dark(#000000,#990000);dashed=1;" parent="VVqcYURe2gfnDvIVS-2d-5" vertex="1">
          <mxGeometry x="283" y="642" width="1644" height="282" as="geometry" />
        </mxCell>
        <mxCell id="VVqcYURe2gfnDvIVS-2d-13" value="" style="shape=ext;double=1;rounded=1;whiteSpace=wrap;html=1;fillColor=none;strokeWidth=2;strokeColor=light-dark(#000000,#990000);dashed=1;" parent="VVqcYURe2gfnDvIVS-2d-5" vertex="1">
          <mxGeometry x="304" y="1006" width="1628" height="333" as="geometry" />
        </mxCell>
        <mxCell id="VVqcYURe2gfnDvIVS-2d-14" value="" style="shape=ext;double=1;rounded=1;whiteSpace=wrap;html=1;fillColor=none;strokeWidth=2;strokeColor=light-dark(#000000,#990000);dashed=1;" parent="VVqcYURe2gfnDvIVS-2d-5" vertex="1">
          <mxGeometry x="301" y="1376" width="1626" height="357.87" as="geometry" />
        </mxCell>
        <mxCell id="VVqcYURe2gfnDvIVS-2d-21" value="" style="outlineConnect=0;dashed=0;verticalLabelPosition=bottom;verticalAlign=top;align=center;html=1;shape=mxgraph.aws3.auto_scaling;fillColor=#F58534;gradientColor=none;" parent="VVqcYURe2gfnDvIVS-2d-5" vertex="1">
          <mxGeometry x="999.75" y="678" width="143.5" height="128" as="geometry" />
        </mxCell>
        <mxCell id="VVqcYURe2gfnDvIVS-2d-24" value="Public subnet" style="points=[[0,0],[0.25,0],[0.5,0],[0.75,0],[1,0],[1,0.25],[1,0.5],[1,0.75],[1,1],[0.75,1],[0.5,1],[0.25,1],[0,1],[0,0.75],[0,0.5],[0,0.25]];outlineConnect=0;gradientColor=none;fontSize=24;fontStyle=1;container=1;pointerEvents=0;collapsible=0;recursiveResize=0;shape=mxgraph.aws4.group;grIcon=mxgraph.aws4.group_security_group;grStroke=0;strokeColor=light-dark(#82B366,#006600);fillColor=light-dark(#000000,#CCFF99);verticalAlign=top;align=left;spacingLeft=30;dashed=0;strokeWidth=22;perimeterSpacing=5;labelBackgroundColor=none;textShadow=0;html=1;whiteSpace=wrap;fontFamily=Helvetica;labelBorderColor=none;spacing=-1;fontColor=light-dark(#000000,#009900);" parent="VVqcYURe2gfnDvIVS-2d-5" vertex="1">
          <mxGeometry x="352" y="650" width="504" height="260" as="geometry" />
        </mxCell>
        <mxCell id="VVqcYURe2gfnDvIVS-2d-15" value="" style="outlineConnect=0;fontColor=#232F3E;gradientColor=none;fillColor=#8C4FFF;strokeColor=none;dashed=0;verticalLabelPosition=bottom;verticalAlign=top;align=center;html=1;fontSize=12;fontStyle=0;aspect=fixed;pointerEvents=1;shape=mxgraph.aws4.nat_gateway;" parent="VVqcYURe2gfnDvIVS-2d-5" vertex="1">
          <mxGeometry x="365" y="737" width="121" height="121" as="geometry" />
        </mxCell>
        <mxCell id="VVqcYURe2gfnDvIVS-2d-25" value="Public subnet" style="points=[[0,0],[0.25,0],[0.5,0],[0.75,0],[1,0],[1,0.25],[1,0.5],[1,0.75],[1,1],[0.75,1],[0.5,1],[0.25,1],[0,1],[0,0.75],[0,0.5],[0,0.25]];outlineConnect=0;gradientColor=none;fontSize=24;fontStyle=1;container=1;pointerEvents=0;collapsible=0;recursiveResize=0;shape=mxgraph.aws4.group;grIcon=mxgraph.aws4.group_security_group;grStroke=0;strokeColor=light-dark(#82B366,#006600);fillColor=light-dark(#000000,#CCFF99);verticalAlign=top;align=left;spacingLeft=30;dashed=0;strokeWidth=22;perimeterSpacing=5;labelBackgroundColor=none;textShadow=0;html=1;whiteSpace=wrap;fontFamily=Helvetica;labelBorderColor=none;spacing=-1;fontColor=light-dark(#000000,#009900);" parent="VVqcYURe2gfnDvIVS-2d-5" vertex="1">
          <mxGeometry x="1297" y="658" width="524" height="248" as="geometry" />
        </mxCell>
        <mxCell id="LgYwcrg43erPUWLEfsrs-2" value="" style="sketch=0;points=[[0,0,0],[0.25,0,0],[0.5,0,0],[0.75,0,0],[1,0,0],[0,1,0],[0.25,1,0],[0.5,1,0],[0.75,1,0],[1,1,0],[0,0.25,0],[0,0.5,0],[0,0.75,0],[1,0.25,0],[1,0.5,0],[1,0.75,0]];outlineConnect=0;fontColor=#232F3E;fillColor=#ED7100;strokeColor=#ffffff;dashed=0;verticalLabelPosition=bottom;verticalAlign=top;align=center;html=1;fontSize=12;fontStyle=0;aspect=fixed;shape=mxgraph.aws4.resourceIcon;resIcon=mxgraph.aws4.ecs;" parent="VVqcYURe2gfnDvIVS-2d-25" vertex="1">
          <mxGeometry x="252.3800000000001" y="42" width="153.25" height="153.25" as="geometry" />
        </mxCell>
        <mxCell id="LgYwcrg43erPUWLEfsrs-7" value="" style="rounded=0;whiteSpace=wrap;html=1;fillColor=none;strokeColor=light-dark(#000000,#330000);strokeWidth=2;dashed=1;dashPattern=8 8;" parent="VVqcYURe2gfnDvIVS-2d-25" vertex="1">
          <mxGeometry x="150" y="33" width="308" height="207" as="geometry" />
        </mxCell>
        <mxCell id="LgYwcrg43erPUWLEfsrs-5" value="" style="sketch=0;points=[[0,0,0],[0.25,0,0],[0.5,0,0],[0.75,0,0],[1,0,0],[0,1,0],[0.25,1,0],[0.5,1,0],[0.75,1,0],[1,1,0],[0,0.25,0],[0,0.5,0],[0,0.75,0],[1,0.25,0],[1,0.5,0],[1,0.75,0]];outlineConnect=0;fontColor=#232F3E;fillColor=#ED7100;strokeColor=#ffffff;dashed=0;verticalLabelPosition=bottom;verticalAlign=top;align=center;html=1;fontSize=12;fontStyle=0;aspect=fixed;shape=mxgraph.aws4.resourceIcon;resIcon=mxgraph.aws4.fargate;" parent="VVqcYURe2gfnDvIVS-2d-25" vertex="1">
          <mxGeometry x="140" y="33" width="62" height="62" as="geometry" />
        </mxCell>
        <mxCell id="VVqcYURe2gfnDvIVS-2d-28" value="Private subnet" style="points=[[0,0],[0.25,0],[0.5,0],[0.75,0],[1,0],[1,0.25],[1,0.5],[1,0.75],[1,1],[0.75,1],[0.5,1],[0.25,1],[0,1],[0,0.75],[0,0.5],[0,0.25]];outlineConnect=0;gradientColor=none;html=1;whiteSpace=wrap;fontSize=20;fontStyle=0;container=1;pointerEvents=0;collapsible=0;recursiveResize=0;shape=mxgraph.aws4.group;grIcon=mxgraph.aws4.group_security_group;grStroke=0;strokeColor=#00A4A6;fillColor=light-dark(#E6F6F7,#99CCFF);verticalAlign=top;align=left;spacingLeft=30;fontColor=light-dark(#147EBA,#000066);dashed=0;" parent="VVqcYURe2gfnDvIVS-2d-5" vertex="1">
          <mxGeometry x="359.5" y="1024" width="510.5" height="285" as="geometry" />
        </mxCell>
        <mxCell id="VVqcYURe2gfnDvIVS-2d-95" value="&lt;h1&gt;&lt;font style=&quot;color: light-dark(rgb(51, 0, 0), rgb(20, 17, 17)); font-size: 56px;&quot;&gt;EC2&lt;/font&gt;&lt;/h1&gt;" style="text;strokeColor=none;fillColor=none;html=1;fontSize=24;fontStyle=1;verticalAlign=middle;align=center;" parent="VVqcYURe2gfnDvIVS-2d-28" vertex="1">
          <mxGeometry x="113" y="218" width="232" height="53" as="geometry" />
        </mxCell>
        <mxCell id="VVqcYURe2gfnDvIVS-2d-35" value="Private subnet" style="points=[[0,0],[0.25,0],[0.5,0],[0.75,0],[1,0],[1,0.25],[1,0.5],[1,0.75],[1,1],[0.75,1],[0.5,1],[0.25,1],[0,1],[0,0.75],[0,0.5],[0,0.25]];outlineConnect=0;gradientColor=none;html=1;whiteSpace=wrap;fontSize=20;fontStyle=0;container=1;pointerEvents=0;collapsible=0;recursiveResize=0;shape=mxgraph.aws4.group;grIcon=mxgraph.aws4.group_security_group;grStroke=0;strokeColor=#00A4A6;fillColor=light-dark(#E6F6F7,#99CCFF);verticalAlign=top;align=left;spacingLeft=30;fontColor=light-dark(#147EBA,#000066);dashed=0;" parent="VVqcYURe2gfnDvIVS-2d-5" vertex="1">
          <mxGeometry x="367" y="1403.5" width="489" height="300.37" as="geometry" />
        </mxCell>
        <mxCell id="VVqcYURe2gfnDvIVS-2d-97" value="&lt;h1&gt;&lt;font style=&quot;color: light-dark(rgb(51, 0, 0), rgb(20, 17, 17)); font-size: 56px;&quot;&gt;RDS&lt;/font&gt;&lt;/h1&gt;" style="text;strokeColor=none;fillColor=none;html=1;fontSize=24;fontStyle=1;verticalAlign=middle;align=center;" parent="VVqcYURe2gfnDvIVS-2d-35" vertex="1">
          <mxGeometry x="135" y="240" width="232" height="53" as="geometry" />
        </mxCell>
        <mxCell id="VVqcYURe2gfnDvIVS-2d-33" value="Private subnet" style="points=[[0,0],[0.25,0],[0.5,0],[0.75,0],[1,0],[1,0.25],[1,0.5],[1,0.75],[1,1],[0.75,1],[0.5,1],[0.25,1],[0,1],[0,0.75],[0,0.5],[0,0.25]];outlineConnect=0;gradientColor=none;html=1;whiteSpace=wrap;fontSize=20;fontStyle=0;container=1;pointerEvents=0;collapsible=0;recursiveResize=0;shape=mxgraph.aws4.group;grIcon=mxgraph.aws4.group_security_group;grStroke=0;strokeColor=#00A4A6;fillColor=light-dark(#E6F6F7,#99CCFF);verticalAlign=top;align=left;spacingLeft=30;fontColor=light-dark(#147EBA,#000066);dashed=0;" parent="VVqcYURe2gfnDvIVS-2d-5" vertex="1">
          <mxGeometry x="1298" y="1033" width="539" height="278" as="geometry" />
        </mxCell>
        <mxCell id="VVqcYURe2gfnDvIVS-2d-31" value="Private subnet" style="points=[[0,0],[0.25,0],[0.5,0],[0.75,0],[1,0],[1,0.25],[1,0.5],[1,0.75],[1,1],[0.75,1],[0.5,1],[0.25,1],[0,1],[0,0.75],[0,0.5],[0,0.25]];outlineConnect=0;gradientColor=none;html=1;whiteSpace=wrap;fontSize=20;fontStyle=0;container=1;pointerEvents=0;collapsible=0;recursiveResize=0;shape=mxgraph.aws4.group;grIcon=mxgraph.aws4.group_security_group;grStroke=0;strokeColor=#00A4A6;fillColor=light-dark(#E6F6F7,#99CCFF);verticalAlign=top;align=left;spacingLeft=30;fontColor=light-dark(#147EBA,#000066);dashed=0;" parent="VVqcYURe2gfnDvIVS-2d-5" vertex="1">
          <mxGeometry x="1301" y="1401.5" width="527" height="299.87" as="geometry" />
        </mxCell>
        <mxCell id="VVqcYURe2gfnDvIVS-2d-37" value="" style="points=[[0,0,0],[0.25,0,0],[0.5,0,0],[0.75,0,0],[1,0,0],[0,1,0],[0.25,1,0],[0.5,1,0],[0.75,1,0],[1,1,0],[0,0.25,0],[0,0.5,0],[0,0.75,0],[1,0.25,0],[1,0.5,0],[1,0.75,0]];outlineConnect=0;fontColor=#232F3E;fillColor=#C925D1;strokeColor=#ffffff;dashed=0;verticalLabelPosition=bottom;verticalAlign=top;align=center;html=1;fontSize=12;fontStyle=0;aspect=fixed;shape=mxgraph.aws4.resourceIcon;resIcon=mxgraph.aws4.rds;" parent="VVqcYURe2gfnDvIVS-2d-31" vertex="1">
          <mxGeometry x="201.5" y="36.87" width="178" height="178" as="geometry" />
        </mxCell>
        <mxCell id="VVqcYURe2gfnDvIVS-2d-41" value="" style="outlineConnect=0;dashed=0;verticalLabelPosition=bottom;verticalAlign=top;align=center;html=1;shape=mxgraph.aws3.auto_scaling;fillColor=#F58534;gradientColor=none;" parent="VVqcYURe2gfnDvIVS-2d-5" vertex="1">
          <mxGeometry x="995.25" y="1033" width="152.5" height="139" as="geometry" />
        </mxCell>
        <mxCell id="VVqcYURe2gfnDvIVS-2d-42" value="" style="outlineConnect=0;fontColor=#232F3E;gradientColor=none;fillColor=#8C4FFF;strokeColor=none;dashed=0;verticalLabelPosition=bottom;verticalAlign=top;align=center;html=1;fontSize=12;fontStyle=0;aspect=fixed;pointerEvents=1;shape=mxgraph.aws4.application_load_balancer;strokeWidth=27;perimeterSpacing=29;" parent="VVqcYURe2gfnDvIVS-2d-5" vertex="1">
          <mxGeometry x="1028" y="966" width="87" height="87" as="geometry" />
        </mxCell>
        <mxCell id="VVqcYURe2gfnDvIVS-2d-45" value="" style="edgeStyle=orthogonalEdgeStyle;rounded=0;orthogonalLoop=1;jettySize=auto;html=1;" parent="VVqcYURe2gfnDvIVS-2d-5" source="VVqcYURe2gfnDvIVS-2d-44" edge="1">
          <mxGeometry relative="1" as="geometry">
            <mxPoint x="1069" y="916.5714285714289" as="targetPoint" />
          </mxGeometry>
        </mxCell>
        <mxCell id="VVqcYURe2gfnDvIVS-2d-46" value="" style="edgeStyle=orthogonalEdgeStyle;rounded=0;orthogonalLoop=1;jettySize=auto;html=1;" parent="VVqcYURe2gfnDvIVS-2d-5" source="VVqcYURe2gfnDvIVS-2d-44" edge="1">
          <mxGeometry relative="1" as="geometry">
            <mxPoint x="953.0000000000005" y="890.5008863434914" as="targetPoint" />
          </mxGeometry>
        </mxCell>
        <mxCell id="VVqcYURe2gfnDvIVS-2d-44" value="&lt;h1&gt;&lt;font style=&quot;color: light-dark(rgb(0, 0, 0), rgb(51, 0, 0));&quot;&gt;WEB TIER&lt;/font&gt;&lt;/h1&gt;" style="text;strokeColor=none;fillColor=none;html=1;fontSize=24;fontStyle=1;verticalAlign=middle;align=center;" parent="VVqcYURe2gfnDvIVS-2d-5" vertex="1">
          <mxGeometry x="1021.5" y="821" width="100" height="40" as="geometry" />
        </mxCell>
        <mxCell id="VVqcYURe2gfnDvIVS-2d-76" value="&lt;h1&gt;&lt;font style=&quot;color: light-dark(rgb(0, 0, 0), rgb(102, 0, 102)); font-size: 56px;&quot;&gt;DB TIER&lt;/font&gt;&lt;/h1&gt;" style="text;strokeColor=none;fillColor=none;html=1;fontSize=24;fontStyle=1;verticalAlign=middle;align=center;" parent="VVqcYURe2gfnDvIVS-2d-5" vertex="1">
          <mxGeometry x="1040" y="1525.5" width="81.5" height="92.87" as="geometry" />
        </mxCell>
        <mxCell id="VVqcYURe2gfnDvIVS-2d-75" value="&lt;h1&gt;&lt;font style=&quot;color: light-dark(rgb(51, 0, 0), rgb(153, 76, 0)); font-size: 47px;&quot;&gt;APP TIER&lt;/font&gt;&lt;/h1&gt;" style="text;strokeColor=none;fillColor=none;html=1;fontSize=24;fontStyle=1;verticalAlign=middle;align=center;" parent="VVqcYURe2gfnDvIVS-2d-5" vertex="1">
          <mxGeometry x="1021.5" y="1247" width="100" height="40" as="geometry" />
        </mxCell>
        <mxCell id="VVqcYURe2gfnDvIVS-2d-91" value="&lt;h1&gt;&lt;font style=&quot;color: light-dark(rgb(0, 0, 0), rgb(51, 0, 0)); font-size: 29px;&quot;&gt;Auto Scaling&lt;/font&gt;&lt;/h1&gt;" style="text;strokeColor=none;fillColor=none;html=1;fontSize=24;fontStyle=1;verticalAlign=middle;align=center;" parent="VVqcYURe2gfnDvIVS-2d-5" vertex="1">
          <mxGeometry x="960" y="1157" width="232" height="53" as="geometry" />
        </mxCell>
        <mxCell id="VVqcYURe2gfnDvIVS-2d-92" value="&lt;h1&gt;&lt;font style=&quot;color: light-dark(rgb(51, 0, 0), rgb(20, 17, 17)); font-size: 56px;&quot;&gt;ECS&lt;/font&gt;&lt;/h1&gt;" style="text;strokeColor=none;fillColor=none;html=1;fontSize=24;fontStyle=1;verticalAlign=middle;align=center;" parent="VVqcYURe2gfnDvIVS-2d-5" vertex="1">
          <mxGeometry x="579.25" y="848" width="232" height="53" as="geometry" />
        </mxCell>
        <mxCell id="VVqcYURe2gfnDvIVS-2d-96" value="&lt;h1&gt;&lt;font style=&quot;color: light-dark(rgb(51, 0, 0), rgb(20, 17, 17)); font-size: 27px;&quot;&gt;NAT Getway&lt;/font&gt;&lt;/h1&gt;" style="text;strokeColor=none;fillColor=none;html=1;fontSize=24;fontStyle=1;verticalAlign=middle;align=center;" parent="VVqcYURe2gfnDvIVS-2d-5" vertex="1">
          <mxGeometry x="285.5" y="844" width="232" height="53" as="geometry" />
        </mxCell>
        <mxCell id="VVqcYURe2gfnDvIVS-2d-98" value="&lt;h1&gt;&lt;font style=&quot;color: light-dark(rgb(51, 0, 0), rgb(20, 17, 17)); font-size: 38px;&quot;&gt;RDS Replica&lt;/font&gt;&lt;/h1&gt;" style="text;strokeColor=none;fillColor=none;html=1;fontSize=24;fontStyle=1;verticalAlign=middle;align=center;" parent="VVqcYURe2gfnDvIVS-2d-5" vertex="1">
          <mxGeometry x="1410" y="1633.37" width="232" height="53" as="geometry" />
        </mxCell>
        <mxCell id="VVqcYURe2gfnDvIVS-2d-89" value="&lt;h1&gt;&lt;font style=&quot;color: light-dark(rgb(0, 0, 0), rgb(51, 0, 0)); font-size: 27px;&quot;&gt;ALB&lt;/font&gt;&lt;/h1&gt;" style="text;strokeColor=none;fillColor=none;html=1;fontSize=24;fontStyle=1;verticalAlign=middle;align=center;" parent="VVqcYURe2gfnDvIVS-2d-5" vertex="1">
          <mxGeometry x="1034" y="573.5" width="229" height="57" as="geometry" />
        </mxCell>
        <mxCell id="VVqcYURe2gfnDvIVS-2d-43" value="" style="outlineConnect=0;fontColor=#232F3E;gradientColor=none;fillColor=#8C4FFF;strokeColor=none;dashed=0;verticalLabelPosition=bottom;verticalAlign=top;align=center;html=1;fontSize=12;fontStyle=0;aspect=fixed;pointerEvents=1;shape=mxgraph.aws4.application_load_balancer;strokeWidth=50;perimeterSpacing=20;" parent="VVqcYURe2gfnDvIVS-2d-5" vertex="1">
          <mxGeometry x="1024" y="558" width="88" height="88" as="geometry" />
        </mxCell>
        <mxCell id="C26DziEsk0qb_1Ea8kbx-4" value="" style="shape=ext;double=1;rounded=1;whiteSpace=wrap;html=1;fillColor=none;strokeWidth=2;strokeColor=light-dark(#000000,#990000);dashed=1;" parent="VVqcYURe2gfnDvIVS-2d-5" vertex="1">
          <mxGeometry x="291" y="259" width="1619" height="295" as="geometry" />
        </mxCell>
        <mxCell id="C26DziEsk0qb_1Ea8kbx-6" value="Public subnet" style="points=[[0,0],[0.25,0],[0.5,0],[0.75,0],[1,0],[1,0.25],[1,0.5],[1,0.75],[1,1],[0.75,1],[0.5,1],[0.25,1],[0,1],[0,0.75],[0,0.5],[0,0.25]];outlineConnect=0;gradientColor=none;fontSize=24;fontStyle=1;container=1;pointerEvents=0;collapsible=0;recursiveResize=0;shape=mxgraph.aws4.group;grIcon=mxgraph.aws4.group_security_group;grStroke=0;strokeColor=light-dark(#82B366,#006600);fillColor=light-dark(#000000,#CCFF99);verticalAlign=top;align=left;spacingLeft=30;dashed=0;strokeWidth=22;perimeterSpacing=5;labelBackgroundColor=none;textShadow=0;html=1;whiteSpace=wrap;fontFamily=Helvetica;labelBorderColor=none;spacing=-1;fontColor=light-dark(#000000,#009900);" parent="VVqcYURe2gfnDvIVS-2d-5" vertex="1">
          <mxGeometry x="354" y="278.25" width="502" height="258" as="geometry" />
        </mxCell>
        <mxCell id="C26DziEsk0qb_1Ea8kbx-17" value="&lt;font&gt;GWLB Endpoints 1&lt;/font&gt;" style="outlineConnect=0;fontColor=light-dark(#232F3E,#330066);gradientColor=none;strokeColor=light-dark(#232F3E,#4C0099);fillColor=none;dashed=0;verticalLabelPosition=bottom;verticalAlign=top;align=center;html=1;fontSize=40;fontStyle=0;aspect=fixed;shape=mxgraph.aws4.resourceIcon;resIcon=mxgraph.aws4.endpoints;strokeWidth=100;perimeterSpacing=100;" parent="C26DziEsk0qb_1Ea8kbx-6" vertex="1">
          <mxGeometry x="162.75" y="-11.25" width="208.5" height="208.5" as="geometry" />
        </mxCell>
        <mxCell id="y2g7LRQMyj6_3e9Jwzpj-8" value="&lt;font style=&quot;font-size: 26px;&quot;&gt;10.10.3.0/24&lt;/font&gt;" style="text;whiteSpace=wrap;html=1;fontColor=light-dark(#000000,#330066);fontSize=62;fontStyle=1" parent="C26DziEsk0qb_1Ea8kbx-6" vertex="1">
          <mxGeometry x="5.5" width="221.75" height="87" as="geometry" />
        </mxCell>
        <mxCell id="C26DziEsk0qb_1Ea8kbx-9" value="Public subnet" style="points=[[0,0],[0.25,0],[0.5,0],[0.75,0],[1,0],[1,0.25],[1,0.5],[1,0.75],[1,1],[0.75,1],[0.5,1],[0.25,1],[0,1],[0,0.75],[0,0.5],[0,0.25]];outlineConnect=0;gradientColor=none;fontSize=24;fontStyle=1;container=1;pointerEvents=0;collapsible=0;recursiveResize=0;shape=mxgraph.aws4.group;grIcon=mxgraph.aws4.group_security_group;grStroke=0;strokeColor=light-dark(#82B366,#006600);fillColor=light-dark(#000000,#CCFF99);verticalAlign=top;align=left;spacingLeft=30;dashed=0;strokeWidth=22;perimeterSpacing=5;labelBackgroundColor=none;textShadow=0;html=1;whiteSpace=wrap;fontFamily=Helvetica;labelBorderColor=none;spacing=-1;fontColor=light-dark(#000000,#009900);" parent="VVqcYURe2gfnDvIVS-2d-5" vertex="1">
          <mxGeometry x="1298" y="278.25" width="523" height="247.75" as="geometry" />
        </mxCell>
        <mxCell id="C26DziEsk0qb_1Ea8kbx-18" value="GWLB Endpoints 2" style="outlineConnect=0;fontColor=light-dark(#232F3E,#330066);gradientColor=none;strokeColor=light-dark(#232F3E,#4C0099);fillColor=none;dashed=0;verticalLabelPosition=bottom;verticalAlign=top;align=center;html=1;fontSize=40;fontStyle=0;aspect=fixed;shape=mxgraph.aws4.resourceIcon;resIcon=mxgraph.aws4.endpoints;strokeWidth=100;perimeterSpacing=100;" parent="C26DziEsk0qb_1Ea8kbx-9" vertex="1">
          <mxGeometry x="157" y="-11.25" width="196.75" height="196.75" as="geometry" />
        </mxCell>
        <mxCell id="C26DziEsk0qb_1Ea8kbx-13" value="&lt;font style=&quot;color: light-dark(rgb(0, 0, 0), rgb(76, 0, 153)); font-size: 41px;&quot;&gt;GETWAY TIER&lt;/font&gt;" style="text;strokeColor=none;fillColor=none;html=1;fontSize=24;fontStyle=1;verticalAlign=middle;align=center;" parent="VVqcYURe2gfnDvIVS-2d-5" vertex="1">
          <mxGeometry x="1015.5" y="442" width="121" height="71" as="geometry" />
        </mxCell>
        <mxCell id="VVqcYURe2gfnDvIVS-2d-19" value="" style="points=[[0,0,0],[0.25,0,0],[0.5,0,0],[0.75,0,0],[1,0,0],[0,1,0],[0.25,1,0],[0.5,1,0],[0.75,1,0],[1,1,0],[0,0.25,0],[0,0.5,0],[0,0.75,0],[1,0.25,0],[1,0.5,0],[1,0.75,0]];outlineConnect=0;fontColor=#232F3E;fillColor=#C925D1;strokeColor=#ffffff;dashed=0;verticalLabelPosition=bottom;verticalAlign=top;align=center;html=1;fontSize=12;fontStyle=0;aspect=fixed;shape=mxgraph.aws4.resourceIcon;resIcon=mxgraph.aws4.rds;" parent="VVqcYURe2gfnDvIVS-2d-5" vertex="1">
          <mxGeometry x="530" y="1443.5" width="182" height="182" as="geometry" />
        </mxCell>
        <mxCell id="VVqcYURe2gfnDvIVS-2d-94" value="&lt;h1&gt;&lt;font style=&quot;color: light-dark(rgb(51, 0, 0), rgb(20, 17, 17)); font-size: 56px;&quot;&gt;EC2&lt;/font&gt;&lt;/h1&gt;" style="text;strokeColor=none;fillColor=none;html=1;fontSize=24;fontStyle=1;verticalAlign=middle;align=center;" parent="VVqcYURe2gfnDvIVS-2d-5" vertex="1">
          <mxGeometry x="1429" y="1234" width="232" height="53" as="geometry" />
        </mxCell>
        <mxCell id="VVqcYURe2gfnDvIVS-2d-34" value="" style="points=[[0,0,0],[0.25,0,0],[0.5,0,0],[0.75,0,0],[1,0,0],[0,1,0],[0.25,1,0],[0.5,1,0],[0.75,1,0],[1,1,0],[0,0.25,0],[0,0.5,0],[0,0.75,0],[1,0.25,0],[1,0.5,0],[1,0.75,0]];outlineConnect=0;fontColor=#232F3E;fillColor=#ED7100;strokeColor=#ffffff;dashed=0;verticalLabelPosition=bottom;verticalAlign=top;align=center;html=1;fontSize=12;fontStyle=0;aspect=fixed;shape=mxgraph.aws4.resourceIcon;resIcon=mxgraph.aws4.ec2;" parent="VVqcYURe2gfnDvIVS-2d-5" vertex="1">
          <mxGeometry x="1466" y="1070" width="158" height="158" as="geometry" />
        </mxCell>
        <mxCell id="VVqcYURe2gfnDvIVS-2d-18" value="" style="points=[[0,0,0],[0.25,0,0],[0.5,0,0],[0.75,0,0],[1,0,0],[0,1,0],[0.25,1,0],[0.5,1,0],[0.75,1,0],[1,1,0],[0,0.25,0],[0,0.5,0],[0,0.75,0],[1,0.25,0],[1,0.5,0],[1,0.75,0]];outlineConnect=0;fontColor=#232F3E;fillColor=#ED7100;strokeColor=#ffffff;dashed=0;verticalLabelPosition=bottom;verticalAlign=top;align=center;html=1;fontSize=12;fontStyle=0;aspect=fixed;shape=mxgraph.aws4.resourceIcon;resIcon=mxgraph.aws4.ec2;" parent="VVqcYURe2gfnDvIVS-2d-5" vertex="1">
          <mxGeometry x="517.5" y="1075" width="153" height="153" as="geometry" />
        </mxCell>
        <mxCell id="C26DziEsk0qb_1Ea8kbx-29" value="&lt;h1&gt;&lt;font style=&quot;color: light-dark(rgb(0, 0, 0), rgb(51, 0, 0)); font-size: 47px;&quot;&gt;vpc flow logs&lt;/font&gt;&lt;/h1&gt;" style="text;strokeColor=none;fillColor=none;html=1;fontSize=24;fontStyle=1;verticalAlign=middle;align=center;" parent="VVqcYURe2gfnDvIVS-2d-5" vertex="1">
          <mxGeometry x="-56" y="1075" width="100" height="40" as="geometry" />
        </mxCell>
        <mxCell id="C26DziEsk0qb_1Ea8kbx-27" value="" style="outlineConnect=0;fontColor=#232F3E;gradientColor=none;fillColor=#8C4FFF;strokeColor=none;dashed=0;verticalLabelPosition=bottom;verticalAlign=top;align=center;html=1;fontSize=12;fontStyle=0;aspect=fixed;pointerEvents=1;shape=mxgraph.aws4.flow_logs;" parent="VVqcYURe2gfnDvIVS-2d-5" vertex="1">
          <mxGeometry x="-135" y="806" width="243.25" height="243.25" as="geometry" />
        </mxCell>
        <mxCell id="LgYwcrg43erPUWLEfsrs-1" value="" style="sketch=0;points=[[0,0,0],[0.25,0,0],[0.5,0,0],[0.75,0,0],[1,0,0],[0,1,0],[0.25,1,0],[0.5,1,0],[0.75,1,0],[1,1,0],[0,0.25,0],[0,0.5,0],[0,0.75,0],[1,0.25,0],[1,0.5,0],[1,0.75,0]];outlineConnect=0;fontColor=#232F3E;fillColor=#ED7100;strokeColor=#ffffff;dashed=0;verticalLabelPosition=bottom;verticalAlign=top;align=center;html=1;fontSize=12;fontStyle=0;aspect=fixed;shape=mxgraph.aws4.resourceIcon;resIcon=mxgraph.aws4.ecs;" parent="VVqcYURe2gfnDvIVS-2d-5" vertex="1">
          <mxGeometry x="623" y="691" width="144.5" height="144.5" as="geometry" />
        </mxCell>
        <mxCell id="LgYwcrg43erPUWLEfsrs-3" value="" style="sketch=0;points=[[0,0,0],[0.25,0,0],[0.5,0,0],[0.75,0,0],[1,0,0],[0,1,0],[0.25,1,0],[0.5,1,0],[0.75,1,0],[1,1,0],[0,0.25,0],[0,0.5,0],[0,0.75,0],[1,0.25,0],[1,0.5,0],[1,0.75,0]];outlineConnect=0;fontColor=#232F3E;fillColor=#ED7100;strokeColor=#ffffff;dashed=0;verticalLabelPosition=bottom;verticalAlign=top;align=center;html=1;fontSize=12;fontStyle=0;aspect=fixed;shape=mxgraph.aws4.resourceIcon;resIcon=mxgraph.aws4.fargate;" parent="VVqcYURe2gfnDvIVS-2d-5" vertex="1">
          <mxGeometry x="499" y="683" width="78" height="78" as="geometry" />
        </mxCell>
        <mxCell id="VVqcYURe2gfnDvIVS-2d-93" value="&lt;h1&gt;&lt;font style=&quot;color: light-dark(rgb(51, 0, 0), rgb(20, 17, 17)); font-size: 56px;&quot;&gt;ECS&lt;/font&gt;&lt;/h1&gt;" style="text;strokeColor=none;fillColor=none;html=1;fontSize=24;fontStyle=1;verticalAlign=middle;align=center;" parent="VVqcYURe2gfnDvIVS-2d-5" vertex="1">
          <mxGeometry x="1507" y="853" width="232" height="53" as="geometry" />
        </mxCell>
        <mxCell id="LgYwcrg43erPUWLEfsrs-8" value="" style="rounded=0;whiteSpace=wrap;html=1;fillColor=none;strokeColor=light-dark(#000000,#330000);dashed=1;dashPattern=8 8;strokeWidth=2;" parent="VVqcYURe2gfnDvIVS-2d-5" vertex="1">
          <mxGeometry x="499" y="683" width="327" height="224" as="geometry" />
        </mxCell>
        <mxCell id="y2g7LRQMyj6_3e9Jwzpj-1" value="CIDR&amp;nbsp; : 10.10.0.0/16" style="text;whiteSpace=wrap;html=1;fontColor=light-dark(#000000,#330066);fontSize=62;fontStyle=1" parent="VVqcYURe2gfnDvIVS-2d-5" vertex="1">
          <mxGeometry x="34" y="73" width="688" height="53" as="geometry" />
        </mxCell>
        <mxCell id="y2g7LRQMyj6_3e9Jwzpj-2" value="&lt;font style=&quot;font-size: 26px;&quot;&gt;10.10.1.0/24&lt;/font&gt;" style="text;whiteSpace=wrap;html=1;fontColor=light-dark(#000000,#330066);fontSize=62;fontStyle=1" parent="VVqcYURe2gfnDvIVS-2d-5" vertex="1">
          <mxGeometry x="349" y="638" width="221.75" height="87" as="geometry" />
        </mxCell>
        <mxCell id="y2g7LRQMyj6_3e9Jwzpj-3" value="&lt;font style=&quot;font-size: 26px;&quot;&gt;10.10.2.0/24&lt;/font&gt;" style="text;whiteSpace=wrap;html=1;fontColor=light-dark(#000000,#330066);fontSize=62;fontStyle=1" parent="VVqcYURe2gfnDvIVS-2d-5" vertex="1">
          <mxGeometry x="1289" y="646" width="221.75" height="87" as="geometry" />
        </mxCell>
        <mxCell id="y2g7LRQMyj6_3e9Jwzpj-4" value="&lt;font style=&quot;font-size: 26px;&quot;&gt;10.10.12.0/24&lt;/font&gt;" style="text;whiteSpace=wrap;html=1;fontColor=light-dark(#000000,#330066);fontSize=62;fontStyle=1" parent="VVqcYURe2gfnDvIVS-2d-5" vertex="1">
          <mxGeometry x="1301" y="1028" width="221.75" height="87" as="geometry" />
        </mxCell>
        <mxCell id="y2g7LRQMyj6_3e9Jwzpj-5" value="&lt;font style=&quot;font-size: 26px;&quot;&gt;10.10.11.0/24&lt;/font&gt;" style="text;whiteSpace=wrap;html=1;fontColor=light-dark(#000000,#330066);fontSize=62;fontStyle=1" parent="VVqcYURe2gfnDvIVS-2d-5" vertex="1">
          <mxGeometry x="359.5" y="1019" width="221.75" height="87" as="geometry" />
        </mxCell>
        <mxCell id="y2g7LRQMyj6_3e9Jwzpj-6" value="&lt;font style=&quot;font-size: 26px;&quot;&gt;10.10.13.0/24&lt;/font&gt;" style="text;whiteSpace=wrap;html=1;fontColor=light-dark(#000000,#330066);fontSize=62;fontStyle=1" parent="VVqcYURe2gfnDvIVS-2d-5" vertex="1">
          <mxGeometry x="365" y="1396" width="221.75" height="87" as="geometry" />
        </mxCell>
        <mxCell id="y2g7LRQMyj6_3e9Jwzpj-7" value="&lt;font style=&quot;font-size: 26px;&quot;&gt;10.10.14.0/24&lt;/font&gt;" style="text;whiteSpace=wrap;html=1;fontColor=light-dark(#000000,#330066);fontSize=62;fontStyle=1" parent="VVqcYURe2gfnDvIVS-2d-5" vertex="1">
          <mxGeometry x="1306" y="1396" width="221.75" height="87" as="geometry" />
        </mxCell>
        <mxCell id="y2g7LRQMyj6_3e9Jwzpj-9" value="&lt;font style=&quot;font-size: 26px;&quot;&gt;10.10.4.0/24&lt;/font&gt;" style="text;whiteSpace=wrap;html=1;fontColor=light-dark(#000000,#330066);fontSize=62;fontStyle=1" parent="VVqcYURe2gfnDvIVS-2d-5" vertex="1">
          <mxGeometry x="1301" y="269" width="221.75" height="87" as="geometry" />
        </mxCell>
        <mxCell id="LgYwcrg43erPUWLEfsrs-9" value="&lt;h1&gt;&lt;font style=&quot;color: light-dark(rgb(51, 0, 0), rgb(20, 17, 17)); font-size: 27px;&quot;&gt;Fargate Lunch&lt;/font&gt;&lt;/h1&gt;" style="text;strokeColor=none;fillColor=none;html=1;fontSize=24;fontStyle=1;verticalAlign=middle;align=center;" parent="VVqcYURe2gfnDvIVS-2d-5" vertex="1">
          <mxGeometry x="1324" y="722" width="230" height="104.5" as="geometry" />
        </mxCell>
        <mxCell id="VVqcYURe2gfnDvIVS-2d-105" value="Inspection VPC" style="points=[[0,0],[0.25,0],[0.5,0],[0.75,0],[1,0],[1,0.25],[1,0.5],[1,0.75],[1,1],[0.75,1],[0.5,1],[0.25,1],[0,1],[0,0.75],[0,0.5],[0,0.25]];outlineConnect=0;gradientColor=none;html=1;whiteSpace=wrap;fontSize=100;fontStyle=0;container=1;pointerEvents=0;collapsible=0;recursiveResize=0;shape=mxgraph.aws4.group;grIcon=mxgraph.aws4.group_vpc2;strokeColor=light-dark(#8C4FFF,#990000);fillColor=none;verticalAlign=top;align=left;spacingLeft=30;fontColor=light-dark(#AAB7B8,#663300);strokeWidth=7;perimeterSpacing=6;" parent="KaTq5aqVhibnrpRyyDtL-56" vertex="1">
          <mxGeometry x="3823" y="901" width="1265" height="865" as="geometry" />
        </mxCell>
        <mxCell id="VVqcYURe2gfnDvIVS-2d-140" value="" style="edgeStyle=orthogonalEdgeStyle;rounded=0;orthogonalLoop=1;jettySize=auto;html=1;" parent="VVqcYURe2gfnDvIVS-2d-105" edge="1">
          <mxGeometry relative="1" as="geometry">
            <mxPoint x="718" y="-5" as="sourcePoint" />
            <mxPoint x="676" y="111" as="targetPoint" />
          </mxGeometry>
        </mxCell>
        <mxCell id="VVqcYURe2gfnDvIVS-2d-152" value="Private subnet" style="points=[[0,0],[0.25,0],[0.5,0],[0.75,0],[1,0],[1,0.25],[1,0.5],[1,0.75],[1,1],[0.75,1],[0.5,1],[0.25,1],[0,1],[0,0.75],[0,0.5],[0,0.25]];outlineConnect=0;gradientColor=none;html=1;whiteSpace=wrap;fontSize=20;fontStyle=0;container=1;pointerEvents=0;collapsible=0;recursiveResize=0;shape=mxgraph.aws4.group;grIcon=mxgraph.aws4.group_security_group;grStroke=0;strokeColor=#00A4A6;fillColor=light-dark(#E6F6F7,#FFCCCC);verticalAlign=top;align=left;spacingLeft=30;fontColor=light-dark(#147EBA,#000066);dashed=0;" parent="VVqcYURe2gfnDvIVS-2d-105" vertex="1">
          <mxGeometry x="453" y="261.5" width="693" height="377.5" as="geometry" />
        </mxCell>
        <mxCell id="VVqcYURe2gfnDvIVS-2d-151" value="" style="outlineConnect=0;fontColor=#232F3E;gradientColor=none;fillColor=light-dark(#DD344C,#CC0000);strokeColor=none;dashed=0;verticalLabelPosition=bottom;verticalAlign=top;align=center;html=1;fontSize=12;fontStyle=0;aspect=fixed;pointerEvents=1;shape=mxgraph.aws4.network_firewall_endpoints;" parent="VVqcYURe2gfnDvIVS-2d-152" vertex="1">
          <mxGeometry x="222" y="28.5" width="259.5" height="259.5" as="geometry" />
        </mxCell>
        <mxCell id="C26DziEsk0qb_1Ea8kbx-25" value="&lt;h1&gt;&lt;font style=&quot;color: light-dark(rgb(51, 0, 0), rgb(20, 17, 17)); font-size: 30px;&quot;&gt;FIREWALL ENDPOINT&lt;/font&gt;&lt;/h1&gt;" style="text;strokeColor=none;fillColor=none;html=1;fontSize=24;fontStyle=1;verticalAlign=middle;align=center;" parent="VVqcYURe2gfnDvIVS-2d-152" vertex="1">
          <mxGeometry x="237" y="271.5" width="266" height="87.5" as="geometry" />
        </mxCell>
        <mxCell id="C26DziEsk0qb_1Ea8kbx-21" value="" style="outlineConnect=0;fontColor=#232F3E;gradientColor=none;fillColor=#8C4FFF;strokeColor=none;dashed=0;verticalLabelPosition=bottom;verticalAlign=top;align=center;html=1;fontSize=12;fontStyle=0;aspect=fixed;pointerEvents=1;shape=mxgraph.aws4.gateway_load_balancer;" parent="VVqcYURe2gfnDvIVS-2d-105" vertex="1">
          <mxGeometry x="158" y="320" width="199" height="199" as="geometry" />
        </mxCell>
        <mxCell id="C26DziEsk0qb_1Ea8kbx-24" value="&lt;h1&gt;&lt;font style=&quot;color: light-dark(rgb(51, 0, 0), rgb(20, 17, 17)); font-size: 35px;&quot;&gt;GWLB&lt;/font&gt;&lt;/h1&gt;" style="text;strokeColor=none;fillColor=none;html=1;fontSize=24;fontStyle=1;verticalAlign=middle;align=center;" parent="VVqcYURe2gfnDvIVS-2d-105" vertex="1">
          <mxGeometry x="85" y="522" width="232" height="53" as="geometry" />
        </mxCell>
        <mxCell id="C26DziEsk0qb_1Ea8kbx-26" style="edgeStyle=orthogonalEdgeStyle;rounded=0;orthogonalLoop=1;jettySize=auto;html=1;strokeColor=light-dark(#000000,#330000);strokeWidth=5;" parent="VVqcYURe2gfnDvIVS-2d-105" source="C26DziEsk0qb_1Ea8kbx-21" edge="1">
          <mxGeometry relative="1" as="geometry">
            <mxPoint x="613" y="404" as="targetPoint" />
            <Array as="points">
              <mxPoint x="324" y="404" />
              <mxPoint x="324" y="404" />
            </Array>
          </mxGeometry>
        </mxCell>
        <mxCell id="VVqcYURe2gfnDvIVS-2d-154" value="Availability Zone-a" style="fillColor=none;strokeColor=light-dark(#147EBA,#990000);dashed=1;verticalAlign=top;fontStyle=0;fontColor=light-dark(#147EBA,#663300);whiteSpace=wrap;html=1;strokeWidth=7;perimeterSpacing=3;rounded=1;glass=0;shadow=0;fontSize=27;" parent="VVqcYURe2gfnDvIVS-2d-105" vertex="1">
          <mxGeometry x="95" y="202" width="1069" height="472" as="geometry" />
        </mxCell>
        <mxCell id="3NP8SoBvH1XfvLIH81yX-2" value="" style="shape=image;verticalLabelPosition=bottom;labelBackgroundColor=default;verticalAlign=top;aspect=fixed;imageAspect=0;image=data:image/png,iVBORw0KGgoAAAANSUhEUgAAAUgAAAEECAYAAABKjq0kAAAAAXNSR0IArs4c6QAAAARnQU1BAACxjwv8YQUAAAAJcEhZcwAADsMAAA7DAcdvqGQAAP+lSURBVHhe7P1pl6zJcd8JemyZefdbexWAAgo7iIVYCAIkRVAU1Vr6tNSaaannnOlPM59AX0Av9Go0fWZ4eIat6aNWt0Q2VxAkdoBYClthqX27+83M2Ob/+5vb83hEZtbNqrpZlRcIy7Rwd3Nzc3Nzc3N/nngiYrAUlA1sYAMb2MABGNZ0AxvYwAY2sAabALmBDWxgA0fAqbjEXtR0ULGsa2SiyKLXbFkos9DfsjJPliKAg0GZkog2kGB2APKGypLiO/prgHmOYSHkHgcQNReiOYB+I+UHda/CFtSMXToGWIxeBmRQIgbY6zOrY1iTWOvdvELwOfva0Ml+bcix3C14vbJSTVLagq2vTZbTMhuMRR+UCRXgcF4WQ2ZnoHnRnFSfWgeWzaChz4Q03/JymtsHZ5IwQLYozO5cUmMMB+WtA7PlKb3L0Pqps9lHph2xYvWrpUawUMoYYTm2f97j8LYHSDonYGB0B7PUJuYlUMDEQBrxUusWioA4HXUTEeTXBpxzOF+WkdC8BmUQ3sls614L4FtjPGTBVKF3huVIrOgtd5PCQ9otGblwMCqz0VCLtpSd4L4zWDW9sBtUWUtlbcfFvl72TC6LLdXVcVhVvThtQfXHcQeP/0DjQ6BOyB2B8R8DDuvygL6MSzaG7jrKQvJKFjLOQt2NTZuV2WRbczEq26iKIw4VNEd41VA+JTkL4SHq5bLJILmnFoTVM/tTyZHdFUH2R3jlpExwSCZlzHyQP8Z4O/3vAIf64iHgDRIbILOmlo8/Bjp4WjXq5tK08g0IjvIrY8AmQL5FQOcrAVLYzYKASaOI/+KAWuZqICIEmPHhOunz6awMd2+VkXC+uytf1yRz1LSEKjSjKND0cyTg2OuMhzoltMPoazDXKB3BQJURPdAZY+dMKZcul3LuvBbo63BAt+clxyX5jHlXi/HqS6XcvqajjPL0YfX04lRt+Hc+QM6gV/BOQKOm4VGwiD5W4DB30wI8IO9QvpquwBrRqsmAtKd/z5WQcgYHYFuetL1dyn2Xy3z7rDZeeEQfzMrUJ8ihToOaBcwqcYcBS4cASbpQQBntazN66dVSbl4PPxuih2Sw46m+jDlnCojQdwLaW987wPAQWYfZjo3ZAxTaJDrNjhQUscG2tuOtbbmI8pOzsdbgqUCgpLXPj9gUGP5qhMhTESCZEM9ZxYSsCwXnctmpUFM11+Tkyl6IQ5dKZTYti+tXy/CF50r5xc/L1RdfLPvXb+o4qXbiyb2PYOqcHJu/O0FwR9uEw1sdw+kFk5n0zYUqZ2OfLmculPGjj5ULH/toKe97b5ntbCtA3lk3A6I8prho96g05vLMC+Xq33+zTH/xVJlffVXD1QWjTqe5oGNcyjfdsBAiSN4JzFnzRwOXmyMmcAXU81oXAwLkGu0wLVpdE9rL3ARbQrbFzA69jBm6WOOKY1nGFy+V4RPvK2c+8qEyfuwxBYutOISPlz4N0nKbDqEdESATHCj3bpfl88+Vm1/5Rpn/7KfaA6dlLvpQgWlbcZHgsjeZKpUHO1i9NkyH8g37yR3ALKt8h9lkqLFwDoSTYXHG2BtLl8uXy87DD5Xzjzxcxg8+VMrld8lJt3SyHtfbBDF8DiZjgvxcaw0YH/sa556Gtz1AAvjg+pR6Ihtkcke6JLLLa7FzP2S50CXStaulPPdc2RYunongOH/mF+Xqy6+U2W3t6FMF1bnaugctzs7pKK/2mjUtwB/B5LVhqMum6KGHlN7Sprp8G0gmgWipRTxVu8Wl+8v2h3+tPPoH/6gMPvOpMj1zRhdmxwu4ASz6cH4HhKks+uST5fn/+l/KrW9+XfZ4ppyTNqORwq6DRQQJgulqgFy3yGvBnTnZjNqTyFFwmAcetsiPC/YnZBKgUk8lBEcCw1wbJsFg57O/U+77rc+WyYc/rE3qnC1CQwIk4WQbGccIkAs24Ns3SvnJj8pz/+m/lP1vfKMMdm+WuTbtsRpPFFfw393JTOIVlHSCbEd3yPDlTx5AFO4CMOscEvA7bLPQpjTb0kHjkjbn++8v5x59pJzRRrH7jifK9gMPlsHDj+p0fV+Z6qRdV13cS/UalACuSH4F4FQEyFaBzHsR61KUkw8lHAons8NyOpjul/m1K+X2z35cbn3rW2X0gx+W+U+eKgMFxsWNG2W+v++T41gRAAmdw9UOLFGLMB3VtYeZQp7hIOkqXvoWSUPKCD3z8qOCg1GVmS13t8jFqRbivrTbv/xgGf/6J8vj/+q/L4Pf+ny5ffZc2akh/U4QcrEWQY+1LMqeLqllk+f/lz8ut/7mi2Xx05+WS+NJGelUYH1q8BkMda7JMUOiir/acTtm2oEH41bPD6Q4gFNQXE32ArOaNr31qWrqwCq0EWfIFh6xKl1eU4DNkz93XQUgb6YabDSXX209+s6y/bv/pNz/j/5BGX7iY6Wcv6g6t9B1SsyppyqMeiiEPWRDAuSta6X88PvluT/84zL/2y+XxZUXdVWtAKlAFG8gKvAOCZAD+ST9xOhjHKFkuymMkG1yHYDAJ23zU0p6SOkhy5LfyeNKJUY3lo+yFpAx0yX2nnCmy+zhhfNleOlSKe99olx64r3l7Ic+UsrjT5TysE7X586X+UQBVe2RAaJfQqv3LxucigAJpBKkkderVBumU+gVB5/s7pfBq1fL7BdPl92nflRu/OC7ZVe4/fyzZfLKy2W0P9NVtRaCHGGkhYCDIsE7J3IIrpaokup6F6K76LkFuo86VgqEcGwAfvoZKtD40t8qm9t8Q+4PweO+BaLNRBro5DvS5Yrih04rg7J3vy5tPvnp8s7/4V+X8g9+p9w8c76clcTjuB1axe0DbIRuCN0t5RtfL6/80R+Vvb/8i7L42VNlR5fto7FO3mwak4mdmlPkfM7Ska2GugSXvizKueyHNGyP7zuIChlbLgbPSC0H7aC2PtNmvdmxRdgRTfu2SEN+lWLa4ZBV8FofCpbT05YqYD3/QaNz5WeyuS8vxbP1jneVyT/4Z+XiP/k92f4TZXn+krjC5vWMFAESxIEOgbRHBEhdyShAvvgf/rCUL/1tGVx5Qb4mX1X9hBOj5OwPIkDikeiG8LCtsiqGr1PEFrKTaHAlDPJ+I2M0QhNHLdsO+qO9cxgFdv3NBtJRLGNhBF+ow7Ivfebci9yKe7Lziztl66FHyva731e23v+hsvWhXyvlPQqUDz5cFmd3NIbwubOW/MsPR0z92wtMKw7lhyTmmkxdMg5nctvd62Xx7C9K+fa3y/Iv/rIs/8uflsWf/nkZfuvbZfDs02VwW/XL/Ti1jOW42vWmuorYl1eAe+BkqUsdUu7BCCcKUCB8SWtwKjkz1ZM6nyk7qnCuOlK37XDg8nRLqXC6pXpQdN7B5G9sxGG5dQBqwPoPON60wM55yTn9x3Kw9UwjBE50SUQwnmnsM3WIvtzCnaHfqNI8HtHq2LAZbxSR5phjrDFm7EG7LjUPsipK1lxIwOVWAfdTedcYpGxUMJhUGgc0NRPfkmnzpZzzFTGbUfQD2NY53/eFLE7UY9l2LIeSqqYZlfcViQOLCgIS/A7rkyeYZt2dQYxMw0xzqQ1mC70VkYZDroJ4k4M3GDV+jXskuwylX4onxiWNzXYknsUo7I7951sjY9i5+t8450FY54Z5tD+6Puevzqvk7gv3lN/DF7fVflsdKy6i43Cma5lbN8vWc8+W2fe+W6789V+UV/7k/yg3/vxPSvn6V0r50ZNl+NJLZVvj8xulvyJw6gJk5zRytlz7Tq/fKFs/+H658Zd/Xq7+7/9bufV/auK++uVy4emfl4s3b5QdeTM32udyfW6Cs1Pn4zNcXPAWj1FOGIgTCuWYRuflxuymDULjDuaS5+W49ylcDvv8wnkhfCmnyqKPeaXP5Zyky8G2BrgjtbSE1JbLQUbMwlSlIksETqh3BsIjDcky3oqM2X3GjX4QXUdjXUrJRjPx7GnT0eFRK1PhSrSlbDbTZjTjpuFQ4UY02002bMfNu5eUI/RUuyhdiA9e0qVTjV8pfZEmphzbzjYdu8/km8Gnfrt2kk2ZOUCfvh/qg2ehHXEuJIUeW4NQpuFJL58INRdLbMKcaP4XQlvOK4B8nPLUmTcrTuV2v+NNhECMC/wufI9T7FJzzrwTmOa22cR+4bmxnygv5ATX+U6XYlu1qbYK/wvbx3yIp6PTXnwVzcMcKh/zNdZGqblXaJtLh6lo+7qK4PJ6rkC7VH8j6ehNRjY8o6uwnVdeKcsnv1uu/9Wflef/0/9SbvzVn5byfR1EXny2jHWFwqm5BZ9gfwlh9P8Q1PypAfsknmmHXZTZletl7wc/KKMv/lW58uW/K9Pvf6csn/t5Gdy8ohPmnpxPvknAKdtlouPRGa2I8UwnBlVM5LRMOsi9n7EWI3ke4ZgsJkqp50Z6TQ+g2iBPssYKXhO3F51AZhqXYqJbHvS+LbJp43bQlS5HZ3RZpMtZFpBOjvtyrIUuqYcPv6Oc+8jHSnnXe8pg+/hv0XBXjaVne4XllJ+X+QvPlpvf+/sy//lPy+DVa+XscqfssHnYJuijkwr5Og7GNdL1/0hjHc0YF/fgGEetFzIOj5V68ZFuMTa1TR7KW7YvIYZApJEQnEACUU1976LmueQloHV0Npca6JLPaBqXp7RTGYTepVFPkKG8FH/sscgh0CIigufwwsWyfA+XkU+U4aOPluVkJwIkDTCjC0Cc9I4CLmN9qa2gUl56pex96ztl+PTTZTm95ceFZtTLHgNhbCgEN6WMQak3GnStZaeyHfbDjsxPN1d1LsKnVMb+9rGwvXmrf4Nb+CHzpfz5GWtDm6RsYktJL/6GMgo+jIyRePdGCqjaWSbcNtjfK8tbN8re9avl9u6tsq/y2bE2AAXX2fmLIUOY0OZ/WQBbva3A0piW22WhQOdHA4Xs+vuexb1Srj5Xxj/8Zpn/5Z+U3f/6X8r0a1/zu7KD2bQsx2NdUmwrQGrn1IQOeIdtoMtJUMsBXHAU1eWK/MiLY6BdU9cU6ld0OfBSHfpxc7Xxs2cg+VrO+plkI9GPCflkJtmqIz9bqG4hfdyONnOtT7Xjnhfnlyp3KRzNb6p+z4tnKmclGI3kkDycbE8dyTFzbR4Dqrv7v0OGrIUy1MLwu+tagHPpNV1ONQbppCbYA9v045KO2Eh1C+kPvRurLBB5UllDeYnmsFtmql/4dMxpSTTJMEoPDQ9T+xKS0MWlpiMQ99dA8kLWFffSuMfGo0g0aGm+z8bcuYxQpZrTgU4/A/NHX5zYqI8Qmv1W6DIC6JJnPk4+BDiMBo8baq7MFnLIJ7ZAfV+hF40vbBW1fBKHeWB+l/LPuf0BP5V/gMoPZT+GMMI2sjn0IXOBnZWfisYM4RTxwQiw/qkc84Qvxlz5DcWa5xNBtKHF3nBfPsbux/bgITo4qlK+u9Qa1GYtPtejkwLlmdFOOTfXIeLlWwr8T+rq7W/K3p/qJPntb5bRq6+W4e5tOcC+xjQv++pzV+J4FN7W4/gO3uPA/L+twGRpz5KDVGcTECD1WsrNa6VwzP/rvyg3/vaLZfbzn5UdXU5vaXHhugt2uzGXg1qRao5zLeQwUznMciyCMJwKt8I1+SMNR57jXNTWNLH7Ex0nJBg4qBirI3Z5pQSb6ojhrMoLCSh2VP+F7NFArrjct+MTHiYK7mIRP0GShcHYjwteogGYr6KLkjnU4uSxEoKBP0ghe6ArY0KbATaaaLPQGHLkfZBkE2AcEtTRaMvCEypAgUunqre9JYsy8hgUbTVXS88LAUHnI7H5gKc6yqYR1Iwozr/aAcpbhoDTNmPjTZ75AnlhK81A/FGuect10FNfBEKCq+UKSZ0J57f4NkAKQ1JdHFWVhLWiIfSN9tZReZ8qFSA4sfnUhg4EdY8b/xVik4r+5ApjqHmCI/ZPf7PNmzzz6HkRhn+KzrwK8S37r/piXint+xNC8jkio3Rk3GwQrCMmhdsPzB2eIEleg5xmOflyOj17W4Hw50+Xa1/7epl+6Uvl1je+UcqVV8S+b/2xO4DNbLdfEnj7xyLnGexr9S5YwUo0R7ypsHX1Sik/eqrc+MrXy/WvfVPB8Zly68ZNv9s6UWDE4biZzTt/0Lob3w3yJgGOyjvNnDAToeU9k/U0oeMRImusS4sRgZg61zvrOr2E7NqG0wJ9us4Q9Ow7BNhPa3sznSDIVlzWd5f20kWLkb5tN28woQc0v5uNTuJbKVdaHXrQKsQ4gpBjdV7IO+XYBEBWYgJzGH2wZAN8WqQkAeia8rCr33mnjC5K0662rXmCN3XPvkJFeshe7j6EfFSTTvUExVhGvs+X40ye3i9b/ZNOMfWHllrb9yudPAisy7MAQ8x5AuypQ2xMyKprBrMKeRTKoXKkfrU0RwrAZe9WufbM0+XZr36t3P7il0r5/vdLeeUlnyJ5A2pHLP6wEJcP+ieQ3+twKgJkmW8p5aYzdtVl6O3rZf6jH5aX//TPyvW/+dsy+uGPy7mr18qWAiPvbHNZhO1t/3lckvKusC9pmGQ7VCwUJh1fSAeJciAVbbqSx2mawNECi5IFkAGRztyGymyvwrrjA6mTLyWVUu4izglC6oEqMZw+qFNmAWO3BPLoiWpuRwq/Fj1ltxWmXOcrra1DNnJskJRVMcHSXe5plTtwpU3YuqmtkHYnGMjOBKhsV7mivg9QdxXolD5rX12/StVr12enE/wVsuzbCXUMMZ7VeqCVAxw2Fs+j6NlDBj9kArTtfFeQffInL6CBUP6h4DjnqmbM22Ozck7HzrPTvbL8xc/K/ItfLDf/6i/L8odP6iR5RZfbe3F9rQOwlnBcbdT+7mXoV8TbBdiQt88UixTWyuD6lbL8wZNl78tfKbt/93el/OTHZXz9Zd5784lRM9vhUsGRS4VAlVmUogG54Hvnqk5gRwnwgs52Snn+bwHCj0zxmFvl1qES7FLpXEb12ZT7vgOg+RQqodnnyULKj1OXT3JaxNbDtpEZsYF1MZt1Sv1BKjyOTl8WfIyl46l2SOjp/ZjzGb82eCYwZ0bmVf/Mp+e45kG3RjfpHcFbFMoi00cGAerdUP9dX/hK5atqGaDdNUAYOguinzr/JgiVwYesE3Rj8JpFqU+DHlucOB3oBMGLpD7oUU47Rl2A5dBONM955Qm5weM2aZumrfOsH6W+xaLepgtdluuKbqxL921dup+ZK1Du3i6TZ58qN7/x1XJN67T88CelvKorvoWiI33QPT4RYu9piBl4G4Gd5oaO8DxAXfi41i+eLtOvfqPsfunLZaFT5ODaK9Jy5vtzTDCTGItdE6cJoYxTMNnzWThEOgV0kLwXUHW4lk47gHxgOIiqu3o7UuVLwOHSmTOv1l3fQPYBECRA3MYLVuR0IPrqoXfYNwWIiUFI/xgX+nlxuipssGgvV6kXL2XXiZbj6cbUjBtkFE4qmFbrHMQEtA1yLHDkd3aCVuU7CDf9dUEZWeoT6IKI5jOh10V9qU3br16dp7abS9mCcbquF/PmwH1xKcrtnnorJkhYyPpWDV2RupGmTV3b1QnquED7F5tb1JgnT/Pd2Gu7lCVCZ8M+KAeGHWo/go4mV7CdVOb+pSgOkNxn5PEnnoHckfjl9Hq58aMny40vf63c+MrXSnn6F1rEN8tisijTGL6v9O51qJZ8+wAT8vH3xd7NUn7+0zL/xjfKdZ0cp9//Xplcv+qda+mHk0daVDiTnIVL7fHYjtXfsI+TioOQ8rPZrEyFyPelcrqnCDhDOl0uuGgHR3XBKLjODiikbTqW0Q4uGi+AktradKPzlV8Yzofb8Uc9rycDqQuADcbYrdon+007xHgZp8kBDACoPLaFya3OjCtyyLI8p/D3C7ytW5EjdB0CkCMkn0h9nC4bu4PYMbGjh0wHwEozSFDWB4Qumb8rQMAWsnnPtHmb5PEzpKoL45RdwjbVnpTNvQppK4C2IbduZgD13KbpxlJ5heahXvJzvmNOVpH6hCzzlEfe0+eKjXQ84OZV6iL5/OnAsrW7W+Y/+km5/pWvlukPvl/KSzrcKHDOl3sKjtz6Omxk9xa87QGSpbpV9sqWgmF56qly+5vfLPs/+F5ZvPJCmQx0ZMfppCbPxcWjDJpcOQYpj+1Qb5dRqhl1mtPC6YiFBMDK7PqEmFAdpXUY+Mgn5JqCkmQc1gtQsn0yc8pCj/poT0udXJWnHAs0pKWGDhZywpMG1LHD2/mjv3gDgcc5YgF5/KTmD32TZsQ22davPdgGdWxA5GO8K3RhKwfgFIROfqOm9t/nqz5g1edQqH1QnbrTG3kHI2HkgzX0avzgboA778dl3aEJMpD3kLqlTrFxuqaai3Ql8Ae5AySDBGGE1K5MA7o5y4oKlqc0+g596Rt6zE208/18SePZYR58F1XrLx5qn/P0iIIop8nxlSt+Rnn377+tdfv9sn3t1bKjQwvzdUDpexD6GX2bgJ2GN2DKL54p8+99v+w++f0yuPJymfDM1pbU80Rs+08ryUGRo/8Mp1PAHOgkyWMOfDLCN4aro41FZ6LtEPBW9JyJ105Zd+RwwpjNXLzpVtnW9Wpnma5Ynf1sTz1AmTyITKr7hRpyjD4FnCygGf3Hu8GxGFkmXjzCLtjrr9UfyAVGOTcCCxNQRy5tC3LS6cvRV0fj/pYsi8SUGyrURanFR0of7SkrMK7b4E1+I21qkE8wTfzUJz9zkDzIj0vsuwiIk/zxZGzfY5CMuZpKED7XbiYkwQM9MATJj7EZG7xojGOsMYHkUxY8bgOq7xxve8UU8xBrIuajn0d0We9fFNNVUQYzzcNUqJRPMPnTYZOJLqO3y2R4RgeYUTmrQ8nW9Svlxt9/q9z+mi61f/yzUq7f0uW2JKHXPQ4nvzrvBCyaF14ou9/8drnyne+X/Wef1TX3rTIbz8t0HPeTzswVIvfjuB8+Hjex4/Sjov2DhdAsiGAMUL675BL6dNLWV3C7miaQt1NCqzLgMm/la/lbyEXoIMvC4A8ZmQrR/aQhtYt7nzF+LqN8glB5Ppt5saUujMfjZIxekP1Cs85HAjapgYi2TqqdarkdcNZ1C11AmgE1gonJBgKsv0ijEt3euWhHG+pbmoMAaJnRzgFnXG+UteDqpsPXA7XT1CP6jv5jnK40D/0HVtsIqII/IchRD599sEJtYsh+IMHLmohNPd+UiwBrHdxf8HUHgboRpR5yDqj+83dISqUhn/gRHx+XnCqdcbrkw/pKecZ1wocknnuu7H7re2Xva9/WleAvtIb3dUrpdb5X4WRH4I1LzlKf0+e2r59A5VEAkG+6vvGKvwXl2te/XnZ/9OMyvnrTT+/vzLfLaKHToVrdLrtlOtSJEgf3hGniNIFe8Lkg5BQgeZyCkyQTj8OIYDpOAa1zKhxFmG6ZdAeDmgdoQ5+5I/bBOQIJwImlLYfskEme4B51SjnqKst+jSH88DBv1QIkNXs8YApBW6EHy4xUHYdtlPLHIuAWhd+ptM3iz3w0QV9OQYL+tOFiB5Q9HmGMNcabixl7uZ14PQ9CeNogG3KDh3nm2TtS7IxejmeMgUWrtvGFv307ANkqdGXq+eQKEv1AvMZoMaL5Uy1sCsxFPZHS1o3I1pdocQzo+kQ/crqymc/8yaoeZB/x4WVgbs7tGOi/DZZA2hMebOEN7EB9X05ZubkA1GMfgqBp6JHtKn/2m7KWrE/luSLjjdPFmE9IMSfyE41rLPlbCr4jPkGj0+Nsi49KyrY3r5fxUz8tt7/4t6V878lSXny5DG/flkJa4/RFd376HN2wDzFBY1MutD2dwMo6ObDNZXy/xoTE0/pkZBYZcPfnPy+zJ58sN3/20zK/eqUMpzKejuc4tPzbE+8TAH8sGmHskEJOnwKcDseIy2smm/BZU9V5wYK13EHm3YdQfVq+8tkHc9tBkzfPCladsgyT5KfzJXb6OY/zy6G1C/uEqXYnBcRJgD5ywYHYZcLtCOnTj0VYxw8C3b0pbQxhzzom5XM8/RgZep3xKs+Xdkpd3/AmZhsjMpEvFKHSarrWV9T1NMYRzaBXNC2CNkqhF4vzrgNGrn0D3kilm20gO0IPW4RNRdB/6GV9hdg284mdDWvwsx3FB68YLCptTL3brEATGCmlPPF2VzkqO7hySkcOPOJnI2VMliEa70zzbjZfboGh2euxJd+2Nbh+Tev5Z+Xa97/n9xPKtWsItnybmzYWRqH22+VOJ5xogMR4Nkje5NUrz5Kyd2gmSrl6vdz+wVPl6g9/WHaff66U3VvFVz7sXHI2DM8pkUAJ2hlkzVXzQo6TCQ4EzQ6Qf3WCclEnuGynqSYQG+LtRKYnRnUL6WAHMeppZ9lRXAHXSQ9S+LkUstNXxz9JQDw99H2Fnu0g0WsVosyr2+vFaKrAcoIWCy5kk0ZdtlFdLSMrbLuKrlOKfdpAkRD9Rt9Gy1Wuys1yLcWrGZFLvyEraScBnc78K/U4qt9ZV0OUQ5GAdqyZb2lHAbUpJjfpzg7C2Pj7oOmh1zpgVXwt1PqVOWv10ZpxiLcwncrVju9dHcmX96++Wl7+yY/KFR4gf+klLXYdeMSXF47xLUqsOcnya9frqYQTC5DYzhcaNiKXuaMuQPoUyQfdX3ipDH/8szLT6XH75jXfyxiONKEc6avl5F6BMiyYuzLoHRR5sNbJI+/nI3EU4brDJPRtIo2gFTJTdso/ALUvN64QO3rouF7XgmqdShu/mtK1cdWJQaqU4+Q+HHrYXvqzDq7HHr0N4Md2eV/LNl2za9qZNPN02I0NgFbB9U4j38rI/oGkwe18xXwDI/trkU3VJ1bQsgnW/EefJ2nmfrzatN133AMErYcgN+oYE2Gjt0PkI02wPNukf+MpfTvqnZjuOvcbcrpTZ7B47MmXt4lMV8otDF8hcFtKnNF+/UQaeTyG8VEaS69ttZmItjXbK7Pnnik3vv/dMtVpstzSOqdzTSefQCQmRKuqS8XTCicWIIGYPoHP4XQ1CAMtFSaff7aUJ39QFt97soxffKmcm+6XbUIozz0qSPLheU1X90dpdaIkrZZxACbWv7lievAmeqKrQ6Xz4WCz+uaEd1nTw6F7NGsPtfvoQ7KVpvPXKrdzX3UBryOMzmvxAg78tEeO8ncX1gfQ9KcUPWHBXvlwcxcAKTBGq9QHrW68QgZjOzS0tj7vO7bY2iLmI+Yk5wZ0jzXf1Qlpr5fQS7Kz/5bmfrzZNanQ82vZlVd41yBUNkR/tYDuQt4EYwyqMTkvayljqxhntYPzPZpPApk3n+iqndLWLY83Pq8DsJmLusElLwrm+JEXcx5zDAc1PjCoLXKAkK8aVyqxXA4+ItBIsvnSmS3uOb7yfJn99Mdl8YuflekLL+owtOtmbAWsfz64GILiLHma4UT183RgB1BAZ+wy2zJYeVa7zN9/uwye/nmZ3LihnWfmxxjlCdy8sd0R4IlhMkRngu1wNaghGBoOSBqnQDDa9Q5SFRCs58G8T+QHy5VCszNV1pDdL3j6B4N3VX5CygbgC0esWwby+XMftS+QDg+R9UbBItfApNqFP1oppu5E0zZQPk8pLZ0x9TYNehcIa715XN+XjdhQc0s+5SLap72mj74uaNmett3jLirTPxzkfeqvfNSwsJkbIGXBy2sEo9gclKFD8xncPnS/I1iHqkXV1UEs+wMZi2ukp3QE4Il342OcQQt+vbjcbVSV3lR5jIw1/TvXBPKgw2+bijfmSm0ZozJtW/I91A6ESTdfna+Ot8rmzOMNSAt1oevneFNtVibSYaz1PNbl9f6Pf1z2f6ZT5M0b/uE8JHQ98vVQdTynGWLGTggQbhtUy1A+o8tovh18/6dPlZf//htl/uKzZcB9CgysP9+nkNF5p3epgi+XJGWmibGjeCIiRXo7eemYubtm3WF4GOAQADL8RkYNmOsAJfqCN5zYTlNpln9oP+HIUOMxmxoc3wqoqrQapX7WXeNFlbQbWhk9plVM+3dltQdo1yKwMjrzav4qPwCbb000CxaZ63LWIem8Bl+dcyFUZNC7+YSpKzpYZ9efELjr2p8gx8bY0Y1ybkoAdcETfH252qDy+wCgPJDjAdMGCV2+GaLH3M1ZJR4Cblvbm7eZ55QRtwXUr+RII1r53iKnQ57GOCsVJzeuOzguucy+8qof+wnN4RbYRmRON6TOdx0wAg+K2AZ+mAqDzsvoGh8pfEYB8qdl9vwvdHK85aAYP2+g3VCG5ujOtxvLRTxhfsMmrgBd9pTUSbSzqS09dpNZ024XNqf6aCaZFEAOOcutaHqlHQY9b5+ngdvgxCpzoslTZrZBVwCKNHHebd8CkFZVzwgWfmxDeTBOPXGKSn38WnVPWCt2dvVoLLMuoJq6Xvm0QfLTRQQJzXCmVZfK4TaJGcA7NK3Oda2PvJpSZjwNPx07uFi+LeFe7irQOadC6UI3+EGOK/VEvcM2A5oG5Dg6wkrZbZT35p1jiwpeOpkA2a6oDBJYF9Gml08b5iDbuqwUjrRfK9dgYTUwa5XGTz6M/O3pM9me3wUa6Spx/5lnyvypH5fy/DP+noWxAisrYFVar8tphBMLkEDENL6wU5OqVNYu5ZVr5fZ3niw3dYIc714v8/0bZcGbBVtbCoJj8dFKl2L1ziOT6y9ndVamFa6kgrjEI1cXvyc2UoIUk5mOlpMOukWVkTIznycSZK6DLz1A1aezU3Y7GJSqK/fROne7YNy/qvIez0lD17/yfvPCC7nXiXFGGryHYQYZc9c023lMdUPq7CtaHX7YwYWUVfutDJZXkX4SaJen9A67PtgESePyEqyNOh3cr8TxBocvw2u//N1VsF6HbIjqJu9B5q2I4FCTmpLLsR0M/so3ZWNDAxhJvwFE30GtNlUu+g5fy3aA9YSntqXG9dlX9lF5GJOfRxUnJ0j3I9vyO0P8/tLMAnQ40tyMdKXIl1yXn/ywlJdfiB8GU7W1CLHRX2RPJZzs6tQkMnyCo6ZTZeHV6+XW08+U3edfKFsLLmH3y1SGn2mCpzL2VG348SjiacRUtdck4Tg5YTaq6HYe5XPy9N9MZEx4Xxeol0ijNujklPoSW4hPIJsvB+gWXQOdHh32NNrFJ1NmvmfmRSJA/zzR0p8XqnSkfNIQw8oxMyOhq8dcF20Ej1i8INBd8lnXmq9y0DvmJAKVuLt6/pQxn3tLgYIMdraT7BE27hnyRBlvNGC/SJPeI3R0ijadnkpjTI0c8cao6T98ySdmVEw1O2iUfT1A/+qL1JuzArevIJS3XkIgx26bKR/zELo6RU43hshnOWmZZ2wJ0PVSS5Hti3H/NuwVREaZ/piY+kqlCtE3dE6sOU+dBPehcQm5+uPhe36vBr+Wgcty93bZfe7Z8uKPflRuvfBcWe7vKeAwbgu4J+BkA6TEs2dMfbEtuPJyKc/9pIx/8r0yfuUF70DTybninwFVUNySU21pIvhGcX7XhZ8skN397hg/tO8JMjIxITIDJYjd03ngJTWP8ulYNCMfzhVtO6dBgF5YxJBw1iCFI1Of/bRQmxusY4XoP2VH+7lofAfpRAW+/n5XRpjMJ6Jt+aNcVMbO/OZBPTplfN1lp/qV20s37fqq5gelhgN+J1tWXlLTA208HiEnloS0RwJ5bNAF1Go7IOweCw1w20o3Ji1R/eTChS/bUqeMU+rUSkUeVYonF8xf2zCWIV+DvWSMdQ7qu62oERhzK0aj21E2ERvVvMtHADoJPDYCBctfpEoWoC+ShNxXX6nrMoLIp14ZTEnts6J57jxueERLHhoJuvGrA/Mhp9aRzLifrnzKy/m0XWsa9bQhF/NGteVQn8h4/EuYqlzulcF816fDgdbvyL/toZOkTjeD2c2yc1WHoR//UOv9Wvx8MzryULN/EEeSZJcYyemEE9eNMITJxlMZ5MqVUn7xi3Kbh8Jv3vQvDMoFvJj4JnB/GzjIomAi2fHIV7pTnKbuhFHuHSEdJMH1CoRZvwpNO7WxAzoghBMRQN2XeMznVIloMLlNpmoLj/tD75oCblPL3sGRCV3OgaZ2U39jivfWCn3uTUEVw5gy6FDIQAbd42a394km+KlgXFint02M1zIEtg1jdaqxO1/tCVYZbXvyQHD1kDYLnfo2zGfoF3qDWR+y4CMfckwLNoENX+kV/UdN9BWwrk3A4dQ7gSWH7Dqe8KPwwbQBsimDjD3H43YCxu354kRHXeV3ncq+pYBNavkw1EuXty3Jk9Ko9p39O8881j6CnvU9L5Dywu7MC3rEXElS5Q1fwKMXt2+X6bWrZa4rx3JrF4czv08BEok+1umUwskGSI18JNzGFrf3yvL5F8vt514oMxlrpIC5pd1jjI1zMrOZ8m6c9Jxg0wOy3FNiYm31mge7ALcOa6Tsh37dtlm0bXv3kPSmL2ucOln1zEd5Baq8rH8rIHW1nvylbnkCX9Mji+1Y/WfdQ1YLtnPNt2Pu+qmEaF8hZa/JTN62HbxZXsWYs5TVQmoEn/vRH/k8Td9VqEOIDcOhIvoUUjYqcLgOrLr243DR40h9Iy8e5gd9a10GPKBvX9HUoGeaeYPyVlWyWsx1Amdyt/UqmZayWh2QGX/ZX9hWLctytij7166XW88/7y+lKbdvlQFtqZNcHhdKMacRTjZAavC8gc3Ru9zeLbeffb7cfuHFMtjdLWNdUg9kvDJtDIsj2MBhsZaWE+KqmppW6YAnOk8xIgV/L28Fmrq2npzLLQ2eph8g+0pnz/rANl/LqreTA6IB6Xyh8ckBfeTXv4Wu2DMWirSzjtD1Yn7K1ACdjrXafALzVMxxtnTYsj+A1y6v1OhSbVP7M1Q+oIrtZK0j9aRd8FFT5HU8dZTkDaqjvpuLuwnoYR16PWJsq5C6eNQdT7Vj1Qs5/ZuP4eticNtEwGlDg9rWA4jPctdfU9+C/RisfIGucX0rl7zHC6qcPu51qTIn54muIUe7e+XW00+Xaz99qhS+2pA31tQChC8kn0440QDpD8+APDe1v+cvo9h99eUy4ltBOILLgOMtfg+tNzY7WTiZJjmNT14oLtVlfTNBrsOJesfXtHpyfeM5ZngFoPWnJgtzX3iDb0rn5Y1YzOuJT4fJcgY+OW6jZ+b7yyvJRUehL+PpsnYN+a2A1C3tmzfs/edUU1V5cowArx5nM26xhN0rxmNWYSfQ/VQbJEqDlbkCnBe2doUWeoRrwkI7aBRSXsoJMrKjTbZrQWJ9Dw7dxS1ZcQsloE7EmwFEWEyjm/Xr9WRs+BR6zKZTv+mBYh6bEEg7ZBsgxtbrS5m8fbWWc946VF36YJRDBvoA9EHfafMWYw3FPPf0yAMhs++bfNd/7TPmq+JyWHa4vfbSS2Veb60RIDVK42mHg950lwBz+qcUOG7z3XDci3j1JR23r8hR9v1c41QTx7NTQDhvLAYmww4kyB3NhteiNk31MTmxmBM0lXZCL2KVM8glH4h8yrHQqwz9Mcl8QgMI54h+QMt0277PFkVyfw4Wdo5Wt4rk4a1OQR98k48hSAFuc3eAcSEPPdIu3hTQF+eVrhHEZVfRmKvky3ct8zRxGHjMFQHGzNekZcCMR3ByXiMQwgOEjcPuaApkHZAboXWr0NdWEH8rj3tzKTfKkYenx6adEJ4gvgG7u11vZwlz2vddbeeqsENCqBHtU7da6POCrFuZK0Ge1tDaPKJnO3/AoekPv6aOTXHdpkDaC4j7yGGz5KUPeBKz3uNkfQP0rbq+HXKUDnSK5EpRB6PBiy+WcuMGu5XGz7qLALSqzemCE9WN5W/z3r6lHeTFMnv5lTK/eb0s51O/qRjPN4ahwvCReuIT66SwuJiAymYaEKcGnIjJiMkJiDx1LaQ8t1HZQa3hSafoFyipHBMe2gi5XI1L1no6FKS8zAPhQL1j6R+1gs/85LLVXQT6F/Y6x2aRJxQbXECS9+PC5rWiahZA+6akfN7ycJs6tuRZDagxb8lH2fzKdfwqhx2jTJoBFkhZvEafVUalw5/lpK3o5pZ1vjt0Q9uHP6A2feOAAAJiFtPWFegXIMi1ga7VFV9rn9VMoC751v2pC5Q1zUNB9pxjBqAnZL7tB8g1lO1A26nqSzvrUPN6cdquVdBy1QaXGurqcXL9ehnyiZprV3U1yVfWxLqn98idTjjRAOmBy3DlmnaNp58ti1eulPHerj+vGYdBLTbhgUmpedlZKXmYw/CkCTEZ/cQkeHJqmgEMgAcnAkKu+ERL/r6uX3TkcVw7CH1U3uiP+uC381bMTzlAhztkVMeHUunOkt5tQDcCXx0DmP07aEpv9Ms6yl7QHk+MN+ejUxCd3VbYyO1lBLgs2UDKyvkEzVv5+7aRpv2o7+uCD5rrxGtAl+SDWlMg9Y4k9Y6WHY9fgu+ugXzKwcRYaQJ3oxds0ULQ5Ffmb/RkvBU8rhbrvAHBbuEuAykHhA+bZdAESPr20a5tA7ifiv2ctIeHGGf6iLHSgdxALUO0kfof3byh9f9yKS+/VMqNm/Y3gDdsLPyUQh89TgB4frH48Z7r5fYzz5ehAuXOdMavy/jdbbYXmbY3snHVyWKx9hOXkJOXE4mRSXs5OaERaBM82QLTleZloOVZVu84KZsyOrkfIfwdVp6Vk01NU5d0Ki5x7M8Ip86F6Av97wogBl2qPjE2jVd9531HyjnmAGkie6zr6zJ/TisfKtc6IMe8Ik915Dt5YG3T9xmQbbM9yJwkJH82szxkmRZtybsvpZStvzdGlI22llMx+4my2O4GqE8wxPUbUkLoqBOV9GsDVuhKLerEeFZO++vAOFdQMvSCnDyd+oRKhQB53PcEQl7VsMpGRmjXA3XU0javAGjntUk/wr7/yKcOiM3TrGeR9xlI9nfLlPcgXnxJ6dWy8JdiI5YGMJ5OOLEAicl9ocQXUeh4vfvSS2V5/UYZ7e7LWHO/gz2U8XVx5QnJQIO1PEHQZOSVPPKYUDCBSWLChExQTHiA8y7HDFh6lUcdQYRPvKTDwun7NHIwT7rkJViH2hZ69hUy6qIU5uUTMloH6/plvHSEav4LWPWRpL4BSNk14KELZcbo+4pmqq/SB0g+89YyGHknhszHYsjLxJg/IyXaKqUc4ybfB2R4st8EyrH4qkwJMG9lC/5Vu6d+KSt17+6JiZ+rC54l9G+o+0Qd88GceW7owxqtjhNY1fC4ILkEN/ypkcCsh3cFxNgCw0ciKOanimIsPU83XlLVuFzt0AbS5EtbJw15WQbafAspN295hL173xDJbR3AlcZ6CJ+CHv2G/VMXKv1zIrOpb6/t6TJ7j3eyuQ/JYLwYTi+EV50AYDR/f8dYkz97pdy68Yuy2H3JD4yP5uMyXI7LYDQo8wH3I2iQDhHGJW8DGzRJBK166mNK4idf2bE1YUwMbNTXJsjxRFanS6KdRVkmE3l+U8GTH05gHVQHxIQ7i1IODKEjRDrCCahEV1hChuWJSuBMh0mYLGdlpq1zJl4+dbA1G5bpUItjOC0Dfk9Z/8f1Gdi6CUw9E6RDoLiwi7L+BIN0px1fLccvSuK8/KaIlqkDCGNrF1g/XgHjV5LjikVUF4KrI58YtEBeTDfVanQQ/JUP6PpT1sVVneAnCy3LIHbndCNDCplfjVWIjvxEAKdK+Axq758QEM15/Vm66zNf8TjApKHOcqo2e9JvX4jO+JSOCupnyadH0Ct1ELRjSmwhx55ogC9yyocdZrw7Xn2dTZrgFRt/yF4H+FK2SuahDZw+JNQ22Tb5o41QslWoQdKdmC/H4EBLebZfprpcnM6nZfvWbtl59oVy/qUXy9b0OpWKD2pX255GYAwnBh62Fv1yb7fMb92S7/Bp6zCofwQdwwrSyC12hq7IhGH09AyCGwsC4+rfPJE/aGzLYPEoGOblB33oxQvKtHr5CaQzOsD6ndHgRX4GwNhZoz/Q8mJZOU9uNEZunIpa2b5HaX7RlHROZlqXHB/uyI8+yHePYUuotd9YyP1CXM93SNn0/rO5jKsbo2TGOHu7JOQlPwCdRYjd2+czs44y4JOe52BVjygLxYMM81bZtE3+1Cc3VghRjjkM6HV8U0D/tV/nsbh07Oc6IP0WPXIsOeYMSkDqaD6V4c37j56D2ra3j5k6XvIht58LUC+I72XCm/Wuqe0rtPkEREC339K3UATL8DiEdIBeM9ZPtcWU36C6dq1Mb/JONs+4pOx+3KcN0kvuOjDkMfeS9mSImwqQN2+V4Yz3tcOwNloaCEMLayHyOWlGkTNP1qhX/efC8+mHPMFsDZgogh39hLyYxHRAIBY+GO2hO3Cax4ROz8MQ4DXzysTpFZktT+Ybmp24OjL9uL+7ClgL2WRDOH3l+FmMfbnSGjroNpSF5lO5HUvyRTCIcnQYfNBiIUeboAW08wCkrAwmrq9pyBSqnoAStGaTEUDzKYh24mn7qk1V1/d3d0B9VB34MyV1arpPmulV/268KJY2q7YCPM7qi8DKHFXsAqHqadfW6aUvu32kBuobyD47HQWWIYi5FaiMLmn/dgxZNpv++JZ/CfJ45lOdJndvl9neHsJUW+WdYjixAMnYRwTEa7fK4rpOjzf3ykCX1/4iBgyeRlU5jQt0+TpB3USBbfCrZZ8koNe8O14Dy2CCFLBZpHhH9mMxoiWGjKxHx6onclLWGgJOm3wUIygkHUCWTwqWn2PunS3oJt9VyACcoqVhlOkXXOm75a157OASbCyC/uSW6CDV2ZEegh58tAt7Rzls09u9t1EsxNArNykg5sJVVY8m+ClNmQC8MEFDJwOswuDr+7s7gEaRhL2E0jvmOqoMtX8AsscAuepvhpWyeCTHtw7IW3bfFuyCkvLtuKgzVFnUrLcxR9bX/rq0y1c7w6MSY0o53jRrHp6cTwRbb34Ghb5oR3tdRYJajCy86OQUQ1j9pIAAef26AuTNMrytALmvS2wMMtIE8fOFOLEseZSxD6AM6oDquYoyv3PsBS4kr9buugUWMwtNLN0ipj0TGT+72gcLwHQF03gDhxv80T/1nWPB3+QBhgZfQNwL6u9xBo/bN/d4gNClLm73VSveFPRC6Mr91j7DBjGmRPqG5lSbBGmMOwNYlDNvtDTk1/F3bWI8YecYn1n0kiedhK5vGGuZdsxLUOrC4zSeenWXlX3bzINTPqkyy0/ORF12GTK4b83VzF0GxucgHmO0zXnjyX4OSI96Kqa+07lu3KFvQLStfpPjFD3a9OMlBVyuPrvulzlvyAHa+uDpdenl5UsPruvqQ4dcSyDtuVLjtoJBotGavrbY6ERfcLuNn1whUBIkV7s4dXCCAVIj5yh940aZXb9RxtOZL7HtGDIY3xxuLk0qNnJwjFYVxKfXXHCJOekqOMFZmIAIgLXuAEQ7+ojFFW0tk8lElurDadJ5zNLplQTrlA5QdTJ/5aMOhGaZQnjihnn0y9gMKofOkfqyz/xR/YahyrBogQNCDSqdPWufQOpFMWnoj+62W1SsLAbK7diQDV88AoJb5SAidRth12eltVzoiRzoDuZuEraOOQk9wE6OeLMNYDp5s8HT88VfyGQz8CmYasmmPjjfILirqpc6Wf/GHXQEIoDGsgtdpMchtwNyfEAlmRYYZegpAwUy+Lb9xq0lF4MfmtYhb+qkTr28Xk/bSOXsrz3JB08dq1LK7qeCxakt3UqKDy6UB/iJYsLs1s2yuL3rp1ig+82tUwox4hOC5WwqY9wq89u3HRy3fdyWPYZaqDZfXWQycLf46gTxk6QstlykgE+fGBRjKzEix0YmpZ4iE9ssKjerfFGqPFU2aa0hSNEOh/AbCHZo1YqfNus/g5nBx/pXmsdBX/BnfgWinNReRyfqP9I3CymP/iOIiaA8NmVc1ouxN7huMxCa29Q6o+oz3/M6y6SEbLIpT2ge0VxX86TUh/y4pAYBmuVcgPDTW+ri05lSoOtP4+J+HZA0yizi7LfTu5bvJsQYG1sAKC2I7qjrdekqBDGmfjxZjaqdvhXcXv34B8zUhmrsgp3gjfY51treekX/6wcPANtZai0D5FsfTv68ErAs2TbtG/1F/6Zp8PAMwMXMHzue6QQ54yRZfzM77XMa4WQDpMKgzOOjtXcPLlcV1bh4Am3QyhsT2AOLmXqAulxA3Z/L3JvRYhAbASC+yTtOajnFiHC5ymKxxATSR91BhVkPUN9jXw6hPR8Q9X3gSCc3vzDfNEpaOFLoxUvqCt27sAOZm9wFqPKF9M9A6c1dgygBVqCcjg7kmGqhJjGuHGeLK/c5k4cydW4dkHIz0NGnkf4rej7z0rPq022iFRmF5dT+A0N2z6P+9JfB1Kc3kW0H6ivPXYE6rtApR6x+5AMZZFKnjlc6JVBOCN4+8NDK9RWzHwAe20tpQmu34K8+6SK2Xy1Tv/54T1dfy85DrzpbusrYNQNz2Li2NYa9acEWRyxwPEBXb9gIOb3Qz85JAPcaq9H5vY65TpSeTFmFvcU7qRdBLMwMijHhcQmQmI7lNnaeKDMR2Sb4Ki800+PyLzACMi19CaR68tkeJ8vUz5XVyxAjMutsul2D0J06H+A6tev0qbR4tx2Z4dDuT6frlKMM/28a3L/FpY510VQbU0najS91qQst2wWPMIOVkLbQIogxmzEPQY+2trNSZHX3A+0HKdcqCZr5w/6JlhP9hb3A4LPM2rf7p7/qBy7Txn30iHqASkFDllIVAu8GpBiLpB9iAP2ge9W3pqEjo69NVLA/uF2P4cOi13HqxdhnKx/y4LPcsANtqnD9R134MRt2HwCjTbQDMgVSdsp1jV6SJqLlZGBM/k6W/uiTZ04jKC786CPf5jVWbHAAPcVwgtrJQLqUljuUfRllqq6mw3HZkxF5SJqfHuA3zqayGT/pOpXDZgouxDNb8hs1pezPl2VPC3Ray8FLO/I6dLHIOEmOJ0rHbotszq/ISD7kw8uXi0AjP1e904opH9xXn4Hqr/YZfCGf8r7oewpwvU7ZX5Spj76rbLXXhUXXH/a4rTI2GUh3eY12Yxvw+ICf50ozyBlxTL1OB+OyL9zToBlH2Eu2kb20l1dbhc6k2G9p26cdoAfm2GIsMW7sg21CxsB9gJRpu69+d6fBJ7J40h5pLy0h+jRKp6pPzCPlpIFVB+sV84NfhJyYY8aJjfn5CtpaL7Xb9fgJrlqjyGeM8kHygB+Wr3ZU6FBv9uA1ux4oGsynAFN0Cbmn8eyq9f5yrH6j76ka8a1V+Bq+h569v6gZ4wOVBymnHdxGtJa/R+wMb/xoVtgsbIWd3N52i/my3YU9Pec55GcffV/VZ5u6WAcxv+ga9aEPtPD36Gsq2r6ss690V3W3hLu0lVz/SVepcLhRTwkosEvjkwB+1Pr6L0r53lPlxp//bXnli39Xzly/rmP2fpkrAOhAXkZiGQvZXTm25/EeyJ3O6pFVVe54CZRME7J75qXc+pBWyuJNHtNrOcGcHXu9NCUnXusk9D0y+q0yvEOKJ/Vr9Yx+gp2X+Vh6yoH4LPpcK/KmnOXmfZfK5OMfK+/8b/5xGf3Gp0s5uyNmPrF+DJAcFjbBA5iwJPdulvKd75WX/vOflBtf+1ZZ/Pzn5bJU3tqqvyMi4P7ugfGjJPoq69OI8tRyFZCG4RTnQh2jX5FR5aR8oMt3fcQtBpq2NvI9Q/oV5unDt0JqfUKI620OIfmQBz1YpHd0Un1KQcYPJkdfbv/QQ+XmF/5hefjzny6jj32o7J85r8A6KjtCfjOIG9x88ogAqotztz0MUufR7aul/OTJ8vP//H+W2Ve+XS5cu1aG+7fUoU5yw6X8XCem+my0ptz6JR4GOR7bo9I8luSvxMOaU0XbtAM+HPaK+jQsSdqM+TaIH3qrF02zTUKuVYs0Q4D7BVQ/lw1n2vPh3dNpdne8VaaX7ysPfe43y+V/9s9Kefd7yuzcOW/U8a2wpw9OLkBq2Ivbr5bhL14o0299v9z4znfL5PZNOYsuXxUdCGVDOQ1vtOzxQ1U+8tcAB+aECVLF9n6NodKT3w4Hz1FDor5mgU7uEZMNoJdeTYcfdD+0ASstoXMsJ3198OufxaQgM1FU429/qdPGxYtl8Pjj5fKnfr2M3v/+Mt/efs1FuQK1a4Kk17VC5WixV4qC4rWvfL3MfvRUmb3yShlMeONLJ4yqK+qx+BgDeaDdYODjsos5aRcDdiY1pW2b4xaopZlbWvK2/ac9HSBrm9aW64A8t6GQbdGZfsBKow+T+CMjyH4ZC7nxhUtl9IGPlfMfeX8pT7yrTLfOyn4jLVS1Y7chQPrNxNcOkAB2HE53S3nu2fLK336tLH74k3KOr/jTPMzk23M+7qgJGusoOVV+6v3VClrHHM8KWG/Rklx51+Eoe4Wd1C9rCh8+jI0+4KsIkKJb+kLSDkBtC3T1JkUeXTVUbdiyn/r3aVNXCPtnz5ZLH/xwOfPZ3yzlwUfKfGfLfiv3PJVwggFSgW++X7ZvyHFefMXfKFxU5rPZ7KiYEKch3ddRkolMsEJp/CZ/GOQC4N6OJyUXTAMMMXrkJdysHXbLv96TeSPb6dE5gfuC0NOCEO0AqNRBds8sJl3nhQkI5qIpIC7PXSiDhx4u5dJlLaDhMR3GHYcMnFAUnG3IWejW9bJ87vkyePWKJmJfAaA59YpHuQ5W7KUs9xuTx3VZr7ZtgINeazoZrm366GQrgTvtRAr69OUAKai8tcUBaGWTAqkfbVo60I7L/SnNYD+e6IS+c0mL9P5SLl/U4g2LTzCgjSj+YwZIzy/3+27dVpB8sZRXXpUMvmNAp/mxxihZ9nUFSD6WTYBMnbt0Dbx5VWAcYD+yHo5qm3ZGvscMHgbVLmk32uLXtMnA+lr9dv0AEOHHHmo/5lKaeww+ZMCnVJt0uSybP/So/P5smW/JtiJXDzh1cGIBEqEKjWVHmcG+nIdLHLZmOUxYVy/8JoOvN3pnMKBSO6Gp4lGTDKRDeTIO4VuXeRhQXbt6TThMH8snc6e+lVcwdwoNUQTKoRxnpN1UwZGRqHQMoLE8EBtqEfu+milztV+UCTaf0ZfquUe7DkeNI20Jfb2ubdPWrUPyAUfxZV9cwh9mt+MAMtZ1fC29AKqxGcbakqUnvjHhTUsxUXVRiMfRtNDvECAB7jzgxvy0aZnV4Mi1OmbHJ5E7ZZ5r+U72aeuBO41pBdTWt0IEtDuq7QEdVOYmrQLkHfvL+nU9V0A8dj94ME5tg69rQ8JfvfzpLmpOHZxogOTNB/yDXy7k22N4w4ab1Tij9jUHgYkYV4yT2iTxmNr5cRpk4Xx3svad6u8ErY6H6dfKb+tF3xfyvi9hkF90jnOBdlznuC8oNtnozksSYAHz9peEcjSRtTmoYF+kem0qGA8zgCK7FZy6Ud0CixmAN+tCzR6Svt625TlKfgvwvFb9cQEZbd8JSTt03AqCaojNaO57j9SBI9Up4jEzx7ndQVOQ/d/tdRiYSShzwT22WAfIWoNOl5q2kHVA1q/ztTxHwVGyradLPRxGu1OfWYavzQu9D2EYgqQDJV4elf6DrFK8nD440QDJPWnGne4FzbYSQosvzRW+GVjX/pQaugMNHKcJtXllCQYGUClciWSHQ4THqS7HdUnk7zOL5UeWjRsJvpRPPK1wmG6HzeNx+Y4DajfDZLXozYRC+iMnyNcRIGkKog4iaJk3KvjjAt4XStnhcWCd942O9e0C9BUyDDahMG1cPVElr62WrYynEE70HmS9u9EMXWVIrOB0FlUuj3c9eTisa3867WywahwpAAq+JrNBappA5Z2NwgLclcPxDuDYNq2Dt2xhFQ3U2Hk6oR16Qh3KChyX7xiAKJYqwCIFLYqKTmZ2eJxO4I0QQC7FEBwjOoAiaB6OPRfZfcJx1DhFYJcOk1QDExHw2rBQfyjwMy01f7rgRAOkrnvVQzOraTBf8qlAIsPN77GJfzPAO9jhFxp0BkXbqNojcsriUa8NmHJP3JxOuCEecgVqSl13IlIV76RuYBUwdyKQ5mLpYn3PQEzGMQDGsDEygK69CQhRQXGAtxN/FYDxD3LTBpyVDRwo+z+sHTchTh+ccICsadoovC+ARSxDsZ/0DxT8KgB3veIvbBFjJ75hnlxcx3kXm+bcxuCs2cU/yZmpJi4Nezq23kAPWJ3PB3cgAidKghe24/6wbwEBMUXHAPw5ZxgXl6ROBg9XU6hz/ysCudl4xAw/TGDEHtiL+oNPvZ4OOPkAqXGnTVoDsbHEQi5l2yfKXwHQMKc1BLIptEsFO8TiCuB5vDtBtvHeS4GksSt9UOc+av0GEtJ6FWSkDJAUCJDtpnNcyDmkSQYGxBAMwAi8r0PgPQys8e5euHBlj651kLDG6Tw/ovNJBsgNbGADG7iHgcC+gQ1sYAMbOAQ2AXIDG9jABo6ATYDcwAY2sIEjYBMgN7CBDWzgCNgEyA1sYAMbOAI2AXIDG9jABo6ATYDcwAY2sIEjYBMgN7CBDWzgCHhrPmpIZrAsdMV3wMWz81BhWJb221JeS538AEJ+/iTaB0BzuWkeX5hKv7XslyrkmMNOHUPW4dCL6j8Z02VUl9WI4KNXlKn2h9rys9n123sYI7jZue4tyK+Y8xfuKuevZKjfyh3fMalaPpojJ8AHDKJ56l2sNNrBWktmAPrqgBTBn/JZDbCG1v21a57tBbQNeq0lOeJTPinP61NZxLgf/rKOP/mzy/zbmUuZywB87HJIW75URZWzYf28Ox+nofkpdfiTDZDpNYN9oSwxX5QFP7PAjwup28VyWoaDRRkt85PHGBBUlm+Z9heNVvWcl9sxKeQF/tblWt19+zGfr80myKCf+gWw/n2ZdJzsh6L5aznl+Ett0VUFvszSk17b5hfKApLjn3vwN1I3PCR8Mzf19CXwb4MwdnUw1IYxRNd9GYkvEB1vo7C/2YjvjDzmL9Js4JQA330KnNnF/3D8WVlMJmUwkw/x61XQJkL7EX6J6+AbCh72SyIERP3bn+qHRNOf7ZfKpM9XP2VdEY4dlJCj+tl87t/LznKsmVgLRjcE0GUN+eYY51VtVr3QJ19qnGuROvU/m82su9eZ2izV73Q609KNn4GNL8Qel9nWXhnzrQGYZYGv75S9rTgWTfhuYeQd58sH3gY4uQCJVBzj1tWyvPpimV55uQxv75fRYiRbxmQtFSAHfOceAcJWAjKgxM6U6uVX5VtuOoecx1+Uq6J/IY22KvMX7ZVA7WSIJ7vpMzAEAnYqgqoCJDTESlD/O8eCFIwM8Tgo1y1QvTai0b86NOR6eka/AR9MVVv/NKfGP7xwuZTHHi3lvktlfzQ+tT9itIGDgH/xm++jPa32nz1Tyo2rChS3y3KiedWJid+iiQC5TyhTC9HlZ7Tj51nJ5ykMYEP3lzfgf/7HgeQ58osuYFZ2NvL87aA8OPAzwgQpEb0eQnTKw1/jlJepwanQ66nm6Tl5WBf0iwyyIvG75dS5L/HDm0HTtHng3mRXfLOyRcAc7ZT5/Q+V+TvfUQZnduqJG/n0d/rgBAOkxF67UmbP/LRc+e63y5XvfKdMXr1etrWRjPmZSiaayVWAnG7Fd2szD1ZGbXNi/ANMIhEgh/NwlZzUVnXvwgL/pgYZ8bgeWa7xNJgOLfqrfZqtcQaBfzSM+pj7ns6fnS7KQLQj8Acta/L3W9wBgDzkescPX9ynm0uXy/jxx8vDv/W5MvzIB8t0+6w21FO6pW7gAOBzw9vXS3n26fLiX/xNmf74R2VKWXM8WgzK1gx/m+vUNNWc8+XGE5+w8CUCJA6awY089PaH/cPPw2f9u+oq5oFhpL7z96+9BkTGP3M9AMiJ/Th8PP08sYWlIl9PgzfaIS/b0oe/3rKug1ZGBGtoCpIa60BBcXeyp4upaRkPt8ry/H3l7Mc+Vs79zufL8LGHdTDl6551YDqlX1dxggFSK//VF8vsye+Wl/76r8orf/Olcv6Vq2VHp0oCZEx0BMh97Tarhu4nMX5mVOajXvmgix8uJkwpzfIE6YBa5XXOpzyckoAotwOQgmMGPdrCT9EBEsBx/R8yalO3cMeGlK3XjqbNUxtA0ANoz08t8DVboe2g7MrT5vfdXwYf+lB5z7/478rgs58u+2fP6wR5nO/z2cBpAPxsdPtaKU/9oDz7R/+/sv/1b5Zy84oiCL8wqYMjP+mnALm/NZNfjXxLqb9NRF04VfqKvRq/dJBUWUXWC2RS+PgpXlKuveY6tXWbNiLEl35on1Nw42c38HvLqdAF0ejeQBa5XjPi588bALyUUQbZ0s+HEdaddQwhtKUNKRfRIwLkeF+X/bp61Olxcf8j5eJv/Xa577/7Z2X6xLvKYPuMuPjVn1/FAPnS82X2rW+WV/7rfy1X/uIvyuUrV8tZtp4hP+guw9eblA5qOQGiYNxwhB5cnwA/E+hsTkwA4jWbdYJjt01nAXLiNbuUvBPb2ZQy4dSB5AH8N505Lt/Dsbjk7gK1cLGQk1Zd2t0Wudk/i2HIT95Kr/jtEgVIxfC9+x4sg499vLzr3/ybUn7782X/HAHydDrMBnrI+XUAuaWA+OPvl+f/wx+W+Ze+7MPBUD4xkY/4y4wJkGN5vQIGt5nUsPqOHEH/6SMAcvlNaXg4SfowQQCUz2WfI62h2NxVr0Ds0xxt3T5OcSELfxQ/cvBvO7Sren77dcgNSupTyzSpfSMPsttZF1IVIKsAJp3gyJswu6N9BXEC5NmyfPCd5cIXfq+c/7/8yzL/wBNlcPGSWh7nRy3eHjhBvTDuRHvDuOzMB+XsdFG296ZlNN0vy9meJovLDRxmVra1A29rFxzvy4i7u2W0t1fGe/tlsj/V5cm87GgCtwkqCqkjtSnzqWSIV3lwQFmoWdCEKOiqbjndE11lyYcGD/ShUsrQByovxOdfoZNeg1mtE44cxKLPsSacSxnkjTgV8muBU9ojN1Lq+eVG6uBxvsryD2cJ/fYMfMiCpj6H+3tlpHFOWESO7mM53yY43nPgSKFU87ilE+OO/HaCP8u/JvKPrdmiTLQGJvKb8VTzLSQd28dVrzUAQhup3WRftMpLyi9U0tY0rQ2vEbUt8h/8b6i2/PQsKb5Iys8L48P+mWGVi2Thl+ahPvnki9FG/WgQuQbGWlv8KmusO9YC32cJr/RUHWi/Jl/XJusq0iqXvqQfult/2WXMfSUt09FCJ0dtFqc1OAInrNtEPWyXyWhbOxiLfllmg3mZDnV21LXBfDwqy5F4RjI977JxE9p5nczGSrlPw2lMuFD9cjJxG6PqptrVSBf8IL5oRt49Qxb8HP+RwQ3jSluIFjLpL2hzObXcx/2ZRpvab+qW+tG+5enkqcxN9MF4Il2lP/nKzxXWggWEnNGWdJabSXfuWTMDg5F2Xeo9HbhorLUN3EsgHxhwwatFL18faq651VPw8XH4CL92Phjg7+FP6YP4Czdj8JHwQdZB+JeObvabIbTqa5TVQfhMlRGoOqH90fL71LJpW+XaL1Fb5eFky36bOrH20q/j54irLMuIvqIePSiHr/tNJGSojv58DQhd8gbox4lXdJ+d8zeUuFA7xc4uLU8O/APpwoUuK5ejhS4bFBwHM6EuCXzXOIw1VV5nQP8m9IDfKfZvFRPwNInSkLqZdqOZdiLfVxTE5YX+ZPC45BUjMQYElCZPTkAe/zPvS2TxJAN1XIb4vlDl48RHn76MEm/XF3XmqfKE0NMBsi8uj7gX6R/jV3k5E782crxTLA6O2nLVWMijUL7tsIF7EXjuz9OoOWfl88jWYjLUYWCkg4FQ9Qv5EJtjfYNXm+Wg7It/b6l1wRpQ3VJt2DwtRe5B3gHKvqKC1gV8ji04XvU3UhC3tK81GDz4Z6BZKy1uF6mkF3yd21n4Mj7PmqM9/su71qwHX6YjU3mnhyDvF0iqZHIrgIMLY14oJsx1wFG7sfyc62/iwCkGWerkYCZvmQ0IjDNNpgw91OWoaMQXHInfxOZtft6oUfhTPYFTeTnLTAiV8oJnvZQWHd99GS2H0j4l22oyOc6LkzL0vAyeaJJALhW4vIYG5iW3j/9qx2VDyoPmS2ZfJgSN95K5xLaumnCXNfndZYwunUb1EsaX5MK4PIn8WHzWRbLof1veviWvZ9yOizLEkg2DqMmjIOAG7j1gnTOnmm+QW0cL/NierbKquV+oF/l5+HT4teafJ8nxA+hC+7qQH2lABillHg1j/Rhpp/Yj+Vb2mRi+X9dXzcclssrqH5+nHWVSX2p3iEzSuH00rJfLrAnWEbeGuITGt71GWAPiGxlFz/7py/3EWicQckCaKwbMCY4jUD6v2HCag+SJBkjuTWBQ7yrandhNtH8p8ATSee5cfkZRtJVdz3bzPkTGbeEj9S5FvYLVUgEK3uCkLvJubx7YyYiuLdfym1Mib9R0/ErjEQv34p2Uh279HCR9wiIgjTyNQk4mKQu53EwfSUb0MPDzjezQc9HnuszgRja/dOhNgoWiphy8s58NvP2QM1yntwPPUVvhoOZt3SGRKxH7phBefL3zhE6oApV8AUzf5q+TCeCvCkYm1jaxPkA7t1N5Ni29nugLDKi8jdCsR67fvHG9fI/LaeVdtBywalVTVYSulKnXH/zk9eLUV1NCrhSxCY+3dZ8aA8QTWWhJPH1wogFywm7DrqSgxAMJQ+6/cFOW+w8yivYT76IDng3jKM5zU+QVIsbDiQLLOAKafGChS1Oe0TKfcKlTmETr2G//M49qXcd9ENzFLqNJ9H0S2jBc5Umhc+8x8sHf8cKjvDQXj/rVvOPwXObz7ruUWEHq5Q3mX6jQy9IebV2QoytrKcrzYPtaSLtykH3GO+U0KQH69yWU2nEFsoHTCatLmYnnFapQwWCh4xKXzlwSszni6/44HcFSvkSQGQ/GZQTqj/r0e/9Eqg+LrBe1Fy9IHv+WIylVH7pqIfBCm6s8VwY/rSzCpAW6XGn2YaVcxqVfg/jxkPul+Cs+jP9KR9YH/hz3F1UW3WtLad6zTNRKlmxdOYLKz+TjUzYNxKvLsQ8DNo5QbUgpi/e0Atq9peDTmhDAYfyID7sJeSKegN0HTMgdKXa2nk8VogsbmaTtI0F5P8V0nM1t+jQhZa8jfeUOq38Yo4FgvV6UqBBQznuXLZjPbKTIbOoZAnpGaQP3Enhew0c8vRWYy/Ad+Tmbac0DvMY99fBf6KwH86ph+nLr3y0kBXG93Cpb+XX/s3z81bzZplYaQgeAPvOee0cb9WvpMPCJufJyrzLWhsp1LKavdnjq4S0PkKvG7Q0a0Nd5clUHP5PC0Z8A10JMIhOWAfCQiVuZj75Abn2q0CUneR0BxNPHeh16hqNHcIcH5+AzsemgOQ7Cn988YiySp6Y+FbiHdYU2cG9B9YcE+wbzr5R555IUwFfsO6oL9t7P28vWdYh68RGoeEOz+loGMrdTeiewZF7gX+lG+kq31AWwrs4J0DkUPgJiHFV45Y02r93u9MKdrXmXYdVMTFAYMicawKls0GpU8tCotxOAOIQwjB+7Fe+yua0wob3HkkhZmRW+lJl9dA53BGYb+LjHSIrs3LVdB/r+Zchi8OrVqXNKrbcue1JHZaJ6A/cWeO7qzOUEas7ZDB1sNP3dHAtI8YkRl7XKszGHP+VJsvqs2vjEl35R/ah1ElWbtysILLv6XkLIr74oaE+m9G+/VT3pbKZL8aovHPbT6tvgYYCs6IO0qopu9dChXNffvQJvSYAkKPAXR/tq3GrAzmBK08BJI7VZu0nH0So/supkJbqPzLuvaAdkGbTcWtfzqN+aS1jRp6Zwx2VDOBuII4JA9o2jjcfjeIOG9tRlsPafwH1n/xUq7wbuMWDe7CbpvzXgyWczSKWveXOvfOYUPdeFPUJlHqthvYgp/BKZlS/4VdeVa9tKdzuB5dN37Sv9Fci1YzkCxAPUQ8FXVRkyhLCF/OAjqdlK73klrY5R/VG26nCLHgVaucx/fTmVcOIBMo1n7HYSIIyJaUzr6AFp7LBf5FvnyEDYArx5GZ790I5JJ0VOC6uX06uyaW0ZtU22DMdqTnzQaruVvmod0MmyOMZUx2YMfZFPsw3co1AnsA1CQDfPtQxkPv0mIDZt/KsD+0wG2mhlUvcX5d6XYgP3ExoVrJbQdJAGNU3/z7a1wn3lVZFlmme1n5SbUMVWUKESfIKWj6cco2uQ51fnTyucaIDMgOjUeQUVpRlcsCHGSsP19FXUy4E81l2ZsIoc7+2gyrdgxz2EFwhxq3UdUFkh60yxKqELeoNMdjpV0jwm17nazkIqSXEfqe1rA/c4VP/xJabmtfpH40KHQvhMc/WhQtxzlx9VGeknpBFwhKZUGv6NHJXzNlG2AXx5zP3EqkzUR9pC6tBClrJNC9Ee7NcvNNIshz4RajQap/cKnGiA7CBtqBcMZpTxmLD8qqaA3vodX4MxQdUZapq09rKFKVi/hMjLjuzDDibeFrI9PFljWV3bgAi0yjTtg6d35GyRugPoa8GNLuuyN3CPgqe/boTK+0AQWb+2fnAUtPW9L1YZ5IXp96SUO54qP9slHbDctb6pz/XTQrtmSF3WWNYh+wvs2wAtt+Vbn8jzdy/BiQbI3Ek9GQpIPt3ljeOwmI2Zward+ewEdQIJfuQ9GeKPyQhDJz8lUoPqCYhMLsjNZgdjpUxf8MXkBk/WpTxnA+izmfGuP8ZTGZOml6qbsiuO0I8HoK/gk+za7wbucWA+7Sv4KP5HYAl/qy5xJGS9fagFlb0ZK9v7avgOTcjThEvlfAMlmoUvtvK6tdTQ18sAfPnmDvT0U8B8DW+2SxnZhgG1Zetrmni1xu8lOPETZBivnpwE3NsAbKxqRCbAAc2TUQEGJzKy0pgopVyi2+DhKJ4QIXm/eVLBrS0j5ACNdENMXC2sQdSFI7YtoRkkNnkAf+28wGX1G+rXwMjnZw0Df40VH70aMg7xLCajMhadTxbFF1qIq+9uA/cMaO74EEN94FuzrjwTTB0TLh8Vyms7n7Hvql34yip4Leg/Dg+sATGZhK8rxdf137aniGwHUdVHNfXB0K+3kJHB9jCAdx2BXH/9FVv6dgPmrfxW1tkurepG2f0nw+mDQ0Z3F6GOm0nxR+6aIIJd0vAue1KZMLM4HxMYKRj8YeCUAXtXrh3C58BkVL72Eye+mJ7k4avh81RLa09ok7qTCmTTqUJXdAisjYNRELkI4NEjIF71M5ZTERD97ShjlZUnaBIwYzBm3sC9BPgW3+ajoEiQlEcRIo3U+d1kn55ASOGTNIuXVcCVHAPtC9EuA2UETXw27lPmFVZe0dgncSL7ZeOjHVDuT6NBqe0O4Uc2/UChC3pxADZfvw46eZXeld0m2rtsCaGrAdIphZMNkB00Jz2VOsdQycYlZ8MBQQOCL4wZKbSYLMBtmQSX4KppbZeB0fk6yfqv0NdBClnRd04sKQ3gcQslyAnoBLk+HcWnWKUdXallg8qHI6/rsoF7H2IymeWc66SFhwVEfeMTUXBd+ETlNb3nsy8Kkscbf/Vp+3nn372MbMctprYc/m1SR8sNP9sClIGk8Uo+1kCjPyNs+lxt18szMCZewKxeYzlNcLIBsg6cwMM9En5MSNYzrTOeyuTTwNDIx+RXB5AzkNISti5IurktbsjJAal3m6RRX3l8Oe/7jtHQNDtRlC27phlkEyyXIGedUscwY/TrbD/n9F0xaVXdDfyyAfPsTVa+5EmOee8e+u5wrSxO+1X16x57XwScr2Xahc9mV+FVnSyXAsj7BCs67ZJ4kBb9AqGbs05TT6Bbf87H+mzvWyY90EVDyLCwSgFgaJhOGZxsgKyQxsKQORlpSEoZhHy6qsEwoDekjVsdAp6cjECTa+Bbd8aK0IXtbon87LeXtYqt3JStF9OjOuQA5hfGOPqgmQgQmLP/StrALxEwr/298PCf8KPep9I/8tI4uOw6lTfSPBVS0aWqiz7iZGg/6vyp9zO3b9DPNdY8QD5pIna0rA85Iau7XK79QF/vL6Gnh9iU10GtC4ChZk8pnHyADCt1ToFtOE2y02YwxKHSkG0wMp/KrhOS9hMgSWAF6jzZFULeWlnYpsETkOWk2XGVdw9Nn2DyWAd4SBMqD+D2TdlpZQ163lcVqr8N3MvA3PbzHlDLYCWlj+LfyY8v4Pe1KOh9MREBucEHb/QXSb9msucsI5L25AHy+Hbm7Ye1zlD7SkB+QNAohu/2fQIpy326nvVb662E2VRWXUvoOziVcMKrsjdCGq/L19RogwUkzYZ0PuzbseSkQncayATl5Gde/5HaISKAup4/KtcgZSW4bc3T3m0SK2SulYeEkBN902c6ZbSPLCzJ58IG7l2ISVdycB5NqWSzRdZz3/lNbRs+WAOW80oIOl3ggZASqjtZRvhnImD+2q6FLPbBrA9sVFpalZG+2hbdppY6vkMh9CcVpymZVEGRr9JOI5xsgMyJ0l9+IQO0CBaalNxhDgGahvHrpNUyFNO7+oMAnQCLbLcx9vw1OQArjlLbAdneeV5Uz5TaUeCtkH1Rjxwup+HPoM2mYL5Q3vmU0crZwD0KzD9/SnPO18HznH5Q6zs+0cNv+qCWl7ctDf4WRVF/NZ8003v/yg06yshTakovbx1Mj9wKT9L722FxaEmeVVSf4gCT5k+TrUDIPY1wsgGSCfWExMQwKQCTBdpophwE6kejcUysDVtVxeKUncUx4lGHkB+X5XFvJhwqLufJ1+O9MomHQVdX65FdM5HPctO+lQdPtoG2clKWHgZ4ItfXRcG0DdyDwJwTMBw0Ku2w6azz3foJ0OYBmsKX0OYBt9fayDUVoHVQfbwD5ApTXgZak0WLtVgfGWKtVbA+QurJJqSe7r9iaNvQ3KatF1Sd/ASHbCTu6vO8nF448QDpyTKaYHIYvV561mcjD4CNS9MqQ3kbnKpaHxAyDaYFT/QRPCGjD5qWdweAo+Or/TortIxMK8/hO7x0MCUg9fHrim5qR2rKBu5ZCKfoNmp/I84arMxx9YGAxmdIKxWgjD+3kDzp0wH4ksrOBg0ebi3Bs+KjkmffIy8mo2t6oBw+m7o1HLVsmtByk+bqvp3BbCp3J12I0eY0w8kGSEAGiJ+nlGEIhspyqhoI+TSJjnthKwFGJm8DKp+7IzR2RsCTKqSelEm3PLUJOcEHtEHS9U3ewbnWt+XucYVgpBuf/Lo+hK4Ca3uXmzqfGp1rdHaOdiwafoQBk6g9Xzs/VzvuPjDGOs4N3AOAcxiYd2ZU/i2f4Bc8/aNcoiygLTkEyMco2XHiTZP2yyPwEPyGHP7X+XkD4V/hY1FvIv8drWaiTkCb9Of0UWMt49v+KK4weq90CbCOwqAGJJ32oUNds+ojx5M8vnJjfas5PbZ0g/ppZZ9GeAsCJMbLACQjiWTDy3CyWFWgOgyIwW04oDVeGDchjL1q8DyVdk4ArpX1YkQyMhI8sUo7PvJ+rf1SXzFBnOJFft+HIXmdrW2SVh/zoZIlE8gflsj2kWzg3oCYdr34do9y/OrgWPOqclQqzyds7KcRUFpI/wh6BBLTKoRvhX9Yfrw43z+aEzzph+2jcCkr6oIGZD8OZE7Rw1WGrEd2x0upyvRBoKJe3KY/HKxB5UkZJtW0DvxUwskGSE9IRR+tozsmJIIOLNAiKBopVWOvgyeltoVD7EEH3cZUy0lobe/JoS0yuASqclJu5yiWtQrmqXwB9BM6BPY9uTUyGjmWqzRPCWDYRePvhMC5gXsW8A/mWdg9MUFAikr/pU/YX0BB+lsGNMAeEmTT4g2RyBujoiu39UDXt8r27aqX9aj5bBttwNrhGlDdtVEZ2ZZVadnKa5my+kPmyngq7xFdnFo44QAZSRgnUiCMp4mpkwpwacs3cGPUo4B2aWgckDYgIpLOPRgcIh21dY4WO6DcZdfqKuQkV1Ur9LIycGZL+GjjdjUF0ZnKaoVorz/ftI5GkW7g3gR8xz5Rr5K4B+k5TvAkRy6DR6IgfC+9I6uiDnCteLo3G+vtGOfdts+H37MWgk65Bcr2ybqGXuu7SVN2p+9rgGV6DTd6015I3VF9nFY42QCJkWwbTZhObNy4NlVG6u/1hUGZsHgwPHaodWCKmOwMpMhIZ+gnsL/EzkuPOKHGpFAXDjGOwFpl0Cl5oJPpUsgMZw65iQB8ftd8Nos21QmpP6hHRcamlC96yTF1ddE61d3AvQaaQ/zLG55g9R3lmGPPLXzNnOfMp+8B9h98pUL6V2z8uen3B4Eeg7dfTxEIw39zfYRv0tYNooOajXKlGpAXMkJTl6t/gzkWWnWBX/nUCcGW1/EBbQ+nF042QMow+b14PmV5R1s4OAG5q5FiLlI/O9gYMk9nwRuG7hygo2N72jjjsu9Pio9iXH4EPV4F5u9KhpWy2gLRPt688eQLW4eBoWtX86mjnaMBZHic1cFp5rGAqomRrLbZwD0EzD3zXv2yhgX7Uvgw30Ugf2r48OG4kuovhe0Yvad2YJ9Rah+jfS3bp2rb9HXEAORB/xJiDdzpY6FT1dXyIqiCcOYmDwLZp/sRLQ8ZjCGCcehjXlBlZIvJH2v0Vx2KwTTVGU85nGyAlJlsMBkIg8aX5vbv0IGz+SwCmdnSUaijoe3ZpdSF80WlZdZJBFImAAkqxZ4GkT6o8H/XJjgqT4WuzvV9PgFe/6Vc0ahOCavto6xX80RQFFTmXuoG7lmoc50BB4jbJ/aMmOR0DoE54AvWypcs/Zow4F8VEzLv14YOUGx5M2jjdwbVhbzY9J13Glc4ejEb3Om/ptd2OT4n1KfchFq23MgEj/5bvU47nHCAFFSD4igEMyB3G1U62KW5MtjFvZNwMsrQc7cKCHqLpoofRzB0tAiormsQgKOT0eQNXfuQuYIpJzj8mu27crYHqwzG1F3m1N08Lsli3J0hNnBvg+aSOQ1/FnY0/OywSa7+rFznN/IZB7T0N/uOeFYwl+9qW8D91rKae82lLICaOGBwcIk11pZrUzemHWm2SbmhQ6bZYBVMB9Wtx4GcpB3R5jTByQdIwIbpDeSgIcQ+eT8RaA1NYAMoe/KEWV7n72mJguyLjtVb13fnJHWiGliVdTSELGeCIEj9EjpZUfIr4I2CbxivfWTefRphctUG7jXQ/HGVlJeT6ROc2vINldcC+NP30l/bIJl1faALmZDbtqRxqR00STIdSNdK3nXwlU2V3yItMyBHOVLkWNYR8lgBKzVmhXI4/2mD1VV9AtAZuU40E0lQZM442XkiRUu+NLgDJ3TJoB07IMAkheP1x/yEOKWG8ZGdlxPI4wRKO05s0b7fVbtvHQFq/6uT6lmtBbLoEIEbuaun2wqWE7qGs4YM3zeVXtyP4vPpLByq/DB9wuqwNnDaIeer+rDRRfIKNppzp3eY1/QRAL/JU6jzotPcvlP7aCH8r/EhQedS4k0ZiUFu9K2Yj79160EQbXp58LF2jOJj/TDGw0BSwzxuX/t3wdWnHk42QFaDZH40iaA3lWH5fQ4epp3ypows6OM9VsOaTBYPkgv9+y02KsrKSZiU2YxcGbGjiVce45RP57grgmTEUPcnASFW6MlXjnxOWAY7HK+9FIm6CILoENIlDvmUxUOX6VDpZEaXg5YyVCiT2ci/PcOHKybSZDydln3JmC9kH3+iRoV4D2sDpx1wSuaa/GJfL7uaa/xyS744Cj/A24ba3KvPGGFPn61leGf4HmtD+Urs/IrO8EE6o0X6brYPH4ygRX7ljROtE/hMr4eB3KiBTga8XNGkf0Mm36whh0H4O5r+kq+2sVTzqJx9oD/rQLo4mEqPUTDWBqcTCCMnB93AMV6TpVfsghFBGbF7JIJLaxJojXH5C5ocBl6hnae2I6WdJ1v/yPUlAWURxGkH8F/KVR2TBpKPZrQjF04csquT1naGLhsZ60J91zbKIPmQhcFj8CqpqT+IFm2ka9RRjmQD9xLgt/GN+f4IaYea85H8rN5KSZ/orioEnc/hIAL8MZ0gKNBoaxHe9NNvewgZHUIxM+XIB9Y8TaouIBBtQu/KaLQcAT7LH+so9Bev9ch88Ccf//TE+sm1mmOk7l6A1sInANqR+MO+YS+DJ0DAxGD8mCCZVCnZPHkl9kAeeXXCXF8Dk6Cf+BiYUTSjaEyd30m3VgFuU+UBfe6gHomHgU8EgmyffH079l7swStlV1ede31EqJkN3FPAhDabIj6Yqee3Tms84lXnvRJ7/+vnviOJF4An/dFVHUNAFluZoE+dahF9RkDLeqDTVwBtVNvkmjGaUf/4uP2899/Uz6A2/JkDudAc2OPrDn3QWGlw+iGsdVKQVsRwQso5GTExPrCrvr7EnAlqXgifT2Dm1aTVnTMdwJOe8gGJH+j4PpjLkdSWL8TgKO8AKREjZAjz5FmbVH0CQ1bISx7A/azs2j3kiWAdgZTR08Berk+2oYSx7XMD9xZo9jx/+ayrn/0F7W/V3ysPgD/E/ON3JrkMUMevbprHayD43FbY3g5KeUDmw9cohw6U7Xm1PtcR0NFYH8qybvjyFKPKmR+Kb6TraPhjjM3YLCPk2Mf5b9aFuLp+7hU40QC5bgobtU4ok23DUsEk1eO5U4xKIMKoKrLv+J6KUvL+PemaH44V8vK+idCTgFzxq5OYNKX+cl4+8aKU+5j+0oicLLOhj+oqLSfVDtTlFZwpG2rbCitv1Cj1fcuVQB7BnTrA/dS+0oG9MNB5A/ce4H+ac37e2Js4vkLKnFcI/4lyHxTZrAkyGTxVV+8ddu3FQ71PdQ3NvLUta8lrqspdx5CvvNtQDvmA6+HD94S+l18Rmss1dQBlfap79PGYXOaN1miGZunzlPgWL9Yot9SsRZAjPeXQz94JAOPPd2pdzsnVNGG8Q9/9FcADvU39OW3lKdu+TX2iXpgO1YYDVE7NrXZP5SJokQMixTlq1oAcnGk2m1animrLF/idu+rAIIGb0aUTchMcL6GMfqkjEPVxnyp1dv/qITWPlw3cG6DJ8tziQ7GUmGOQk1NukgDznH5Amwx20PwucK1PGm6RJ0Q8I32Jtj5YsKaUB+xCrCm9WpsguD5l+lMskITdqVR88EZwRAdOmWazTOpCr1y3VTbixUgSeuU6jjVglCx4+SAIaL+HX7Ls6ZZv0qmGGPVJgu2JJVqLxMQl1NrYXV4LsWuLos01EXPJjd1TEyNqvPmDPHquvVd+e0CtB+wAkT0U3LbqHU2DGxJUStnetOoY65hg3k4OroID69UYC6C1zQbuIfBcR4BwcKsbqedYc5p+kHOfvkEgBaFFfTz2hgwwAlfQ9IKL2GcINhmEwbj9E35EH+4FZvLC7A+gfeaTjz7gNao+U7UyE9yJ6AGGvye6JuqdumUA/SsJmnKS1+EphpMNkOwWGF5/ndFsxM5sLsflZb/zePfBcF3QUF4Yk9gjNO+m8POHWOi006W3j/S0VdmX5RXlHZ0ThXBI/S4J2OHQX/nki36rM4oEtXNM1wWvRyhl8gTgMdbUI9dLWMBaR8HYVWzgXoTqr/YJ/XWP2qgKTB/Ab/DZDKT4DZCP6VDnAIhfCXALJGT76midv/ndY/eYVeQC3EaY4PaC0DHbh8680y5urxEfKJDL2qEdzFwmq+y8WyMvZKZc5FmW1361hYK41whtaWNGM5MTRNvTCH1EOAHgPh+X2HOO2LO5LlsjzR/rwhlMq4EkHKTWiR584ql8R6LqQ0btTw42k4zpQnUqT5V3Kj147lKcnfOiW/Qdzhe0Xh/kr/KR5xI86LTxSaHK8PNlVUaL2UeHLa06WDhZ72wbuIeAOeNS2Rs2t17auQ//sK8o7X1qza9VntZ8+gO+Ad90Oo02yKloeuWnv/Snrq15or/MRznkBU3tkOs66aO1E1dlkiVf5Opsbz71umFNBUZf9vVmnJYlWqyFkOsy+kCDR/Tw7hocVXea4UQDJLuGLwEq5k5C6h8KquUh9xf5gS6+hqzJu53KfD1ZfDszJ7UeLb/Wj8aTMppMQhY0HkqvfR4q07TUYVTGamsZlU4+eaMc7YMn2iUfSPvxZCvkVAz+VaSNx6+6SBNjPOyqua9u4B4CFrowb5W0c49/pR/aJylXWusH+PG4+iD1+NVka6tsbeNXWyEj21hGv3zjJBh1LU/4VfQdPhp+zdVV56+qizc7e6S9ZVGXcpV3WXnLqr4Puj/asTYsL5B16HZ1PaBLVdg6n3YYKLqfTAjXDlReebmUn/+iXP3qV8qLf/d35cK1a+WMdrMRO4qMMxPyqZIhv8uyBnl5gQlRMHehTt1qYPjYpQAf55WaF0JNU0byccOatsmDrLxHlDxxzyfyWZ9p7uKukqz2/tI6dH3U/IJxqTxUe76Cfwrt/vvL8gPvLY/83u+W8uufKEWLoox23GYDpxvSZ0a3rpfy1E/Ki3/+12XvO98rZ2/eKMPbtwtfcMdFNe//xsW1/AZXiubhN/hWzTun8ljBJmk9UseVavg+6NNmMLqd/1wHsW8PbR3Cx9Ev5S+7fhOQzcnQa0syGCvYfodCtgWj70Dacrk+GCzjxCq/nl++r9z/yU+Vnd/9QinvfGcp585rTZzwSe1NwAkGSIndu13KlVfLrZ/8pFz70Q/KOTnMji5VeZZqLgPOZXQC5Mg3BleB5jkBTBPlUDXy7UR0QY3dO1wMLl5WIPkcfGGToJAFVmdxHyEr6112X86JRqCmOhwibnibbQWoA1oTz8TL+MfShefKZspPz54t5bFHy4UPf6gM3/14mWlH1h5dW2zgNEP6zHC6W8qrL5er332yLJ5+ppzZ2y3D/T37jO99+zNThAGCIG+6tL4ReeqAqAPD/7KPhPDFbN/6oitN79ZBbZv8LbAOXE+/5qtrYw1YNxEgyYc8v7EYHYaMitFN1C3hV3Bk5FzWL3SaXJ47V849/p4y+eCHSrnvwbKv0zEQr6cPTi5ACrinMppNy/LG1TJ79ZWytfB5KSoJSAQWGXOIJVtoJ7yWDRBadc0AcxQN0Fba8bLW7jDIzpJvvS+glau6rD3M+QwE2YTKvNC4CZA+Yc+F5HXpUc5fKOXSfWWmHZXNA4c5QuoGThl4CfExw9l+mb9ypYx1eiyLWSDxxv6hMOErJfxf/K2/kVUSLyrkxFcaLC24OnnItAwH/FbtFdTyjZwVaHW4E2TTltU0vbh9r2eIjQYsbT9Hib8TkHWKHJy/KH+/WKZb58pU9QTQbXOfPjjRAIkrxE8+UlBwHPAsFIjV4vQYARKGVSD85C4IoCa71soEHQWvY+IjEKMPJb1ot6SV7+8wqS5UeWuwYrps38CKo1Re7cV2CFtHjmt0/xMhNhFJuDk/3luArwPcOim6StLlQaB8lg2PMDDkWlKcuigPnxPYLyIbviY4csM9BMxa2xkgNH6JfPCwk+Ebhuwz9Wz6WwEffEBsAY/QbThDj4UKmCqhWayJ0wcneIktlJ8YsAlW4LeCZSBCXxCPD4jLFmicc3MnaEe3Pp+tDLKQ27qj+klewPwiHMK2AubXi9nFnO7K7mrfISqaqYLi5QbuIfAc1pQXTSrf2MQSyE1xrPq47ITntSFd4RishqN8FTiqzr6boPo79fVafRwGPhwJM05y6Alr+FikjUSIzTBOLohTBicfIKtxYkdVCnCpQX32nPR7GY47BsZcbdLfWSBIqtAtMMHmCHlvQfqzl5OQufX6JxSokBdPBIK7GQzSX04roB+2UBDkwaGwSByRoqgcp9u7ecK9i3Cil9hhAWwUeweAYXzpTEAwQgi+1wbx0viehxhHuAoXW2EdhjbSK24SwzydDrOBw4Gn+wgA7GvppsTDOCtxG0nUenfp0HtKv4yQJwC5Mn6u60f9hVXwbt7hDy/HaqfzRHBiARKhU5kjXCT8oppLaeQy7cPn0ZBt73VgzIw2gmOMnTTtEziQu2wC5L0EPGwz00yyzNnogNgEYy1Ad1xU1Z29/ZcFejuEn8dhgL/w80i5AcHfaYQTDZA4TRggQmGYKwJCIkZKh3otuDPH2w93MmTYIFZJ8kI7rF1uHhu4N4BzEf7sW8dkAO1xnCzjThN+znoIL7hbcNq9hGCY3hx+np4dNaRQknra4GQvsVMyaSJ24MitFOeBtJVH8V8J0IgZNIZIm7gsaM1wOq84NnAU5DwSHLtLaSFv1HiqCQRxGPD95l8JkEEYat5KS1wH7HRKL5hO+B7kBjbwKwi5on5V4uAvMZzSuL2BDdzDQGDcBMdfCtgEyA1sYAMbOAI2AXIDG9jABo6ATYDcwAY2sIEjYBMgN7CBDWzgCNgEyA1sYAMbOAI2AXIDG9jABo6At/w5yM1jlwfh9Xy91RuFjd1X4SRsvrHxneGt8PW7CScaIOOjhKC68HcrKuVLYmWk7HQ5WEqJWrgDHM+0x+M6mUHfWWp8HUU3+kj8Ox3Smy8RVgL19R3t82NbQIzfr9icWcDufO9khcgdbqd+Zo6G+ADpceHO8l4P3KnntrfDPr6W9a7xt8gw4rB2+iE++Xo/FIilEe7vg6RkGSLoPz85k19zdjx/f31WbuEo8W9U3hsH9cjYGXCGGfk4/r6oXybdfW/HW6/cseBEP4t9WzhSZnD7WhnuXS/j6VQBUpYYTfzbLLMhv5428xczpDNhqHTslhbfiBLFztjAoTtSpXVsVYj/9ac2+attK+1DuLOvBYfvgnduB4znE2u3HMyVzmPDGI5L2Tpbys65Mt3Z8u/UnBEe1ssB8NDmksR4WOjxyfbxTBV71zQJV7QyZ7L3RKwwx5eUsvz4MaZea7WSTQYLPie3Bjneand/YdVxlRNfO5/k1+ean/k1T5WJS2bZtoZdNOY/VOGlylgDk1h8fIu2lMzvAYjfSh+WKZuG6rcIjizWi+fL/vCM/XRUPyI4VYbZmag1dAs4BKyn5JLuk0r09ssvi31XNtots4nsuxiV7dnYet2aMIalfOAQxdegxo87g+QdBl7WDJlNV3n/ptIaZMuuRhm+ffw4cNga6FpWnYZL+eJcYx9ONRfyanyS31o6c67cunxe1h2WnSmbiWSND8o7DXByJ0ikEiGvvljmzzxV9p/9RRnfvFkmfDBVIZEFNleA9AmyOhltbHj9d2qRmFTPXiZHXfAgr4eYuFUakLw5r5T4Sc0Wsu5OcJhzpE4tHGbaxUCLRs2Xg/wCqKV85lwplx8sZ977vlIee6zsjbSoKv9xIL5oK8LPiJDAtyO88mrZ/9mPyt6zPy2DG9cVcPmRJZgzQDKOOLF2gL6H6HwAJGidy+U1Ij/WhK3olyrswTy2ARJo7QlP8sV/zw8XZcujPTVODwfza4CkBEhOivysKV9HOjgji7z7sbJ8z7tLue8hBRBZDrupbjpkXiJA5jfwHAbWE7mkbP5XrpXpd79Xxq8+X/Znt3xiHMwIAvHB+tuTObNTRooJLRzmT90PxjVwON9BA4R90vYEyIOyjoLXsmcLh6hyoO1SNt0fjLXO98tksadNW7Y6c6Es3vWuMvjI+8vg/NmyxZfmckBY+7Gw0wInFyDZiV7RCeapH5YrX/u78urXv14mL79azsoJByxSLR5/A72QBWA10ASnSuunZi5SoUR8Jle1DwQ5/jgZVEgHXmVL55HANXnHAtrWbA8H23MyWoclpzaNnQDJDxppby3LS5fL+D3vLe/8/d8vo1//eJlq8U6O+ZXi9AoSINFpRMS7rcX6gx+WF/7qz8uVb321LJ9/tjygUzs/B7pUvX+Hm34R0AFlUaTTClT75Jx0r2ts2OQAMH6Rw878h92jLhLq258D4ASzfqI0iD/HmH0d6brQxUMwUiO3jRPkwCdIz8r995Xhb3+2XPrN3yhnP/DBMtg+H19LqvHPvHlFgDRzr94K0D/j8Y9a3bpZys9+Wl78P/6k7H//O2V6/RX/eudEAWBnGot/d6xzqXTRueAgSE6MCr/U4WEZm2cL+cuaLRxlA+jw+4e5VM4frGsBSV3rlLMm//WA7UFGMkjnCpB7wvlwT6fHPZ8o2YzOfObT5dJ/8w/L6LFHyta2rpUGWxrc6fx2lhMMkJqQF58vi+9+u7z0F39WXv2rL5azL71czk7Zx4cOjgtOkPobETQaNXA6yknzotJ/N8XU1exBYGqYIBwtnA0wf7ZTaucRT/bjvuCn/k6QQlcAyatapf4tDOT4oWF87du+HGh2/4Nl+NGPlnf9q/++lM99pszPX9RJ8Hi/80YXPpFGKS4Jb8khv/mt8tL/+h/Ltb/9Yln84qflki73+B1kB0ePlYWT46gasXrXAySSzR48ngsUX7sUW28FMEabqtqrtUfmLY/UryFnvQ6Axo+8rdMOA2bZP+3rAKcS6PFxlce5XevxkYfL4Pf/YXnw979Qtj7+8bI8e0kNkU998I/zm+9fI0ACBJ/Rzaul/Pj75ek//OOy95Wv6MrppbIlOiekbZ0igT2dIOlj/QSJFDwvbcXfzAFylbEd+50A3QiOufnw063r4OCJXSsCr6ePdUAG7RN9Yp/LnrrELvv78qGtsnzosXL2d/9Buf//+i/K4j3vKsOz56WIfF0nzdMIJ3iJreD34jNl91tfL1f+5E/K1T/783Lx5VfK9lSng/GoLLSZzAdyRTnRWEHCathTwlFs4FyEJsgR69y9lsoWI2wnCkR41EXbkWgjTpoq+xTapa5+TQh560DD2jirD5E1Xky18OQ6qhtoQFyC3NLldfnkr5fH/s2/LuW3frPsX76s8HjMH8KsfWAbsrKkAuTtUnRiv/pHf1hu//VflOnPf1K2z0ji1o4Xs09o3pSi7bKeuAkLBxYlg+G/seWSe2hr99HCJDnwAKS1ZGw/dGB2wTTk8Tvjlm2CsIqGloBuBK7akeFIP9BwCJDeADWchd8YjB9Em6sNQXLr0cfKzhf+cbnvn/6+bP/Jsjx/WQ25f4vWyFV4PWaAJPiMuNerAPnz//CHZfGlL5Xhqy/qsnLmUyinSILzHj9KI5/WFfwq1GHYBmwC+ou7ykeMr4GjbGBbywZcNSDmsKuZLkB6A9HfEbIOgwy8LWR76hiLx7mvUXDvQgFyODpTFo+8q5zTldLOv/lXpbzvvf5dbAdH+eNphCOm/u4Av3vNd2OzE28rCE7kpKORpn9LE1NxsDOWfYZlvDVxKh91OtSJhxu3+ChadjS1H21FGy5R27qh0tGW+tlWfiI+oU/uvgMf82CakDyXuQTphVEOBN/4IA636BPdVBbyA4TQlzoKgN78kIeu0m+oDWCEPtJlMBFR40BH8guNd7GtPGOnnYKDg6WnQkpOdnTZrZ1WpTsCTBVpDTgkWU+FE+FwsC+pupC3XujR2w9EX+Jj6gcftLF4xtta3tDg07/jhWyuqexsApJHrv28sa9liY49sj9j7cNIvfrwPVkZgnkcbaux6tyf5y3mt7Mvtq2InY3SF7TNhUvJXSKD9thdKfI9RtWNR8NynmDLopbcDIp0olfjncABrSJCForAw/lAJ8dhOaMybkK45V77TH3P0Uk4wF7MPyhbLSfikj8ZNXczRZbQE7vIz6Rf2s42q2XG7TmCDk11tkHlpZ03POar0sIP+rXEGgrfl00kq7Oj6uFFhtdVtbH7qu1IUy943Sf6dnWxBnHwoVAkqaK+UWjJG1dYaBvFMeepBI32pEAGn2+VndnY92DO6DLjrKLI9lATKquPtYK2B9vaXWV4ORW7jXdbeTQ40KU4dIKrpk00dmJkyujakMhvS96WeMGJnBLc0kqYLMaWOybNvHbxsVLKW5U+Vjt4zMff8nCkfoR8/W0P1Sv8mmDqtqh3XqiJRl/GwkLJsYDQkbGry9xbW1vl9njsN2P2tVCncqwZ9wfZRTlNVwveEViXibWRDyeSORfua8HxpAAOS9/87CjpWDYaO08qtH2xTdhyxZ6Um9R012O/sMtQc2u5oiOvk8uciTZS4KA/o2hbzL38gLSniw/bcY9ac8+TDUbV2Z6iy1vKjnannHd0sY9U5KTG/I+m8idd1YHMO3OzDT9zpHq34zhJYOPWgTby+K09gWJFvrHj2w3O3BkG9DublHPzSbmg9MxsVLbp2yFBddLZ/icd0n9Gqh/ilypvqbxlH4x0NGM88nGNd4fxSmfKjLuzgXCErVRH3jTy4lmZL7Day75Yadgs+ZE9RJbtGHR4w26B8FkfYSu/61MpOoDIWaq8P56UmQ4/UwXYPbk3OOX0KdsvZJVj+/rbBCcYIAU4oE4P43rkxtm0BnyZoy3ITsA7W1rBvhQSRWtbpxuc1WU5kI43pLyxM2ShkWrBsJhwPhY3zk6dF5hSHQiFojkNJGAFn9xVfMhDGfeBfPclWWtI/+hnfSsNXutDvfR1yulYC546X83Qpo4LXOiSlEvTgRaAjgxi4J38eioK0xiBTO8EkqgTMBFFAxT0MiTXetbFKedlU+KgkAGAsjb1GKPHAy1s6EXd2BQbm1+2sxywtrENScW7BE3Tv1L659W89JK2dF3ksYs5saP4017kjTn/lMSfm0+kQuupOusa+pomnrgoCP0D9WpbcIIZeFPypZ38M+4MC1ixagNwqvRJ6dhAX2jNPKgdIn26jABOwCQ4MZbWBqRD+U74UfUvj6f6uOpyXOnrMcYYPzRvwBU91pqPeau8wsFM9uZxG6HbVn7y0L3h1badjNo+1xF0r8PO7sFn5I+UNiB8mtt4rE9rX+4/1VUX7z/4yk3WeR1X9m85hCecECx1KVHOb5fRhW1fVk51+bAn42hzLTPuhc25vNTurV1cdnea+aVOQBiVH13nt21491HzI98Vnd0HHqfcr1GgkJWdVsSx+zztok1Plx5G5UWfi069fHgVRYOP/ELXCKHLvMzgh2YefneE8qr+Cl21fdSDPhmAasiJeSz9fekhGeIWdmeZOwIBct8jcdTTwqoTWgMigQBnlZt2eiUylgU2JrWN4w2MsC1vEsgulEW33ZTabtXOjN82oI5xS45tbJtEyiXuXAGOcbtPFgltK4Yu8CijjRRMGyZSlynWQa/pYm498AWCW8xt1Od8K9L0dR4DPEmP/qYKjlMFSd5txeqeAjMLkVPxWEBU1Il9X/69r2gC7snf94X4B1FgoM1gsYhyNw/ohw9xCV7pabv09bC5aC6HDVg/pDwek/ScO3tR2oO2wrYu6f366dvaGbFbLYPk4Yk+o1/66/2h7y/1oswfp9GxmAei+fKe2zKKBXFbRjR2Mck6raCpOCHQoPfObJVy6VxZXj5b5ufGZV8HJwzrm8N2PrmfHAgn7gNYTCCXiVrbtSyHYGJoVXnTwexUYjePUvh9QLCTNUhZSDjJ4Oi8Jgh04Kxpiw4/St1WKcExZXRyzBd9h1MpRc8aNGIskechYd7M5PSGkXijaCynsnv5+Y+FLpdwreNDLmHaWK4U4DQYKMWRzni8CDUO2SMCPnqGXRiNx+9xxlgdyMhLgsdYaTHeaiPJxL5eWGNQgaYi40Ve2KXHnC/y8CU9bYS91mkhK+edflf5EpGLIWx7yZ4rnXFS4ViqUXIfEl3ZwPzojwMjW0gFSLTXC39sL0cCto7uap86AOhEvzeY+pQ0U9k+KfR4+cPfyCsNXdCbuorVBxkvYw2/jzb9oaHOAR2bVjc4y+/tkDxsZLZhHbd9s2I732lfy3A+5rnnTd9GfvRh/6j9uE9oQvh4w4kH4x0chVwNjCc6FuwoLmwrGHAPVrI8DacUOr+424CDzbfPK0DeVxYXL5QZRtGOPdmX0W7OdYIS02RZdgd7upxYam1hdU3GjDsTsdChgwSRrbEuNgg+PK6Ase2RkfLIDu9acilPXvPllDryILy8Y55I8KBP3jgiBenTn2zxyTbypNShx2I680RPNA7aL2dyB+FAfOhM/WI6Dd1Egx5rQDspYxfyGAkewfOPt8S2rwUwnu5p6PvlFh/l0Bi4x3ocYIS+X+XesbnQziYBksu7ijPpzumIk6QvvbisFH0+Ew+2mMud93mQd1G2LREkzokXeyqPSObAwRz9ROHk6zmiU42zw2oT8kth2gD7QZPlrK3nVqS0D7ab7/OJiyjbrhLXt1VZevvpA+nGGGaytYerPHNKat3UPZeDKgqjn4HGO8a34JNFQC4bJ/K54XSusYsHWYhm06424zJRzVewAzoQ4GuKIH4ofMi4kM28KmpsLbhfeEY8E8mFl3vt8gfJ9+U4wZnbDNhJbRVXjR4z8yO0/upnUecs5gZLyizQGHf1984OmqfJaCyUd2je7POqj6c3ZCPRc40gx3PLaVrzwLva1LkPyeFdevp3H7UNcwB/9osM32aybpSkmw4Te0NtGPLHucYpiX4ne7B9rszPnNEmoktvc55eiJGcEFj4mXNl59x5Hal3tMvgOjKUUv58wpFRmQQePxHZu077UGvwCuyM0TahzbfAosjn/WjFZY0XCrJqm6gJSHqLLZ1+DY2MIbuj9LbDVIdQhfTHXQRWt5eXmGAddakYYxV9rf7NQz8+ciwQU9IuPlGJonxwxCt1CaFjzIX119iibaDB+ahP6NolTwNpBxDb5UP9tqUWHFJ47Cds2vfjemxLP6KR8ggLOrWAPPMYK1HgoOqmoducAG7ZiXcB6LN2Sh/Ity4VciwAec9J5WuBNtnOfMjJ8Tfj7WQf0h7Itq188jl+Ap9lZ3/mJdFJVDw5hzFP6zJV3+Uls9ICLcSBVkK8sWGXJfeZt3fKZPtMGY39FpOo0e9phVXvusvASaGMx2Wg4DhWkFw6SDKB6lhG4YTQnX5sozCWn0cU5ILIyalJlLNwFEhGTpRenCeX8mgNLWWZt0LyQNeLk7YdQD4XbQJ1rTPRt/vtZIcs9PGrktQh5Z4UuEd0iURweI/Wt8l36ZqOB8cU4PYVD4XKmzbq2irjN2Qg1LbI8CIVdIGvhYY3Ae1tzzXeeNBd69W6xUK2nxmpWZXzuqE2Z+M0HBB3uPzD7ARtfQxY3zTl077JB6ScbJf1ab8WgjXqW1iXl5gyW3otRNLkgY5HTVgPY662dMKeKxYsdnbKUqga/WnO3SJkn0Y40QAZw9brzrmydfkBnyYXYx3bR5hGNZo7vwMqGHFPqE4aRk1YOSHkRJG62PO1kBNK2+AJPj8QyzzW+vZEwikTZ6I+T5yxu+NgfTDMyYcPIEla1y8yBbkL922yXd9/YG3nqmh7NwGJXHLRNzr49MscNEEHOgymmaJ2apPjyZOO+SuNNE7SsckB5q/jynyL9EFX7ekj+9aL26SdU15kwp5JJ+V2S5yCqGcRciWuy8E6Lv4SnFd9e2Jr+71bQL+cbLGvoRO9qo/L6Kixpq0Aj0uYOvZ1UXZ956uiuS4DItkmOJoAqelX+bz6gZ68IJC+CJDCB2R9W+c8aY6lw7Q/AUapb3foKnFHl9eXL5Vynk/P6OCEyBB7auFEA6THLmOVs+fLWAFyfuasAiTf7qGFkAzc8RXk4mHigTodfu2AiaxZoJ1YzUhX101U5jXpAXD0lwygXoJaLw2ih14uSd9ryIm6ykMbUmThDE6jaHmguYHgNwrgCQdUprZrmN8kIA+UMMTXBeE/zUl3Wqv9pp4skChTtbpAugUHUoc88/Rykk47Y5Yrhk00x04DAV4zT7uoc9Gyke6gEASnlAmItK5amyb2Wmox/gLCBlVjv94tYPxhg7BvO0bKK2C+qkudH/OzQbta9dBtD42hkxX15JGI2JAd5a4/0PKdC5lCy6yyadzLDf42BVxf80DK7LFWCLKcdWrsgxABcXH2bCn3XS7l4kXt2Nu6igzfgue0QtXwZMB2k2EIkJMHHirlwgV/BRSPabB9aK+FISanGolXnwrk6Nyj844PXS/QOTXkycFl1TMjOBpM7WQDrWwmrF98Fd1PBGXqLEdAXfDLgVQ/nU6tT078AVSbPhDT1zBOElWmPxssGkGG/vKjX84LrYfqlDH9zYHkpCrVFPSBnrE4VFY/M96gUZ/oOdbGlbYJ/rA9zLRLW6Vdgid0Nk3ljq9Fc4Y9Pc6uLuydilLXzWcHwWvm2if5DLABoZ/tDMrGrqp8ufGlIgQbrlYC5X+NDm8KOvXYSNSn/mwn/a+Mu/JYr0qvbA2gbyhsXvExH3AxRvT2RymF9NEikHlO9j2PhbkembF+eEeAqzfJq77qOa1z4EMLKTat9NA9EEh6O3ephzvVmiBAjvlSCq3/0UMPxilyzLPAko8cHyVPJ5xogLQ7cKlx6b5y5tF3luHl+8qUj5XxkSvqZRyMD2BgDOt31+rE2MCAJ0O8THaLtT4nKRwhFml3maz6XMSJbtOUkYK81uGSBwha318LKYM3Fhy8axl9o95JBS5v0V3OW+UZa63TQ/p4/ZAyqv6UpQiLbE7gU55+851MoHVydKYePsaU/DkvlDs0fz9I8iGjr6ectBxzXsrlpoIeKX+mPsknAshhEdMGICWoTybagDU+by4CeGKcvV7Zj22ucup418G6Ye0YW4L7j6qOnvahor1kpp4xH2xfZQhyXDmOlAW1tbU4VnjWoZWX9SNvlP0tk4CoSz26hoLQM/ULOtzBp74z+PEUCt8x8M7HylhBsmzviLHGgeA4lVAj0QkCDwBfuFiGDz1cxpe0c5zZcYD0c2C2bUxGTlAa2mhKALXsmi2mI7UT7IkxVJoQirNR0fFnGyACRT/JytQkaP2lZzhxQierBmS9BL3Wket4VHQgWA+2tY+O1lS9YbAqekFmRYqhE3qgg6bf9FhEiTTOwJS0Vr+UcRh4nDVNoL3p682qPOTyDnYGQKjZX9un3+WuZVJ0jDaqt94al+aJgJOdWYZzghDsqhjnSUAdZDPWGEfMedU+7OEcrNim0VeYkPmWBoQ914JfLefYIJun1mebDivNMpSnD9ZV15XqElIvY6UBQevrgdw0aY0mXCkOd7bLRAFy8sADZUAc4OAEO+uqtjuNcKIBErP70w5ndLy+T6dI4db5s/Gwqer9jTKyEobF2XPC2MHS2AA0Km30BoF2t8URwJysPGWCXFLlaekwCHEhM9t0smvZeUFwreqTJyJm3bp1dcEbEAVRuzrztlD7ePNQ+9YLIq0ZqV5ALvFmM24bRPDjNAZGndpo7K1tQ18JrO0zTTSP0O1Ubtsm+HZFHbORhazUfJTFk/Jy4UMD3DcIVLmmNZByPRf071ELxA+dcsgP8tGA3FXZdwTYpXOeBrnMjkAtujq0TvoLlcO+6LIyriPAOosf3rwySnoAY+p9NYFTM+3QIdu0kJuK5Sv1VVDqL8wmbX99nz0kHS6vwdreeVHxhbM6JJ25/74yunShLLe3HAMAZuWgZqcHTixAMuxRPFNfytaWTpGXyuiBh8rw/OUy5ycXZND4VMEMC9uIzAiTcXAOgpAO0k9gTlwNrtCE8HsiXR+yvWBB6MKc1B6i70TadvVJayDLGQh6ub0+QC8iZOAw1BkrrdWia3hsoHViBWclKC9vah/W02Ve0FW6ywXiS3STVpFSVT71FCHaw+e0h47HbL0coM3Xzg3ksp3n1Jf4Ud/L6/nz2cW2bxah+QS80j42KxW6e1viEZ0SmjNmxh4gqni7bjJ9PUAbBcRAupX8hdBCechaevty0zkHT/Mq7+5sH/Sx0sYDanTj7GtsV/ufRfglbd0hZAfnCtlcadqNDc31KnN7IteWyJaR4N5po3+3sAySXl/SHBmfq+FDC/OJNt7LOjk+8EhZnLvoN2rrh8YMayvgVMGJBUhgslTwwyXG6kanyMX9j+iI/VhZTs7685rT+Z5MuB9WFuRkMEFAOzk2IxOpyc6JBToe0aBHXfByT42TktuBwenUO2uFrE9gkbU3nUlns1lXzr4AAmSevKgH87QALQJo7P6gPwNLQysRzhmEIBn64R0DqqAWUjdkszDRWyTiBYFiMSMY4ZboNtKCRfcIkmmLHAuSrHuV5zrZNO3TblgEODqCF4AG5CaS+XxDIPVM2wR/0JIn9Qmd4n4oQNn25JMktUwPzDew5AtnvdhByRad1M01Hzw4TpsYNL4QcoE+dweIDoNf/YDainUw2Cr+PRZES4/i38BQ/+hMk6oXuuZpOxCd0EV81rm3S9yj7+3RtUFm5bMs8aTdrJswB2R91lOh2wj5NE3OmdvXFLQeOeeWi+m49w7O5ddqNxKvcMR9YV2xLVn/y2nZ1QFp/4FHy/LRx8v+2Yta8xojdq/9n2boo8SJQH2XWoYv29vl/IMPlPOPPuzfA9H69Merxt1Ci13LE1rBk2KMepBpwwEC+knUi/4b56iQMi1L7XG0WsG/6QF9m2wOP28YQIib/40e7i+DcARk9111Q0aeWJ132uuWzh/0QGvSD/9NAoL6sTO8bkFVujo1p+k+ddWFUMdo/bK+8gLke71zbIFAcmbfHmtTTkxwW/qo9xhTTgB5aGHbrFuVZZLzvV3hrX7icowtAzv5Dtru3iigl/RLWTGOSDua0LYk+IPUVToQY+lRL6aHLMbT5mvbmua41aij9dDIFFCPHnnPN+k8uwl9MpmYjp1Mr3bvsfFfBX56c48SI04HFQd4LR0Hw50z5fI7Hivn3/lY2T5/VvFA3FXFDNanFaoHnQRo2AudrAiSWGBL+UceKtvveEcZPnB/WWhX4e1/Pgsb02P7egJWgMljMmoR6Hn6llBykYM0y4klH1zrEJR0rNaB9OJ8d5+mcRJz1ZQ2nYNRX2lZBmrRIv2ubZDdHkerbBUq85sFicl+DZ0O9B9o3clqbDht6s1r11b0tGMuGPLQWkzbdPJbQFjKps+KLWC5DLxAXx/2MVZKC9Fnmz9YhsAJCbDUQ3U4TPrrAJrXftyni9E3/bSbBONcH2vqsqJTrfc46pUT1ZXscgSqKAMr7RuQhJBTEX27fIJlN+UE+NbmGHOy3ph7f45byGfJ47PzqvMJUT4zPlMGly6XorVfeMTn7Blm1KfNiKTiP1zlUwEnGCCBuMzw+Hk3+/77SnnXO8vOOx8v40v3yzLaRWPNeRLSaZiMIMUEeBKYoErPhQrkaSARiJSFFbKUVPkhy9D0A79Pgi4x8dGf+9YuKwYHSi6l2XWpy/ud9LHStxCdWr26y7vKYL2sVPSdKKr1uptg2f6LYIzl0qadnrXLCNa9naxj1Q3Mm/hA0kL+6phyBElrF1e2aYF+bZgK1NNPPqoTl8YZDIIv5TEfQNLjVNTPKxA6iFd6gEAGltD+boBG3YyzM4I6CTvLv6q9QcB8ghwXmO3T/smTcpKPNpblK6IIukDSc+w512KgQ8+1UdX4JeOnTG7GpbKu6mYzno+NtoAf9ao6MzAHa1rUyOaADx0W1NF8QSmjrTK6eL8PReWhB0o5u1MW9Y1Zr7ba/lc4QDbAjnHuTCkPPlTG73q8LC/fX2a8WeN7YTEJgB1Cs5MT3DpJvFKd9UxUlJOPfDqcaW4hyHI6nkgplbLBIisVHgJFXWwAtC5wCEKH1TQf9wm9ap2w68LllN8EDP2HUpXxzYJl1X7050URNXZwFgxapn7BG/rFyUCF4PZrp2dt0y1QFqNTpK1CWw6b9bbu5UUPWe5Rq63mO0kpsMrw2DwfdU6Vd6CIaoEaQIfmbM1TJDi4D9hS8BuA7Au5ISx05j/1r+KzbLuRDzIVwbcOleY2XX0Kq4noMa7w01Qn5ZEmj4OkwHMnAcSzlJrziQBSm0kyk57yoJPlvmPQY/7z25kQaFbmZPtsGd7/cNl+4j2lPKwAubOtwChd9efRo06odGrhLQmQ2MAG4ebtAw/495+Hjzxabm/vlOkoTjLtg72eqEPAPEo96Up9SW1jk49FYhlVDpC0nEzqwqFiZkhylzUJ2RXROusBZIScXgbllNW3QStTKi30iEzlQwZ/Dd0DuWtg6aFLBjslsfuHDmgAuFvz1XFSt6Y3ZctyWQG05sHgVZtmczAob3t1Nst5WnU7y6xyQlYvu81TNM08AV6clQ43NTlHVIQEa7c6Lv35XXFaKH1DYFGhV+3EMu0nDsBhC2zuN2A8dhjF2unS2rXSZceQ0QQnYfopADttklabr9BoR3t0MlCusixPvPCjhWkCnwZrH2jvk2MKF4Te0i1qoWjojW3FyndYctwZnDtXRjo9bn3gfQqQPBweX6jHmR+JbNrO9OJPHax66l0Gf8xag1cIVEYGlJOUi/eV8fs+WHaeeF/ZlQGnfLuHDMunOmAm74XKxNnoZGPSbNTGYcyL/MobziT+6iAJbtvJY1LdvHHCaJvOmNgvqOpI0LJ/QDToQNIo+0RT+2918a/rJZgv+GlKe/5cOAHwCdIY+gIOlvTfk0L/Nq8CKWPwbY5KE7Xm69yQZ8MidetoB3S2dQl6zkm0s6yocjnvbVmWKjBJnlC7y23PmS4L8+kCyxFv7cv9qb4F21hIb/FlEpH3fyrwhiHkANlH6t+mHpcwddH/CqQ+tgHtKr8RIRUyeCbN9qgyO0WiU4+VOfazh0L7gOc+aPYLlaGl7XhzkicErHPXR79GRp4jxEsOlZapy2f1NVN+hvzz58vgHe8sw/e/ryx1ib3v21U83SJW5FEI0acWYuWeEMTDoJhPE+myQuXZC6U89q5y5j1PlIl2l5kuu3EaGzhMbd7ebulIUUeSzpK0PJG4pIZuXyeu5wmJlhU5v0ZSKdRVfqALxskr6NvjT9WBLTs1rouBHPWZGs3QQUs3p7vq+zpRCMWi/6B0cMAONZ/6BmR9lVHl9PVAX2eQHBYYEHRnJWm1PyDbRVvqhOZJvja/BoeQc2EbJDKDc8hPfLMQ8sKfKwlaTf260k3os2Jv1adOliWsJVcD5qSNEnjcnlKV0fWhMtkMcH5FnjLRR0DyJM0pMjt5q8HZfa3dOKTEN5ZPle7K1rPxqIzuv1zG73islHc+UuYXz5cy4gfuxKDjZUqzlF70qYMTC5DVDkq1ILi0VY7pmuE822fK1kMPlwff/94y4gPs2ll8I1hcORE5OaRcWvtxGwE7a35eO3n8KRmVmeR0BiBPE8EVskFfNlCmjXfCaJ99t7t1nlQCVnWDJx0r29dmXZ+wwm+euoPCBFvwg2orPUDq7jakLgF9qde3bibCPCXkaSTL5HMseXoJuwRfjqMFZNu2zJcQnmxHG+BgH31dQm+n3s45Z/gOqRp1vFlHPiFPk+3cul3Nr/f5uoH2wvgauSqTPkXDXlnfPewungg8Zl0B1Tjt7BGlzk6WJYCr44EOTQIptzY9ALXvDlCi0rAJb0baVytQDT1tTR/5HCeHH4BTaP5mDT/nwSfmLj/2SDlDgFT+trT1CkYdmmCOWjzNsOrRdxlYdnJXWWEsnKjE72mo4oyM//g7yqVPfqZsfeAjZXT2jH8aIK5AdUxf8i6xmjDxtiaXEjKlJsZGbSYdhweSQto5UoXWeYBOBvITa715qvyUHS0o1wXqkvoRX7/YLaGXV/tEctCqfNE6qbWdA+MbAFp1LUPFHlThS6da5MFT3mXk+zcDyYtm5ITPXAmqjVDYekdJAD1oHkyFHNtRCzLL3SmGNDrqZGOVnJsAFmDtf11epspQR7sVnq6cMmu/bEDumjZmq+9oi9csjQzl29LxgBY1yEse1vTtC/Qgj42FsaEqEDk40r8773SKvqscSoxFGPagPnqCubdZ5BOTD6C914KFCWvQjvvxapm0Ss8A6MNGzYc96bL24T8e4ZvIp7bK0D+lq6DIWzAD4ZmzZfzgO8ro/b9WBu97fyk7F1QnHgsR+m4aGc2zXkP66YRcq3cdGL7CnEavHN/7Vq3ALjLjx8QfebCUDys4fuijZfTAg2V/slVmGRxnMXledDjWkK/kQoYmVrR8ODuDlXdlL1D6Y/LjsZ1+t6sOVxGeFqB5ujxpUQaS1mFTBqLPVnafB1yHTgBNlEVjtxade5Lo3J3W3K7yHxMs65AmnaTabxcY7ZEioBt2VEregVJVuTDWF4rfEKvjNt31LgpiEcanViS3UoMmVD8xttW2ESx4VEfy6+kk+01bAmlTlyuNPm2z2kdfT781j63pSBCfnCGXfGy6FDV+pYQyQ7DDFflaviOYTyco6cLjMhwGNCihUoKhKfJjxmtd+jWRYw7dGEszngpUB8acuDvytlnaNMabcxUyJVVynPO4JZf1wmmEvPTNNP25+/CDZTePg9FeQO9bA35ablsab4nCRwcXZWupFayIO9F6njzxoVI+9PEye/RxDfBM/OQtzVXPj8XxbjaSgH6Upw80SycJGrq3qAA2Dr6cyobRqZFnoy488XiZvPc9ZcaXaWqRYO4tOciYnUgNPNEEWBa2Jz+O+tCZMAfFamIcAx5g5RJCAK85SXOikY1jJVJewzYw0ApHcblirTpUZkClg5UXkvWojudPdzR63XWwqtE5XcS7pLUv+uWPQCGIBdejx+O2gSlnHZLPWGlAN6I6PubFklJObeNFj81M708yiUDSANuPwQiSBjCW+B7E8JEE0+lbNNphc3Tq8CRAfdGfR6QuIshEFTrE3ActdMIfGJc53KgdY+Kq3KgnTQSSN+exhaxLXhWc4IP2RetZ6yq0fsoM8uuc08W07E3mZXfCD3NNy3TGzyGPy/jhh3XweU8pjz1Yts/sMHHqowpq4BDSqYNVy91FwCHlAsrFnUj+ecqeDjExN2z5As3Bex4vg49+pJR3PFaWfEecjLytyRjyOc4hp0dNsgIkP1J+OMRE5qRj9HCMND/0utgqJWgNf8XXA12bKofUlEYm4DoB/oamrRMHe/CfNEQ/9GQtKg274O7Qc8OJoJ3Y6xvY6b4Gll/HqkxNIvBlOVr2r5Zd+wDMpTz9upzyGsh+WlwBiepuWSiP7Nx8/Oe+or98FOcthYNDWoX14VTdc5zWd03n9TGYpeaBAzZSJ0mzDZsUcJ56Ccq5aIEzD7+8yWfKp/6J21nZHyuAbk3K+IGHytkPfagMPvbhMn/0Aa3hkGOMjhwDur5qelrhxAJkANOEYaqRMawSf/yQm8DndGpUgBx+/OPl/Mc+USYPP1r2ZcDZgif5dcxXOwdILWL+csLyRncL6UhAN8HOa5DIqDspp5QMntmmxQwMLYpsoFV70kR4SKIP6MED0CRoQfFlk2WpH5Whp06+vERW5T0R8CByoUVfYZfIB8ZJ4SCu2oUxHIBORj8Glxmf6a0tZIN1udCEWe74Glrbb9dXpgLzM0aXGG1ty2lR4HyVgd3zTZQTA/Sp8lHR/uBS6E+Z2wsxjHqrQWnHS6ZC2GHVHmkTenDaYeNrFROQiVjmI6/Ekk6ZL8xt6fQBhK7hp0jjy2a4Gtya6rJa9uUHufbvv7+MP/SBcvbjHy1b73tvmZ+/IA46Iwl5CSY1eFrhRANkN3BnYpKyw5lyfO0Rv0+xeM8T5dKv/3qZvOfdZf/C+XJLjrKvbYp5BTWl/uunOXIx2b15g78GASZSeTuH88ET3CGLuhVHazAh5Le6BM18TbtchIBl17rUL/lqAYkeU61GaOUVJu1NQ/RHPwSGXGBVQ9etQ7sBdCdv6xO69XU96qWqXGnOB1DypTP9VRt0dmh0wF7dxicZJOTb+TFfre/6h1bpRo/RrFFRITgDaMeCBxqWuwCSa70kW92lXqF/cBjEY4xCjKOWI+3z1rPjDUj+rHcLl/ugmvUAc8/lcV4+q1bYGkflyp9tEihnsO7Go9y+1OJ5xjMzBcqp+M5eLIP3va+c+exvlsmHPlxGlx/UReK2FnzINq7BQcrpg/CSEwCZWn+IBzHQSuJXvuljPt4q5aFHy7aO5ZMPfrDM3/WucvP8+XJ7ONFJUpMih+cHyEHaMVk5YYAXTIWcg1wsCRGsYqGFE0DMxae05lsIvipQQBZM2Y14t13Ro6ZJs3Mp38rD26g1Cy/ZvmF5s5AiUZz+u8+EKx9dZj7QrH4N8JirvfO0GbZfXbTrKuc4Q67sekg/CR1v8xp9OHsAzN/KqmXAtLBq6KQX+6F4EglgUPMkSf1dA/pr+krZMWYh/+SF1MQYVv0OsIoVep2xS8gFTG/usyKrZqMPehehrWfMURdp5F2MBFrjy9GHTtqVN+v42rbZ1qhM1P/2QjoMd8r2O54oW5/4VNn+zG+U8q7HdbQ8W0bcFqP7xAayeEjVqYITC5CADux6lYFlUL+RXS1BpyBFhawy29al9qPvKDsczT/xsTJ/57vK3vY5BUUeJRAXp8mRHKAuzvWJzwlN4JlJTnRMLnAggNX21HNZw+Me5L0wwUNkJw2wPP1lm65tlZuYNGClnPVOXX2iQBfWUbbzZVyjF2PhOdOAg8pAwQTwxbiBXCxho6xzfWezCMpdfU1z/EDqgD4rc1DrEpMOAkiP/qxAV+dLRC3a0HoVcr6QZ53kH75XeZD1TUGMnXErQTxjoB9B9/FD+q/2ApPWYksHQk7vzyD9tDLaNr7MVpr28zfGc4lcZSA256S9JA+59NfbCv+Abh2EnArnMvNUq/em5Ewv3lcufuxT5eJv/HZZvu+DpVy4LAHqZ9FfVR0GWOUum/+uQ1jrpKB+tomz38wpUxpG4Q0b7mEQAjV9pZy/6I8knfnkJ3Wa/KiO6I+JeavwfaM6P5bFiFBaGwt6R+idKCFYKiPApDZl61AdJzAcxw5Q61baHwJZm04DIjf1CRkB6/qtgJWJ7ImB5Hucvt+V4+07vVP3zVCC1wTGTIHs6tgDWXAxPENjA7emsTDs1NsQWLdX1oHupy7mRnq0df1q24RWt2yX72rfTUC+Azd9VFWkeddPkPp86OTiAThAbwjZNiHzkUZgS9l5ag7IfJxisVlPoxgp9W5fS53+ovl2kub3poLk7iP3l/HHfq2MPvlpXWL/Wpmev7/scjDinRwW+T0OJxsgsY+QhOAIyrWxcqAcCTtOpMZye7sMH32knPvYR8sjn/hEeez9HyrnL9ynjWjkN21mau3JZ9KYpLpIuoXR0Xj/RycJBYPcDWMhOBtQZVheM/EuV4CcQVOllTro2ScIj/PqL/VKflJoqZvptd6XPOYx68lBlR86Rd/ZZ2wQ6QYHFTmUT7QMsIzdJ2Hnow+PTeOlHFzBl3NlhOZXIOyQ9JQBZjnTuMcY5ZibPlWFFm97ydr3AHgeatvuEy+JdwlCN6H/e13Rhf6wVWc7v6YKUb+KUe/bQNWvAOo8Vtv4YLu8FA92tIA9dUkMOXEV07fJy/aOX8i8QwN8L5OvQ5vq0HJup5z78PvKA5/7TCnveU8p9z3k71/gwyBzP7IindUmejsCXrPy7YeTDZBIl7G46InTYu0QWydioXraKLqsLg+/o4w+/Zmy/Nyny+5H3ld2L513EN3a5xzJxGkCF7pc0OlyPFeq/MjX7nKYIe98+zuM1UYTzGWUnIhvoLMOkjNg95vO/DgR32geX/KpChZWRWjqxafbsRxjrPbIoU3yj3AcIfLch2VDVz+c0linkoVuLosu70JLfy39QAuUbv2N/DppD4UjtVd14DEAkXZ/DGRbBo28NFPKJxVkM2Xn/AY2Y0dfcKYa9TdUZT4lYDF1PCAP/3qctWz9+QIDlzWvA21EfKdn/SPnsmS6DvuJFhh2GFOnfrCHvyKrfsIHewVSL2nm69PIhy/ZplU2eeYEWbTnQez4Q5+qx2E6CtU07CZkKXfl14CsdvDo2kIQyrz2CVCD4kta+PSMJ5k0mfEL5bHHBP0YQ7VJonWvdOxlmzE+pbYntlTqecgxYSelfCDAY63z6nay60RrBzuiq/59yb+Qbvw0wlKHEC6JWSvUxqs0Vrstf1JGcnm0Bxfi93a2L5et93647Hz286V8VgHycV3x7QzjOWa3jfcY7gh3sPfbDccYwZuAOng6ITji3LiuK9iRjPrXrPtwwv2jcxe8Gw0/9Yky/o1fL8t3P17mZ887djngyfm4zzQZTZRqmeAQ9CBnCGRy8EJNLyveU2Vy5HFs6pxC7zSKJpG4HhbvpKZQJpAHKuwEraYAw1k/aXU0dAM0RPmpF2P8RgmBiZSehSHq2ND3H7kWUqZrZQvWhkkGUePffPEtP0KSaiNPj81qoulZHbnIx71AFcQcb+CQyq5OVTRqlshYTm0ojFMKZfGDauMTi+Xz2igNnyDuHVZZAp8KQZWzXVShS8iMb7AJ3eCiTWxXFSzvEJCcKtHYQvS+Cu6m043G9BEnKSqZJZ8G2WREipNbL7/Hhk6qlzzFdTZTMeRWG7k+xhuo/sTA9PhZYvigict6iN33IQmUfPpH0Y9bYSAnQXhYL2PhUAuQTQh7Dc+fL+Wdj5dLn/5s2f7kp0p597vL/L6L9msCOB8qDk2ZR2t2zwKWfdsB95npdcaE8QNfZ3f8HNWDn/98uf9Tny7zJ95bbpy/oAnaV6DcLbPl7bJbbpXd4Z4fUp3jZJqW0WJHA9rW5GqSmWBOaZK30ImNCTcqz7eOkNJuJgemX/JBj8+LQ+MmdOgFj1DbOR/Ep35aafQFzbpzWV/bQ6MPy3ZdyOeb1fnhLp4js4OiB/0iV+gZAd8MyEmlmhaFHJu8/tCL/nPs1tW6h/6pb9qMlLocH2m0C4TG2HT2CDvV9ilLh42wGTwHELuG/UJO5JER7VmklZb2z36Uen66ci8rEbsii3rzWp8IiG6nQDBVQGgvW980qB/t2IoOOoNhO49T/WkCOrtVe6LDvoLSFJ3EF34If49phxaZF+qmGgnoMZk/7BiyYh48b7Uu9TCf2rAxs1kMRkQ0NchNQ+nt0bjsC/nKMsY04hNty/2yt3+z3Jxr1ekqbfDoAzq8fLxs/5ZOjh98Xyn8lKsOLLYkL5xYlUjyPQ9v+xiwp6bMqU7v/MZh2WPiLmiXet/7y9nPfq6c/dzvlMEHP1QmF8+XmY6i05HcY7SrWdhTuz0JYHfTJcV8W5M56RZDOuQcx8BZTI/F7kDgesoSUXkdtFSONtHOJz1QTgUfmKcPBxzVJb8XLKfMhg+0fPH50p/LVdF8UhIdZ7WekuUZUXJcCPsF0MwTWi855du+/OQYYT2tQywkUgfMSgt68kXZdrD+UZe05G/LK3Jogz0yXUPs4Dmo9mSR9u3FIxv2OlR6oxNp2tMBwbQoJ0+rg/mhMw5ku6z+q23uGkhu9ms96MdjjPGlLh5vtb31hzfHkVjbt2i5ruvHGjY9ON6gV3tQzgCpvE+a9V5jnjR91aP8XMERfVVSkOMsOS17s1vlNiH54plyXgHxvs99pkx+97OlfFjB8f6LZVfBkeeaO0uSEdLVvQ7Y4W0FjBiTEUh5rsvm/dF2PC7woY+W+3/398ul3/q9MvzIJ8rew4+V29tnylQzPZotymR/Wram+2U81xTx8USCj/6X3F+TZ3APRV4T6BWiS3R5Gfd38r6O79GoymVOXZRdD8Ir1N8Y5J6RNEY298egtbKkWFlyr9Ky6E9EYVf2vb+FdChlSw5pWRq1/6jv3ex1gx2yaU4ZmWCOk4Dg4Cmk37hBEX37fqRsk3YjwGI30oHsHTR4Yiwet9pyP4zUsiyn9tf0m9i1cbvVtiD31HwvV1q1dNqZFx1rH3kfzvc1zcc8SobqunEqhe7L3kqDZ6KTPCSD6DR5o9Bd8uJ7Ob+dfjHOsEWc6KFvyY9MZ7zQq30SoaXvdCjZ1FlulR38ITfR8pRy/zjsIj5hjt86YEfWkOZ0xL1J/ekarJzfn5Wz+/tlMtXBQ+tqfz4tNxQwdx94sAw+/Gvl8hf+Ydn+3d8rFz7x66U88FCZDnc08Imk0wfGEKZdfwngbQ+QQCxOJg1TKxUu5UDLsYx//0OlvPcD5dLvaFJ+/5+UrU9+rgze+f6yP7lQFnMtj/1F2aad36DZk9PPPPm8M+6FIwcKlLOojGPZaXAQtcORu0DpvHiYbPLwmbfymR6LOBaw3M4Ois4hl3a5QMj7DYTq4NRP0EkBp9MLHtX5Ho/5RFByXHAQjGwPufJJdEpxUhcHb87QL2OMvlmc2CZ08Zsz6Kj6TLtxwUcelAyCT9rJZcuiL2iak7qQV9pTJ7QM5JOvbcAIKArS8CnPfHiuqgyj5LR58xkzaHDfTHJANjLp5bzqeFOEuaJPaVQDo141Fv0fG9r7gZnX0Uv9SCf1hy0c0Jh3+ncgCp06fZX3OEGXa15oukS2mOPtAmC1rW1W2zOuXkb04X6wSfJib+lEWLPtsRFBUvmLCozbu7fLcDott6ezcpNv2Xr0HeX8p3+jXPjt3ytbv/OPSvnIJ8vo/kfUyRlJIKxid/yBFyEvaZN7HE5FgLQamkT8lAmzsYULjv07Z0q578FSPvDhUn77C56kC5/6fNl+36+V2aWHyt7kbLkx49tEZmU+UeRRYzuOFgKhwX/IllyfTmreu2ntJ9E06WCsjuh8/WORRjCX06kEkucMiO7xVVb0DSd8olH2JQt80Y8frVCd757XwBmOnhxvDBDJ8CwCB62Xrn6DwmOJ8eQ40Q9WLzyaMBaflnsMe4lhHSWjLRNq3C3y9Oo3BFwnYzepH9NxOWh+s8L6VKzte/tXdL7qaR701UuVlfzO6882JdBia1pAVzVt/RylMN4MCojLzVp4I0Df0pPgPtFlKqdDglTqZV+gN/H4a+Y07/7KMeuC3tgh9APDJ1bnApr/bJO0gTL67zHGz1/aKjD8NG2CPlxlMb/4h7/tX/UDXYlxK2qPH/u/7/6yePd7y5lP/ka57x/oKk5rr3xUJ8dH3iWBOrzwNIm0ItByWrUCVTGN2Hivw+kYQXpmnWwmjyBpEhpuaf/knuR73lvOffZz5f5//E/LY//tvygXPv875da73lWem0zKywoEN0eDsqtrQrla90YIKfdrliMe68AJNK/qLurjfmGi69TfCoo2kwOvYJW9gnyziRw/ZAxU5s2DuN8VgQo5i7IvvnhjYVH25Iz7s6nb+SLPnlxtcUxouSXBiAw+6eA3J+SwIIESPXi8iFMlerVjR4f4RujVcWn52m4g962cd9BVXw1iz7nkrKDagtxXjP7VTmKyDTqwOMN+6hvbWIew2zoik3rPndN6r3IFmfuQkXbu5FGvNAKCdJGcBPJN8fWD5AKhW/iCx1N1ni1999N9234NThfyAwemGBtvIK3onyhab9eYM4/DY+ox7Jh917z4aWOaZXM/UraXP/AFMbek3w3VvyD68+NxeZXvdNSpkXX20P/4fy+T3/19HVI+VKaXLpfbvJHKgD2JyhLg1c7BkbnGEALV3vOgDehNucWbBjrnVhfPGsYurAKW1RxABzil8Ud5pNNiuX6tlOeeK9Mf/aDc+O53ylXh6OWXyvLqlVJuXC+j/T1tyJo5Dc2XP4h1GWmVRh8HZtAMayBFDiOvAc+TAT6x6GTik1GeUFABHfTC05xc8iyFU3h0GXbmwn1l/3OfKg/8T/+3co5LmJE2g9wh7gCEsBgG9pFc5cYa/+43v1pe/KP/T9n78z8t86d+ooP4WX/cjEdyrJ94OUGlydENOf2ZKsBDTxfBbk4rvYHVVgG2OT0dqJSNKo1+hwPNvlK7IvajMvtsgcXX0OPSdo0vfUVVBERquXTk1gb68GNSe7qUmDz2jnLhC/+0XP4nv1dGv/GZMt+5oLHrjKYGiwGhpJ7oGQLx4BBIXZxee7Usn/xuefr/+f8uw7/9UilXX5BteRNRcurzh7y77BYeezWAKDx8TZkPN5C2YzwIbSBXhltRtZSQ9uvZYg5sGRPRg41EPDo4oNdQh4zx2XNl8cADZfzoI2X8xBPlzAc/WM4rKA7e+Z54/G5rXKY6HWOSLb3ECNCBQngicn29BBNwhO3uFXjbAyR2vC3k4dIJJe1uGJ3n9ljwMQ31kkA7IacQ6gcKAkMC5dPPlOV3nyzL7/+o3P7hj8v+878o+9dfLPOZeDU035wHvMtJkopc/vnZL/fegCordwdhnXXqQeDZSGTinHySJ5wynN0iarrQQFiwqMNtKu5Nnb94f7n5mY+VS//j/1DOfu4LUvDc63CsHEMESEqTxbTMv/Ot8up//P+W2V//uQLkU14ABEY+pz4eK49u4md8PiWir/46e60B/F54gsNc5jBasIfsDpDjhP5Fd5XmQ8HLOlCfG8sa+CvwujarOvWgsoyQ7w4D2Js3xJDPqVrbZ9l69B3lgd/752X7936rlE98vMwUIHmj4o0GyPn1V8ryx0+Wl/7wj8vkK18pyyvPKfDtuvlYkZpbF360SjpZLfRWuzqUA+NdsdkhQD0ch332vNMrCs4zsGp5j5ErgX3Z3LexJuNy5tLFcvahh2SLz5SLH/pgKQqQ5dHHSrnvgTIbb2szpTWBPD6wMdeKZQ/XiEzDh7AZ4ZHLbh1RQy3Uu4fh1Jwg8UHONQGR8pqU8NFwCtDLm533psLrKzo5vnyl3H7hxTJ44dkyefnZcnt31/PDKYl7PA5eLmsRdM6Z0gOoPwxwrRYO4/PPDVRT+hQJ0rdoeZolcM5GcT+KrucO2pKunXv2+DvLmV//eNl64r1lPj5TxgP/gsdrQ5WDQmwoOCkrejTbK0W22P/ek+X2D35Qps8/X3ZUx/dOclrxfVGdJnPmI1kpdBALsQYukM7oz+MKy/gRkUPA9q2dYBvadPf9LCuB2RTAa/F9zSqEHgA2BbEx0MrynCtnzelXek64xaL8lI/JaZMdXLq/jD7xm+XM+/hR+wcVJCayYZVNP0qtKYJ64YcCcge7N0t55uly69vfKXs//WkZ3rqpwByfJUnrsDmiCwEqbZZjyHGFDRSANE9Q0u7rgFoAH61MnnU+xp+MdjVJhAf/ZKysO57HHO5Myrn7LpfJgw+Wvfd+uGxdulQGFy+WsrPj73n0BzgkKGYJJMc5EUha1sRfJUG4p+FtD5DHh34iVoCZnyoAcWLcVWC4pmB5VZfbe7yjrdkBWSRyBE8fjllph4l745Dy9JL9ct+OsgOksvX+n4H+7bUKNFzmXDhfxuzg2smnajfR37GAYUkszs6Zmx19yOU+tnj1Wlm+fLXMb97Qri5Gxo4u6MApl/ydAB3rog2EqBfrX9vbpkoZzgGoRObAwUD9poxMDm13CGQ7UsniTQ4/7GxylbcC6ChE17x85aOS8J7RpvTQ42V8SZeO2wQBsQojNLpYc8eE2VSb9bUyffmVMr12o2xJN98lse0qMgczoS73bTPrp3LatgXewAGYK+pofhhwVZXtk0+JwW30wj+3HtxH8kaWh+k5QU4u6Krl/IWyuPhQGfAIVF0nBFnaIcriKqD9rwL8cgRIV2m2yXN6mgtxvAxGuZABghZkhn2IuDcMbR+AnbDpn/7sdLEbu1wDpHUaaTltn9G14ERhTpfptemdgF6REr2zr0eQHPB58/2KXoT0AwupMl6g652o7kh3EG+y0972q7w51iPbCpI/bZLp64Vs1/af0MrMfM4LZTDbDbUBjc86OLDaefPIb3jAKuysk4Q7gN8A4Zvw+YZt4SQDMwLcvs4UJAitfs6vdeINXdDVueFByPYpbx3SRvhY13eT+jirDHYYyybLZmPO4CzI3jPFPr8KcM8GyC4n9b0z1mouNf0xqRXo24VX5GtLf7OAxJDnS4w18E6svwWBnH+x8mwiNdC5d9MBzQ+KOAC05lYPEOzIIkhSVm1uHqr075G7ABym4eEQLbId0Lbs5QW0fMeF19t2lf9wW7fQl+D1ZafAj2flDUEh7+gmJyTbsCXcAbQll10h2x8nR1ItLvcI+LPwzqW4FBrzvw7JnXV968Oh5YtxRikBr4DDWMm4ItnAkMC3hAelwlqATAjqLz/c0wHS6ABpkoFfQPRkQztsZEkX3s1Jbq2Y+kDLfG70U62cepZYARZUPujrJhDuAMjg0hr+CIoCiMJ4nCX6gs7DwaljZ69ME2r9AVjnOwwOaduNP9uv8xxFPy6ofR60gAN2X5O/QodG0FJe523biTft/Oyn8iv2dOa1gXkA/ZA2BNqBgNo7GAkJTscQdxBS1jqsC4MvaW2bw/ha3gQGLmjDQlya/2rCPX2JnZSWinv744XHgVVxbw2gmhAVWVCpP4sK3/TbCxBej1OmEDBBwnjUxYsWJLMOh3XRygBeiyfr1tscBvAexncU/Thwp7avpZ/q8jGgrCalCdgFyONCCkphQAoEUnDWZ3rcTlq5Lay3zz7X+Q/jayHbHWNj/lWCeypAxuXDQWAAnABII8icYuDrWBgFSV2FcQhibJxlGAX4Ot6kyRnMtHbh+2q1GI9jbKCHeCzqMKjmO6L2DnBgOalcBVHzhmTeDXitzqmr9f5AQIW3TddTBPdMgIzwGAGym7jUnIlVkrECvjvBipy3EPyluL7WqhqQ+rorNY9Axmdc7wg0aeNeO6DMKw2pmwC5CtxzO3wrPcyMd4KwccwhbSIX0N8TBA7f5E8aos/wrl6XoPeInnGETB0zXWkEdBW/3HBPBcj++TQTAkhjdg15P+k48HbMMe8yu1+Od2BCHQOBjCFxL+xYwGDrQHyfy62bjaTa56jT0q8qYI2423gQjnCt14R+awtIGQCBZxXa2rcGRtWv0HE9SOJpMU4CZP9mDtBpvq7y+pB+SeGeCpB8joLJdOhA61bzbsJUe5wRvU2jvjViFLzTybfKyHFzHNKfAJf3JY95gW3mbBefMwmByI4PhQkWOhW0wXgDAUeZhLlQAgLHslzbAMAfs7yeUvdWQ26k67imG59AAloWQ/IldBW/3HAP3YOMOVqZl9R8fbJO8Yj4IlOA3XrFASscNaQ7Ae2ibcpfk0EU3cAq3MEkWPJ1WW198rJ8GmF9YHWw60P4VYd7KkBuYAMb2MBbCZvrrg1sYAMbOAI2AXIDG9jABo6ATYDcwAY2sIEjYBMgN7CBDWzgCNgEyA1sYAMbOAI2AXIDG9jABo6ATYDcwAY2sIEjYBMgN7CBDWzgCLh3HhRHy/q0Pz+Zll8NEMCnUvxFZ7UsSP5EwG1BEQbxBQL1OyICMgX8s2zwaQ9pv3qs5WnbstU0bAf4MvVnCxvIT7goaWtaURvYwAbeHrgHP0mDuvmRe4BQoujkL3+IIt/enCGmHRz5+EqB/NoLfoo9gDS/c4U0PtOckDUBydW/rvYDhLwespx8UddyrMpYrdnABjbwdsA99GUV8YUMfFdPHNZEgeivsIFSgcgyjADYf1N0Bh9yfK8NMjhxxq/f9fVA/xlpkF8djoAZkLyRwhHlsfJR6iHL2TZk9rqu8sPVU9ZlbWADG3jr4Z4JkATHqYLIWMg31sWlscKItVdKRAFN1wsHSl0a0y6CGUGRkMaPWvGtQDAo/ElQfBNONCXMEcTchzC+4RsJlWDIc2i0Afl2niZMr0DygNFD5gNCbATirosjpW1gAxt4q+CeCZCcCWdCwkYESIWSev+OA2QGuS2NZpA/Wg6zkAGak0CXvzan4GiqeRTwFCgJT/GnmoyA0UVAZyk6qVLNDEkvXX0DWQ8KkoU0Mc66pBEkgxn9NrCBDbydMJjP5zpoxeo9TT/O4x9Ulz6pEz/877ghIKZlOOE7ECM4xts2nOR2FGPW4xU/hhU/s9pUIA+UQP/Ilf4IvMQ+xz+1WY5DVkszkM/2An7fxPFUL/7J1lpPW2RHs2WZmIncwr8ZQzhOUXHCzVIfIHMPe6vnp907ybfzsQ6H6Zht3mpY951Wt/Ux8QP+8OcP+UNb13u9XVuXsN7mzUIrr9Wp7eO1+tS69pioT77WLq/V9qSBvtdhXb+3AtbnPXWAljoORDio7SkAFEyDxSAYQK2LkpAwIx6V82I6zpiTSoNLKVGKnCOdsoL8QSuxKBTNhEhV9ILH9zSFSpdjfvGYPqRHVxdCHPhA5dOI1I5EyN+AWSpicjpFM3i2+E0amjMYt08taUMvAelDjP8wh3qrAR3SiRIPg+RJfuAo3pOG9X5Tn4R2MaTO2SbL6/mElrflu9vQymz7fD1Au8P0z+DwdkA7DoI58Hbok3ZJe6zb1yfI2WxWwLfTYOuQik8mkzIa5bvNoilDTR2WghY/jr9Xyt6u0n1XLBmomSjQUjvDQCFwZ6eUM2fLYsydTDnbQrvsdK8Mb98sA6VF5Thlyg7+gX9S0SwM24g2lJzhuAzOnStL6TZVX0zv9myvzG9Kjuw4mkdgL0vV+OSr9ogbScbonAa1VcoYWVp4oMMzwbG+hUN3TpZlOp3aFswPdjhpSLvjC+kwtv8xFybtCTzoTQqkX1F3XDlvFugT36FP8qQsxLQn+RxXi2P5RqsjefgBxrO3t9cF1myT9W27NwutTPrKuc8+Ew7rM/XLFFn4D2Nug9Hd1Pf1AP1i59QB/dCVuUE/aIknCfRJ3+gB4C/o1dpe63m2fOmll8qtW7fc4LRAGurSpUvl8uXLZUvKEzIIkDHFxBzlZNRy/XopL75Uyksvl3L7tk9sQ8boccpRFNT2trRY7r+/nHnXO0u5cE7BUZW7t0t55eWy/9yzZXD9apngPBhH/dJmPhiWMXqYRnlU9kUv5y+UM48/Xsr99+lIOC776m/rpVfK4mc/K3vXb5TRbOGfTBgQIDk7qn4w1iRMdL3+jneXculyKQqwmg2pJwcZELBjknAJx2NlmA/mZnd31/l07pMEbI6TbG9vG3Gara2tbqFRf9TiSse6rTlAb4IJYEcTZvuTBnQ+J/viO62uN7WBvfLKK16I+9pMMxiC8NEGX6M9NGyebcmzRl544QW3T7mkJwXIR8czZ86Us2fPeh6gJQKv1X/OB2NlTq5evWpfSt1TxlsJ9H3+/Ply3333dUEfPdHt2rVrti2YAfQkgfGnjYD7FR8uXrzY2cf++rOf/Wz5d3/3d+Xpp5/2LtM2eDsBh8Qh3vve95Zf+7VfK48++qgMe04hkXOVw14Z6uS4ePqZcuvJH5bbP/pxWb78apmINlzoNCwmnskWV9mXsW+e2Snb739vefjzn1OQekzBUSfOZ58tN7/3vXLl+98toytXyllFJh7X4bJ3pmA4VfA6M12UsYLpVL60L9ruSBwPPlje8alPlfLB95dy+aK0UUff/2HZ/cpXy9Vnniuj/alOkVMFdQU+nUq5fzoYySFVfvkDHyjn3/Pu8oCwSE7Z2lF/ESBxBwdH4UxjwGm+/OUvl5/+9KdvyQZG18BYjovtt3Xi3lGQZHESbB566KHyzne+sws864D/XNdm9aMf/ah8/etfL1dkU6BdiHd7UR7wV4k/s3OmPPHEE+XjH/94eeCBB3TRcLbMpdv3n3yyfOMb31DwflF63ig7Gh+LdKGNh6D48MMPl4/I196tzS/HiHwCDIHxhz/8Yfn2t79drt+44Q17oPrhXR7POozku+ekP3Nw9txZLeBL5RHp+ehjj5XL0jGDTAtspNDRHZ95Vn7+Xfn5T596qryqOUFnVtGw+YnXtwoIfI/Lvp/+9KftT8wBOj6pufnKV75SXn75ZW+sY9n3xG0rG2XM4zDw0Y9+tHzkIx8pD2hd4vfoNfjSl760/Hf/7t+V73znO+W2LlMPC5BBit1/PeomHEISb800cFjboxYNTvHZz362/O7vfqH8zhd+tzz48CNF50Vpsl/OKwANFBynf/vl8vyf/kmZ/ewHZXLzStnW5e9yGcfkkaLkcj7TqU9BUqe27V//THnsX/9Ppbz/1xQgb5TlN75cbv7lX5aX//JPVX5Vk6VJWY50AtTupXSmS+LtuRxQJ8H9kS6hl3tlf6HA+djj5ZF/+s/Lzuc/X4ZPfEALSMH8G18tz/zH/7XM5YhbV3Wa3VZQ1alxtBDq4DfQZfdUl+uDB3Ty/OB7yuU/+O2y9fnPlNsXFazLeb+xNI4Dp5hnZXc2Lc/Isf/9v//35W+1gb165VX1w4NOsUFgMs0G8eAApIl7sx4+Z1jyIDDHHGx1iapT9872jhbmOW9QONBv//Zvlw+8/33lgk7RODuBNAM3zvaUFuFf//Vflz/6oz8qv9Cm6zfXGgj/Idf3jW6tDxzlD0dBjE0bG4FhPNKJ62z5vd/7Qvnn//yfS+eP+VS40Eb1n//zfy5//Md/XH7wgx86eA+1AUaAiTHD+4//8R+U3/qt3yrvf/8H4iSh2us62fzN3/xN+bM/+7Py11/8Ynnl1VdiHJ2aMQ+rCzpt3o/t8DnoIe3Q8pOP07w2q51tB34ODOjI4eHShYsO7iunnqY9c/PVr361/G//+3/WvHyxPPPM013gPxJUZYtaTNjmDYGE0JS+QGyda/pf/st/aX8iSBLQ/9f/9J/K//w//798GOCUe7chbdJC2go8L3/+R//o98sf/MEflE/p8HPhwgVxqE5Os/y3//bf2oh70301isarwAAjd1hHAA64Doftboe9J3RQ5v+/ujML0qw67nzWt1dVbzS9A2LrBQkBElsDEqsWBMgaWwJhayIcMePwvDgmPDH2i+0Hz4PDYYdtjZcHv3iRsC0kzYQsjy1A0IBYmrWbHVoIQdP0vnd11/LVt87/l+fmV7e+ql7oLksz2Z117z1rnsw8efIs936svbU0Ws6Xcfy0FP0O+/znbrePnHuu0iqaNce9e6wtL2VkoxRWSls6vNdqHY08qrMtj4xpMbV35YlNKk994Vk2ePV1tupr/8nso1eYjY9Yd9OzNvb4E3bwsYetM35QnkdZHmTJik2NrDKQjZI6kJ+VbMtYNkR8wzotGc5V59uKO79oVdFma9Zpmq/0m5+z3f/8fWu9/rpVD+6TZ4hRlYeh/KW2FFf8acrwVTrD1j1vhQ1e/wkbvPF6K3/iKrOzzvFtIprGMqV1Wxqsmvbee+/ZX/3VX9njP/qR7du/TwZI/nMfq4qzyCOUP8/XmdPzqY6YB4IIp4QiHpIQQ4jnskqe92WXX26XXfpxu/qqq+yiiy5yT4v0ICM/nsAjjzxi9913n23d9v6s8u6HPBlB02x6mE83BWGIkg4W5eFjUD5/++ft7rvvtmuvuVae4VL3wL/3vX+2b33rW/bmW2/aIXkqaRqX1iExlperbV/60pdkJD/jxrIoYVD2kUOH7dFHH7UHHnhAsnjcDigv3mOeRIxjv8dDXkiL4EQmf6anm4qf6rD5tPSjkgw/4YsWneVe/OWXX2ZXydBce/U1tmL5cpcDMMU/L8DlLifIvvu//5cbeAwQMkm0pTR5GBAfqJwoipqiZTpk1ZwYyJerh3Ywvf7Upz5lX/va1+zKK+WwyBNuyO5857vftb/+67/W7OO93NKMX6bBbLScCgRf8hADe0Fyxhu//fbb3XDjBDDzUK608MXID1Eo0fj42DRk7WJ8HCRuZnxgXfnr9ek4Ojo2A2fmna3MiYymhqN3bgTG+UbZKTsyZvbu+3Zs00tWf+MtG9TUepFcy3ltmbeGpskyrrJPVtH0uDzZtVpLnqA8v7KMFZNzBzqGvE35izJa8jpk+GqNAaFZTQat3JaBFQ0deXJ4JgUxs6T6y6qnrHQVlek/pyqD6u9rC4rylkoyYpVmW+V0baiZsNaSCy9ZVGTdhibHrbZnr7VeedPqz75ktm2X2cS4OqjsrIpT0daS54thAuBDUwqU1pHGXR6B8G4mj0f9OjaW4lh3475fNvU6+fv5HulVjqagrAmNjBy1w4cP2/Yd230QfVheGJ7YsxqUtm/f7vQBKFt0OpB1pAnXm5l1QLe3RTRAB/RN6Vcep+eb3s4Mx0aVX5iVS7qGBtCm+NUSDdCH/rSEhOOdNKSrhI8pPXkpA36ia6kj5TpT1iFpn8tCSDra1i8L51uPNuii/4gm4j3d7O2i/SGnuIasSc+yBR4vcvjgg22+fPHggw/ZgzLYIQf0A76HHPLQlA5DM3LP15+nP6HisvrzdEX6PE6TwXEwtYX0qd3UEevp6Hd4spCLfLBBeV1P9U9hlHEyzLfxRBj6MKH02C90Fl0JmhC+Br0YsRQyna8O6EsYX2VL6WaBbm5UCoyy8zgTZisv7TK2NT0ObKk82TBWnM327LTWT7bY2I/fsPaOrTbcnLBBFc2EiHqxLSW8P4WB1NqV8er4IUVhSXUWU3kdJShoZCvL86jIaJZBjSju/HJ4UunkkCqNylO5mC3Vkjw5HgrqeAVZzaKMKRZc3ib72uUBGUWNxhVhWXnLZSmEsF1Vu5pHrbF7h41v+bHZ1q1mh+RxyvIznnEcKP2f4gu8TYJLbZni42w8RvHSfVz1vyeTPM4A8qjhkYeyuFI3SkunZ636tddes6efftrXGlEqFH6q/oSzddQpSOHRFkZw7zDUnXWcSJOH/jo8r19THq75Wcu0EvSA54SXCW3c4yFDBWWQj6kqkGhHGlN1pvKdkSpKhUF8DiJN4rmHEJjiMjwekCzlDUypYR88ZJnCjbyMM8ssx44d9QGLNTuMJPJgvRqA9oCgPTECXZmqBz73COth8DLfFng0E6LsE2G+0dPCBU5D9kw9yCJkR3+n3UFroOd1Ok+CqcGnBMi5jT6Iv/Au6qKMDjQkAlOgi96FMoWpEP/rN9G5CMvjbIBgHV0hE84G/WWBSTjeWj3LmHWZ5uqhPW7Nvdvs2Ac/sea+bVaaPCyjJo+goJFHxq9VxvDJWMm4tUEZLO47imsXZMBkzBoD8iJIr+emo8qWUfN/MnIt0MOb1hUOKH5AxpUzjaRRrOfrlPVUbdl4VUairNCiyrZJa3Q1GnU0UprCVVZH+Zlet4ptG50/oPQdeTGjNr53lzXlETT27raOjLwaJ39WHrCsb4fptNodSpQkL8b0lCDxyfnaz2dFpGcMQkLP24P8/RR4DUrbbqdyUn1p0BEVbsAY5dmhZs369ddfl0fzgXsJAJ34eDI+EfR0SnVPDbSET8dpbZ3WXslGVx8EldDR2+zkC5PCJ15Gx8yV53lT2jSdZXc7GQbiAPoHcRiWjP3TAJqn+J2VmeU9GaS20WbyJfqzGC+XBEE3a6xAS7OkXbt220svv+QbeVu2bPEd+tS5p4P37V6ZqS42rbziPsy3I8kB7E821cbjostEiY8DpMHgT9WX8qF71BFp8kjajAChEvSucZ/hLBLKRwe6nuuG1GED0eE8KGw6Q50I1ZhGEbKmK0rDCFuuVHSva1nPFZ6z+1mwUq74Ij7oeT2caz9mebysdBYpsKwyklcjmuBEY8wmZVga+3ZauT5qFbZtMgPHcRt2oGVe5LLLOCk9DGhpikHegkYma05qqqtpcLdlJRk8drzZQ24268rDFIpjBqw1siHS9mM+NabqmjYX5S0V5IHAli7nLwc4UzepTqNre1J1KB2eptPqtSteRkNldCUMDVU22er4tF521Wpjkzby7jab3HdAhr5hZepTLtP0HrnQfoB1ITpv+pPEn4ymvCB1mDK8Eo9YxCcPO6xgj68Z3ys9ecHjdM1j4jk72GVfx4MGOjnh1BNrbExj9uzZ452S6R5TmqQ36YgNtCXZzawDJI7k0QnZEKKupG+pHOjgOegvCZ0udtcz9PZIP6qV1G7XTfEBfsAk6E2dKyl90vVUPnUD1EinaCtNdNiUJot3mvSkcI9LwU4zBhPvlzTOK8UHr9MRKfqKeKd0YXj7eZEwtTHuS5rNUF7KJz1QOMBzXGlTGqwO+s78Cy+8YPv37/e2pAEgtR3IWuL0RRjxqY4kiwhzfYIG14NK79lpy3QHhPeVqmQgDBvgYS6XTD6Ki/ZH27lSD7REe7iHFsLZ1SYNZUADeYjjmfiYYcAXrrSOeyCVl3SG9FFfyMHbAa0ZvcSjO6QlL7xgIMrzY5p1dAKkD1wBCGdUq9UG7eyzl9jKlatsia5Lly21pUuX2TJwmXD5cr8uzaGHK92ypUKuhOt+yZIlWdxyL4NnkLgob/lycIWHLVq00OYND9sQQmHUq8sgjsiLHKlrqirlLlRsslC1uq5NYVv3MmnyAqvyAnUt1eQ91sRGKR2vz/AmS0McUFGVjpjcwWfjXZqKDGzVsakyyN+xqgwE2/0yXR2V31X5ChtQuSXFF7pSpFbB5mnWX2zLMLRLMoYqr6gyVG99oCJUmSqbfN1u1YY686zWGrJyS+VMDliT9dRj42aTmpZLdzHvkjxCcBnkweWRG5UxcpyRYwOFc2XwccUK8RVe5zDxO0OXAfITZvE9FP9drrpfvPhsl3vqQFFvUmw6IV7jO++8414k0zvC0RuUjfOELHKnOtGNKSR8sR+9GfQmhmfAQEa5YaQohzad7bqR6E5lJBppQ+hN6BBplme6uER1sBNZUQeALjpAMsA0Iw36ru9Zh0vGn8WT6TBTCkkOGFQ3vng84g1l0emgGZqSDkNr4jU0BW0z+Z7Jo5dumeS40pE8C9QOBj83CBmfU0fm4HrdduzYYW+++aavUwY/p0Humby0nc0pgPRuDGXQ4dfisxbbkowO56v4mJ5T2DLR5v0dRF/QpYz/yMTTZe0OueTbxzOnCtjNDmMpAn2XPunMUtdhZE3bSU845xMZdJiK0z42LNEXmkYZ6AtlUja6Sz7ntdd5dq/+vM1K9Sx120YdZ521yBYuXJB56fRE/Xv00Ue7f/zHf+w7XeP1ib4RqKtKB+3yK66wCy+40GqDNVcYCHTFytIBM4SSAfHEeLwQgcTOYZpSsH6FkmZlgUrKOgSNXrfuEt+x+/ilH7clarzt3mNHH3zQRl54zmzPDis36k4LfplELZqoDO+OEUkKpfZgFzsw+JJ1tuxLXzZbc4kMpLyeH2+xiaees2PPPmeTRw9ascLut0ZsIcxpluTRaV5fVKEtvES8ypYMxqrzbcmtN1vlhqvNzlvlddibW2zvDx6y9ltbrDZyWFN9KS8jEptDQs5lttl8GZBRRbDCyZoM7wXn2wKVtfCWW0xSknGUcJSWRWOOzPzZn/2ZPfb4Y37kx3f3MuWGTSgVO/sXSDYIeBD50OYZ3Rx20Ln4j7GjE2GHYdZMQFYssr/33ru2XZ2PHV/WIDEyrpTSCzxUFI1TBr/1W7/lRyMwbky/MZqsUe7XfT8lyPvIkcPuedKxfWdeekDnZ8qDgjEgcpwFPEsdlo6RdqjD4wDRHTyPTL9cr9LbM3hcH8uOwlAGRzhY9P/Od75rf//3f2c/5uyrjLobRfRQeanjk5+80u6+5277zG23+Xk4r0+VHTl8xHex/+3f/s026Lpn716fQjKzgZ94k9B89uLF0tUr1EHjEDT8hbpklFJdTq1wCqLvoP/9fQA92Kf6du3a5frAZgWGhfZ7ufrLzvCll15qv/u7v2s33nije2HUT7nw+ynJ4v5v329PPPmkvb/1feUQ1R6XZlccizr77MV28cUX2/nnn+/5AchK3neiP+hzahVJfPRhyvOBRuj9kTDkSSIB4dBN2fAW2XAekt131gA3bd5kj2zYYAflEU82JjMdTXk50cIpjnd+8hPXLwZn9IZ2QBseJIP5Oeesso985CMyfCt8YCQ8aAPDzsBfJEMc+QEGdc5mXn3N1X4OlrOzpJpmIMekRJ5JBaA80IdV/fVf/y/2hS/cng7PZkqTKqEyLz8T/ExQModEJM/KRSDheobBQXykBTyNgFHND8lynEQGhx1rDNrEj9+y4sgheYVy3+gkMmoSgRuzjqbNbRghoWiI14xVRlhKVDj3PFt8w03WOe98a3aUb+c2K7z6ljXeeNMmxo/I80PdkkFjcttig4ZJr8pijXNAyuSe4tJzbFgGoXTJausuXuSHu9tSvMMvvGilbdusOnbU6mUpt3hVkPdZk1dZEls7MpAcPh/oyPUdaFujJAEuXWILr7jKhi7/pDR9AfME5wfGcIaBZIPKm0Xn6/qo+plbb7PPfOazdtllH3deoYjwuR/yvM0rTB5SmtQZ9u3bbw8++IA9qU7F0R12UOl06AfJkD3GaP369faHf/iHdu2117rM2LRhM4f1MI6N9QP0vf322/aNb3zDnnrqKU+LYaXzYHzxWBnxOXJx000329q1a7JzjGkjyIl0vaGRtAHZqz16giY6BWF41rwZEVM2lgXuv/9++9u//Vuvn915dI+0lI2B5NjJV++99+QGct/eZJDlaVA3h7mXyGu59GMfs//8a7+mwfxSb2viccYt562Tnv3JQwRMpSMf/ICfb775lozcU/bIww+7ofT2KgttZS2xrJnE6tWr7fd+7/fsc5/7nPfTZKCTEYDP93/n237MB53CW4d+KmOnH89q3bp14vkXhJ93YxM0RRuiHfzPNyLRkvjfc5jALJy+AUQZyB89hUZ47nIXLQxYDJwYQ4x25AHYmOIExfe//3179bVXfcDo1Sukrcwqbrjhej+idcUVn3DHjn6SaEtEiIKMPn+cAkWj88zEeBkFY5n4p/R5Azkqy8zImBqSOiFu82//9m/5mTKmA3h1SjRViW4hIBqTBwiKdKkxiZB+IC7yc0+ZCuBBoxFXGSsxVhNRW9BoWXPre9aVkvLWjL/OR9YuRj15phzsbhKovKwVuvcxpOn2/IVWuXCt1eVRIILK6CEb3LU3HThvTWgqLoMlQxsGUhfryIjwpR42bwaksCUZu/bQQiuf9xFrLV1sHXVAPrHWVodryEgOy3tknbRRbWt6LWMrg4qBHOCrFsWO1SsYGdGtibd8JxsYmmelJausuvJ8s3IVBol+pVPb3n9/m339639mjz6WDKTvGMMaT9PVdOgs++Kdd7nXc93662z+gvkuWOfhLNCTh7N4ZhrifdFaaY4cGbF/+Zfvu1F48cVNvnvtaz1ESv5MdeA1hvGP/uiP/PAvyp6XI2XlgSdi2XX9+v/8uh8XOnb0mDXUIVg3TIay7FNMzqP94i/+on1Cyr5Y3g3Gwt/8UAH5Oqa1iedMv5j6sj4IkAavBAP5N3/zN24gqVdDs8djRHhzAgN59z33nJKB9PJ9KtZ1mjmLePVVV8ub/u92zTXXSIypbuB48giYpvsZQDOGg/rf3/a+D1S80IH3O8FRGR9MeAsIjeDlsJX2m//tN/3M8MUXXZT6qSAM5LdlIH8kA7l161Yvl3AAQ8lU9vLLLrev/cev2T133+MzxTxv3flJJOoh0Rl8DoD0rBkOtMkfsyZNa1uWMHjk7VQQOdz+pAfR6JV53iefetLuu+8f7JlnNtq2bR+4HSGcdmCrOKPLIe9f+qVfkhd9k3v0eRpntEH/qD9mIQC8jOk1KaBjSooZkAlFTxY0AYrLFMtHCD37lryU1ZH0IrD3nEPSM1kFeS4pbTznMfJz73m9TKFoiHJkb+ws1vo0RS1eeJ4NXPMJ61x3vdn6W3T/Od1/xiZvuNEmr7/BWtfdaHbtjQq/2QrX3mrF9bpeca0NrvmYptHzbFjWcZFm4UM1eX8XrLHO9Ur7qc9aYf2tVrruZuve8GlrCtvrP63yr1MZ6618zadT3KeU9krVvXKZlfBOxA+m8MXhBTa8ep2Zpmnt66+3iU/drOutKhP6Pm0dlTFxw3XWvuYWK1z9Wate9Vmbd9WtNvyxa62y8mKzkkbttsTRlLJIUOiQWODXhHCeMKy2641ASoKya7qBJ8BRpcRnGfg+DD46z3Xtj+MaioJnyboUIz3emytLisoUPa0XoiuhJ1x59o5BPZn8pqHCYveU6Re0cE/6NsqucjBaKC3lT9YZSJB51iYvY0rX/B4aeM7qizgMbtzn66vImOHVuIGgk6kCDB3Tcgyd67jinU9OnzdvOqg8HywEyUuBcgWL5ig/6gad9hPgbOlSu9QfdF25fIU86bUyAqtsWDMhX94SzcyMukUZFZE5qVnTzj17bP+B/b5UhgGAr7TT5YEDIbpEug9c/g95qx3IlLYOsDlI2qztwYvUHzPaMln201xWGHkijOvU5pvSkifDCAsIGYZexjNlUlfQ5EdxRCvtmTK4U4Yy7YBj2FKZQY/TRFkZrdxHX6GOSIPOpLYn+VPOFJU5oGoYGMC0B+VJhKQFahT4dJCG9CMGGOR+quHTwb04DYrtMiN222oFKeOAprzyxApWt7JNWE1YFZY641bu1q3UnXQsK01RaTniw+fLGmWV5wOFWCBFK1TUOWpVK2vkLMvo5ZHwElOBDMt6ZrcuCUC8EaJ4BV785p3CQsuK3YYt1NR/UXvSqvIWTTQURM+gaBtuj1tN9BW6HOvB4sszFU2tUlfT8o41cdChT3xwfmdXFzz0qho6CDIBUbTgI/wNXvZjvxzyGDLwNUABHjfPeCpMTX2E9/AkH/13WpweQdB3KhC0niw90R+m3JNBHAKmbgDa/Z7ihYku1rU+PASFwQ9gruimTBwWPEKWC1jWAJJeSN0kf6rFeExKXrxkcaKqGQTds5ZhwMPCYJE+5EI5wae4xn1g/jmvW7Q50s+l7KaBF5nansqnXyQ+TdU5d3XPMJBeiRqoG39moZiFUV5R4mAwyEIvaxmni7j5YNzzSh3INC5eVs+DK57+Q9FAfdwa27fbhKZpnU0vmr34nNkLz+r6jHVe3Ch8xmzT80KFe9xz1nnheatvftEa775jNjrijWbU9RuujvzhqlqmIWERnmggrSePJFIO09S6+dO3rfPSZus8/7w1hK0XXxANogXc/II1Nz9v7U2iFdqg8eVN1trypk3u2Sm7Km9JhdFFOTLui9+ZwHtIlblnlJK3XThyA+/yvO3HPP8jXf4e/if5/tQ/ysDHDbYqjLVI3jxxBaTpqfm9+qNjnCrkjQhw/Lze2nQr6M/3YSEZkimjTtlMu4KXqdMn43k6kKfuw/DjROA8z+gD0rKXU+6sieWnlE4zPcmCKerxASplIBlghbFvQB/nzZK9+/a6PtDX87rRryvHQ3SINKw/w88zldkMUHEUmdgRsvMYB9/PyO7nCqavQYpJdEp3aWGg7oeH5/mL/6wxsZjrI9gZUEG5U43LGqg/MJMpHbtQLBhzXALoMZl0WI+De+zwc0/byOuvWuXgYavU05d72iUpuDwxkhVa0C4lYAKssnkrcHK4aoPr1trym24xu+BieZJpJJ4OswkUhYsGp3j/60G6w6PmFbWfbrG9T2+0SRmZ8thRszKjc8Uqbbnw6ngcFJ+sdazYlPdJZ2QjqVaxpni66JrrbNHV15gtXCjDnc64NVUmisomTVqD3JMMkuplCswgxmLy5R+/1K688pPOM2QVfO2H2cJoBPxlVhC7lV01idf0MIwvv/ySr9ft2MGXnuR9Z3LydS/d49WwSfMHf/AHviuJp3MiIH/adHjT28U72xxNaUmx8YppH2UsX7rM7rzzDvviXV+061Uuehd1nw7QWfGEv/vd79o3v/lN/yLPkaMjmWRVrv75Js0nPmn33vtVu+2WW/2DEHhX5IXGaWuQe/c4LfzmkeuzyFq1YqVdpfzsJLOjT97TpTcgPDEchtfffMP+8i//0p7euNHr7xlzVUEtvKP9lS9/2b70C78gWVxvixYu8Cku/ObjId+5nzXIH9l70il6CaaE8uk7g9WanbNihV115ZX2qZtu8tMQSV8wvKmeaIsHK2+qdSo8XdLG3Tr1M95lZ3MVW3ImAB3oBWuwf/+Nv/ePhXzwwXanC1sFKZyRXSn6OVFx9933SH63uC2BtjOVwUwDqc5CmbFJQyfgPNbKVSt95ykUtb/aKZZNQYRxBbiHgZSBcKiLhrabaReTxWIM8a233uod3vNEA5FTQ392f2Aj//I9OyBhV/fss5oMiQ+k6psdtopVywBnEd08JiPPR23H5w3a0CevsOX33GN26eWckdE0+8QdOgHURwsSSG3S9yRxQXVtjWlaz8cq/s+/Wv31N21oRJ2v27SSeOdHfNTWpmEgxU/Nnwtqb5ND6TJw9XPPsZV33GXDn/ms2dlLNfURTWpPvTnpBvJP2cXODCQ8CwOJwWL3cvmyJeLbCj/3FQYqlDoPeUWZkgcdPBlIN74YSfELnvH+727VOTJyxO/p8J5H5TANo/OhhBjI3//937errrqql+Z4EMqOgfzTP/1TN5Dsjv8sDCSH2cNAUv/IsaNu4KgTGNT0FQNxj/Tj5AZyr3tvrgFhICWDqz55Zc9AnmywOBWgbsAHlS1vaVD5um18ZqPt1oyBqS3xsXG2aOEi36D4DzKQN9xwg398YbqBvN8ef+IJGcj3fe0SA1lUH2f9mrXh4cEhO/ecc2z5qlWaynNmN/GbKw2M9WmeCWJAnS4P9KjtOnHbbZ+x279wu3+Wbch3xE8fQmf6DSRtDz3HpnC0h49ghPzmykAWf/VXf/V/bNSoxJk0mJnWt8R0MRALjduO+33o4CHbs3u3bRdxTL1Ij2fBOTkI5swcHZow4thp4vtzvEhPuMfpnnheT0su+1a/371rtx9fYJTHK+I7fpyxCy/WG4mckMzIIWu/tMmaP95i5d27rKoOXNW0uygsjKkjj45aCYM1PmHF8VF/ZlpOAcWzFtrw5ZeZLIrJ8vsO9ckghgKqz4NUJtEj6GKkt/3UJuRxDWzdZtV9e2yoQf1jokW0iQZo4xNrZd2X1TlL6rBiuNnwkA2vXm3ltWvTR3QzI9OSsnEAG4Vg+nJURgqvAflAEzzBoHG+DyOzV17Fjh3w+n2XB3yF51zBnTt3uSzYGfc0yIQ4hX2w/QPJVaj7nZLPzp07VN5eTd9H5L3wAQc6hNqKGOi0umVBm6/KXHHFFX72DgOdZgezQ+poyaDwxgedlik9HwvAa6VdpCGeHUh2kS9Zd4mde+657omciaJTLvXweiRvnVA/XhlGwjcSpO8MNufIOPAJLs78YpRD/8iLvnIwnmkkH8ZwerPyuVkwf4Hnv0keGJ31RLw4VYg2QwPnAPnkGrLiaBTGiHBHyWZ4nvrNpZfa2jVrxLPz/JuYriPqv3GQnDbw2TzoVrZEP/k16rJ5dkR6tEt9Ch3ZIR2gv3o/lr6whOP6I71hV937tOtV2ADd79ppB8Rb+u4FF5zvh879u5miAzrz11MF0jMYUN8rr7zqbRk5elRlSJfUV3wjSchZ0AsvusjPgyI/ZgTAh6lrNphFinh3yTjSGWA+ysQL8ocPH3GPYkyGDG/z2Niofzz06Ogx3zkbVafnyyhHFUYc5yoJ46sp49k9I/eIOjtpKIM4DAFCx0BipGPkhDkBTJObFTVWOKnZMRs23ZpwSJ6HsFMVlqW0fLm7ojDFNfkmY0XTVU29O2x+VGV8qhrZa0VrwFiVezKEQckkpTtXLqFHOvAkegvyEEvyCotNaxfljZVV55AUlM1p0dIWfV1Nu5vcD6rEQQlXdHRFax3PtyKei8a6qmkUk3fSg+yhJ2tdw0jyeuS4BoAjUprDkg3KM6qBAd66PDI8Onq0JxeXiXgN75EfSBheFvLjuFeSBW+1JFkwaFInpFAvCsihYhSSQe1UFZEOCyYPYKrTOE5rdZLPXAFeRkx7o05qwDPiH/TQEY8HQSPC4OJ9IxfWE9K/A8CvkEWqL8kgzfJyXDqBDHy9MZcXDziMC9na8iQZDMfZ6FFfZRA4Jj0IfUF3GKTRD+Lp79GnCTsmB4CzjIeFYxNj1mDzJtOdMwHaS/vdY+4rj9bSpCQHnrP2H58NHxro9dPAK0TYuklCIElYfjpKOtaANwPRHC/pqJOSjz94NYxuviUvoURniHumhh4m5OgFcfnRNjWWwqYDrPFDH6QtSdHLokPGri1sVsrWLlWsW9DUoCgsyzuUh9iqlmUkizJWylfWhFtpjNcRB5RWTafWk2Hovt9nkIL0lx0a7rjKOA/4jrjqEU0DtURbe1C01VSfaCqUqtZUR22LFn7PhnXQrqbUbRRdnowmLSqNmmaXsPNRPIP3vv4i8M7ud8hHNEjxE7/pTNGJ0zIGXgJHUeIr58T1ZKXnkLevG/k9nUdlZuEerJpirZjvJ/L2AQfWSXMqgOxDJwJ6Mk8N8XrmGnp1CKI9tBm9TPqc6DoeJF6JZ+lJz/7XnxLMLdHT6EUmwngGkEuSTyank9afpxVqo0+nMgJDd+AFg28HwxTPGD1kp3zuRLkuEp50aEr3ptd1OpBvv+skKPpmgujwdIFTl7mAfL/PgJE1E4CMIQcnff1BxAXRTEdYYwGL6uwlOr8aQBow8vJuKgaVdDGCM+qRFqHrxu9d8bKyQ1D9QAgnaaylqXJT6XT1TRteC+zyimDZCnLBCv5OtAwo337k4LiayK8aFpS2wOnwugxBeiHl1CD4Lkx5MEiZUSLAA/Wk/i5H1UrQx0Kh2oKetFU3NPqHczsyjKKnwxa6nBU5ncpTcOQwZVnhvOTFLx+muqYD/AnDBsCn4Cd8dx6q0uhQHifPD74XxX/O+iGvIvLLjgilNJw9m/KuyA8FqZ4pReVCHAaSKTDrjkxJ8SDPBJxueJjVkzF1TqHXuTMD4G3yKmlfahd8mg1SmowPQaJu4BGqmgaRLHgOIfoBhgEPPuQ8VVcy9NPDZgdoJD3gzdAfdAmeBF9ok+sK/Vr64Tqiewxf0guuokP3U+no39IdXdE9yk16BU/OjCnkpxzqwH6kNsyEqKUnozmEaTVSdKB3LBHnnp4qhYhwyRXQQ5wnD1e8o54jrbt9ubSgnx+k4Rl62hxDqQuB9QOqO6gi3CCSS4aHjRJ+yqCo9EV5QhhQwroteaXCUnb1n2H1vPrDYViQx95+HpEekGG6Ic4blAET7FAzT8FNIsUDqJ9PlWEoMX7dphQP1Ag7oA5aEBYxijLUxUnxotGxsgyq7y1hNJVvgFkeV68FnIJQTv13ZODykVv1wpUUp6ueyU/uxK1076U54foj9HjS9+KSgiXFVB4qyXI6S5QZ+fEaH+tMnDTgPimvlzB3MMfFeYcW5jtu+kt7JZOsEzro2dmUnqaB64oyUEbCKC/4NTeQLyv1CZQkaNZf/Q9joJpT2MmglyTJOQZJL0H1+T1l5tBLpsm6sl7rRVDttHRJz9CN6N+k8/Xq04R+Xrpe6hr1638yLzwrbSJF7WLwI2yOQG1JhPjVecVV6JWmEYX3TC88/wJbu2atrV29xlZfdLGtyeHFF1xoay9ebZcoHuSe8NUXXTR1f2G65xr361QW5a1Zs8ZflAf9bYHMI4GmHn3+F+vRska1YpOaPrc0he1iiaxuncKkptpNa2Zrfrz3jFFFqPy2TKNWtMlBNZAv65ZhIa/t8bqfPAux1JnKHzdW3MuwKaYzgLUT8kqjjG8BnmRJFeK8YjeUg94NTec7mu4XKjWNqJrOa0rfVt3NQseasoxtYblQsoqm2kV53V2NvLxC6W80wHtKpaHCGPHdfOX4gOHi471MCwlZxObAipXOU3j/0bXrnKfwN3gfGHyfgVn6Nchi9Wq78IILfKMBTxHv32cQ8AgFFIl8Do7zqqwb8+EABjTiTgViMEwdUyyVQnsdtJe2wU+1jYry3vKplj8bwLuoc6o8+Ke6NFgygMH6aB8pfA2eO2/7VBne9XtpEn2eznFuIWhlozSWpqieehMkHvU84hOA0witGeYB/g8PD9mK5Su8T35s3SWuD94/c9f+ezB0i3B0jys7+gv5zSLNSgDq6/Xj7HoyCDrzqD/JX9EV+fhuvNDfKKJ93j8lIdIKTrWuE8H0Yz4T416hTzdQYFXIYvw1V19jH9WUCo+BYz9O7BwCAqYxdEqMJO/EUld0IgfqbMj12r7dDjz8sB187hkr799l1cZ4YgjnB/m96myU451qmMn6aAP2LZK3c9llds7d95qt+6h1q5TdkhFMR4LI41P4rGkYWAwnHYJYZ7Xi8BaTQcWbVG7Sj9at/eqLtuuBH1rrNY75HPFzmU0Zcr4OhBc7IDr4Ldi6jGMBj1JtJr557nm29HOfs6W33Gp29hIZy5IqkOluNn23kOMw8bGKOGVAlfCMNyvWSUmZ5rJhgjeXpkqnBv0KRNkYBDZrOFXw2quvid1p1zRvBNllPk90f/WrX7Uvf/nLXvfJNmryOsOO6p/8yZ/4u9h+qJhs8FXtxotbvnSp3XHHHXbXnXf5MR+81TMF2vSd73zH/u7v/s6/Y8mv+8WaGbTxgQbOk957773+Ti/HzHAOgMMHD0075rN33z6nl27pSxMqZ9XylXa19PZ3fud35uyYT/CMXfRXX3/N/uIv/tKefe5Z27Vnt8fhLblnKVr45BjfS7jrjjv9HORZixZJlAP+ijA/y/Dtb33Lj/nwO0GuvyErlTGoAX2FeHz5xy+zKzmupYE7ZnGnYnwD6K/wjKN6LL/kP5pxOsaKeqm/pZkXx3zu++Y3fSd/m2xAO5vZYSipF6N8y4032T1fudtuufUWm/8h1sVPBDMMJK+VUaEbJ93zqahf+eVftttuvdUVlU55qgz7MAAjWOwHOTJCPdMbqDoRmpR1/PU3bWzru1Y4dlTTZ3mCeHc4+aynkUfPmtDqKuFIgfhobUEduHzOKpt/3Q1mYibLfmyLYAIxdbQoauM+30LCMadcqQnfknuZZH+70CZl/HbvtMOvv2FdGZTq5JjVNVfuDJT9925I09a/elWlFqtqLNsxLfdsBxYvteE1H7X5a9ZZV21vi+8Y33a94cekpr7ms8c9NwkmdQ7h/Hnz7Ib119lnP/tZ3yxBIVGm0wU6Oh2Hg+Lbt++wRx552D/EyvEODAzyoOPQ9oULFtqdd97pnZKzkJxhPRUDiZzjHOTDGujiHCQDDx2ej5tiIO+66y77onD9tev9yM2ZAp5uGEg++JAMZFr/Rtp8Hgse8mNSt912q7/7TOeG7vjRrhMbyLk/Bxk8w0C+9sbr9ud//hezGEgUcEA8wkDeY1+UTNZLJ2YayPt7B8X53fjQcTZKF2mmgBfIoPQFIU5RDIiBJwPSwC90gFkgtuJMjGNA3kB+8xsYyGfdQDKous6oXmYfq+RcuYGUPt58883/Pgby2ER2UFwC9ymPiOPDlf/1N37Dv65CwzFccw00EoHERk6a1mGSUhwNRRk5bF1tSiGOjZlN1EWfjIGMjfdYBzjGM0oj4QxwtkfCRYkqUliUVsZ3VFNf1JfP6CqD/qsuZU1dJV0pEgp4jnsA49hSKGHJQOoOm4QSydOyiRHd8461SvHNF84k6appeqemwYdn/14lmURXdViELBTOs2655F9Fpw6bmJSB5Gs+X08Gcs8ea3AmUUbVjZSq5XDwHZ+/3b96w1d1GFhcYTLenQxIOw1UJgMk/OZ3oL///X+xhx56yL/diKfHppt7sUrKuT+8BAwZusFPkJ6o3qiLI2MYSNq1YcMGP4TddBnKOKtuvgqOgfziF39BHqS8IRnfaNeZKDwG/tvf/nbPQHIkBTMBWRSLXmMgf/mXf8VfVEgGMg1Gp2Ig+aBEvElDOXNpIOEZBvJ//vmfu7HLG8jYMYZHX/nKV9yD5Ff5+g1kepOGg+JbpV/yzDxXWl5YppnLpZd8zO7VjOCer97j30JMA0eCU+F7yIcrBjaM5ZlCGEi+SPTNb3zD28L5SzxIBnPqY7a7csVKuzXzIG++Ze4M5HSNhteU6TxPIwfEMdLSaP8uo5Cp3FwiZXLQEyXFSM7W0SDJ/a6yDN+C+dKIs81kvG3lSpPlTqhRxFYobMUy665cYR2hh3OVAsmiWIt1P5Xl4lf73Hg2JzV9n7RCs27FVt3KrUkryRAUGm0rNmXUMMp6lmuleH6yoSEDq1Lk+Ti/WOMU3R1ej9TIKY2z1grVt0q0SXCJxnOsCS1LRQuoDmVLlFaemNVYc5VCqZpoOaRNAw9IMuGeJ3af6YgseyAfeAkf+/l7qsg0kyu/g71Qxpdv4/FWBYYCRY1OAwnoBcYNzHemUwXa4W2ZASmsd1zsNMruh9nqQWzJuKSO7Rtgeb3L9a1ZO1pWJJKIdcl/N/D6p+pwanQ/o0pv5+yEpDZmD+QlbZYcY1atVvwr77VMF6Kvs3SS15HjYdgFrujkbPKdLex4QDpkH3k8X5aVC7LjyJoiUnCWZmp99sTg5eWuAflwsNAf4IAsuHWmyiipM4TL7dFZ+Fwiyhn3eYhn/softFJDhunIMevsPWDtXXustWuvNYVcO7v3WRfcs9+ae/ZZC9y917qKsx27TfMqK2nqig+M92eNCZV12EzTYnv/XV23mu1832zXNl0VtkPX7XreIdzOvXCHwvfuscKYpvf85gOEaTTDkLYPHDHbd8g6e0TbnoPC/Zp6y9tw3GsN6Mjujbj9B80OqP6Ro1gESZ0fhhhgqVL8SDxxENvhPbzgXBoeC5DnVExngODjyZDy+9HzZ2XwzBWxYyST50pYGtlBpn953TgeUE7ANF0TRF0UTLCjG6+UJ9p+uhB1UUd4NnSrtFOf2uybHUqX3lCRLLI8USt5AgHyc88pgsQnD55TiLqogw9KUGsaMJLnpEenI4GuOfpmQqRLeZL3mWYL0b851xiyCZ6dDpC3x6fjlMdz6NBsQP7QP9DLyLXBi+cPMtRtlNevN/3g5eTCaTftZ2YUmI/PDZkZURlBqe5UETBbZT9L4OhKiR+NPqbp60+2WuO5zdZ56lkrPrHRSo8/acXHn7aBx542e3yjdbP7gceeNHv0CesoTfuZ581efUsGacRqk5oGaLpqbKZs3WrjmzdbfeMz1tr4tE1ufMrGNz5pE888peenbPLZJ4RPWkvPbT2Pbtxoo6+8KgMqg0sZmi63BjTV3rfXCq++bu0nnjXb8LRo0hV84hmh6PqRwkRTXfnrTz9j9aeeUVnP29GXXrHWzh1yyVSWDC3HlPy4Uq9rToHLRx4wZ9SITwdk5xpm1jsbhD58WL2gDXGN+9kAgxxn/06U7lShv75EduqEIAEYjVNtDSWl/hFlprOBc0HrDMiV2V/+lJ6k6/HEQXh/HGW52VH4xETdN+MY8FivDYyTCqeDLGvMhrylhVFCd5z3pwCp3fm2654w2pU9Ig8vL58sg9DT4B/GlKULaKGN8TYfSxL5AX9W6hLTZ6nl5w4iuj5uo+/+xA7KaB19/Ic2vuHfbHLDA44Tjz5k44/+0OobHrHJRx+xxoaHbOKRH9ixDT+wg09ssJFXN7MlqWFDo/H4mLzNnXbs9Tfs4ONP2eGHH7GxDY+qvA029ugGGxUee+wx4aN+P6bw0UcetaMbHrfDMnjNH79jdlDe32RTtk2e5P6dNv7qi3bs8ces/sNHrKnyxh992MZEY/3xh0TPQ9Z6+CGV/UOb2PCw0ggfe8JGX9hk4x/IM22Mi+XqoAh6drEI6ORhNPTYr/H/HwDTr1hrPhGkNs6NcQTwDPKKn/pW8iYCj+fN9IOTpD9BXyozyp0bevPAGU2WUcLbBYL2ad00R0c/ePpcHHQyE+GKUThwMP2U7w8f+qE9+OCD9sADD/SQ5/6w/rh8fP75Bz/4wTQknP0O3t3GiLrX53TPDk5nD2eG0X6C9eRLga43Kdk08LQ5YHOQ97p5v54vVvFdAH5aBLri1Aa0TeuJSVG4Trna/6+An6Nmjt2esGNH9tjhbVvs0Fub7PDLz9gI+MpzdvS1F4Sb7Ijw2KsvCOWhvfqsHXrtOTv49st2aKem0XUZtZIMZHPC2vv32+g7P7UReXFjL75kk5tesvqmzTYByqsc3yzjJZzY9KJQ1xc3K93LNv7KGzb5rqbj+w+5gbRmS8XusgPvydi+sdlGX95kRzc/b4dV/4HXVfdruhd9Yy89p3Kft/qLL1hThrHx8itWl1CaRw7Ig5xQGyUUF+RsIu6XS6YgPxOYOz1AgZPxS7QfT8dS8NzpYPBtqjzVr9vgKc/QdaoQHTSWO9L0/PhTxtMF6gh+Oc9C5E67Zhw5PaAVU+3rgyzYWxpl6QGjixd1YP8B3wD51v3fsn/8x3+0f/iHf+hd/+mf/snv4/m+++5z5D7SgccLyyNlYSgxxvlfwzwR9OjtNV6gWw/nH/zJ8yifrg8wfHjJnOPlIzB8BCOMI/ccb+NjJqRxXc3yOWiGB4cTF3VNAkjVpYp/fsDBGrZGrFq2Qq1k1apG1U5DU+UJG5ysW0VTVH4Mi3XBIXl01WbDyq26VdsNqylusNW0mpiTnGa1pVCUnWzb8MSkLRgbt3mNSavJy6jJ4A3Vmzav3rDh+qTNn+CqMlRHTXXNH59QHt0rjE0bljJ5K6ZWKPmueE3eabWp+MaEVWSEK2z6cNVzTeGV5pgN6rmq+qrUX1G+IVn+CoJWZ4D3LDdlMI3viIYRV8jZz1gOmUvw4lRP7+rST/fpChF9dH0IQEFjdAYoJ/TO20QYEbqnqnQblZ8+4LlOmwJTV2bc+Mt0njROSxaWpZwJOXpJ7+nYNMjo5DoXNAOU44bXdZf6kkTgU/DKUdWl557EHHrtzV2cZk/PTxwol+qYqE/4uduXXn7Jf2Fw80svCTc78rxJDgPIMz+gleIz7MXlw1Pal195ZQa+tWWL7ZQh4uMXvO99Krzyduh/Spn4Dt20oScD/VHv8Ph+iDqY2jPNxwASFjvuhLNJzCYThhsPEz2Fpw4QQIeTCvWwV3EGpJkrwX9YgA4ntlSzwcVLbP7S5TIoVSsPqFHlIRtQeIs3WCpDsjU1patat1K1grBarplS2jDhukvHbkrWlFLz447zxNByuWBtGd3WYFVl8Et4yitjXCrKIJfKKlvxMmKlktKy5sgHMJxB6lh8aqjBu9ZVKZzq5R1wn0rKkJcq/u46H8oo1AatPFS1Tq1sY6WijYm22ooVVlo4zxvHipCKdqPbL+OQBQYU5BnlmEugNH6bA8WLK2HUxb0rI8/R6QQfVh9QxLyBBLxMySLaxLENryErey70jvzh4XGfvAPVonrZnOC+1z5V5XfZlfqjzR4v5Pyg/84NNIM5nswVRJv9Ci2Oko0oiN9Rcb4575J8ZuNddpPaQRlKX8iwo9kPKZALX3jip3r3yYM6eOig3x88dMif+dwav3ez/8BBO6A4R03LCdsHKp7nwJRnfy9NIM8jR0esLoeDkwrQ5XgcyPPA/ympa46eaYcE6jJ0UDkYSNLMBl6GEB1gySJOzqALhPPMCyrwgmUH0vV2sfMQBfWYK4iwnxdAib+1Uq7agmUrbHjpSusML7C6DF27IyPVaFtFAuanCyaKTWsW2/6zrZMFfp+6459KG+fnB8sd/+2XibLihM1qwVpVfgO7668Lpi+TK1zXiWL6hFmD34yRk9cij8pq6FpXWW0+Oae8YzV5t2WNTKWm1ZW2SbmUJ2vX1LS5XRyQceUokJI3O/672+1yxdoLF9jguedaVW0xGeWW+N0sitcclVTRwfPj8T0ff7w0cwVRR14nTgf6y5mNbhSz39M8U6AcFB+crU7Coq6IDxrzbT5e+wk/XtzpQp6O/PSf8EB4xDXqPhG/8vlIxzUPlMFSQT4+rmCSCTxUnQr3ozZ9aQnLP6efcW1ZM8PEf+pKSy0nA2iirADu8lx2evWPMNI6H6Y3yyH4A+AxYgz5Qbp4/54wjjSBGE+eQacQAoKIaNjxwn5eQPN8+kmDlq+04YtWW+WCi60+/yw72k6HRecr1aBGpaKEJBtoFQ1Q5bZGVX+XTe1QGzhczk/FFoRFtafQ1XRV4QUJv6xyaspT0XOZeBm3grCkcamsdOWsXN6M8Z9x7Up4uvCDYgMiTmZP6ZVOwq8qvixjWGkIW8qnPF1eMdTUvCla2ksWW2mt2vDRj6o954jQIdUir1bSnfDyshE/h8eTSYTllWCuIMqM+s5UD1BIn8rmaM2XF/VEmyNdPv3pAJ2RekEgb3zzdc3WPsJIT+eO+H4E8uXMNVBHvmzoAE+1rqAxD/3066ZnfPLlpnvqRjGnaOgl6T0T57c9UOl+JS4tCSWjmI5YpXJJ1Q9BE1f43jOshAkxxLxm2StBgQlTvn7oL48NItZemVLz6T6+BxG/vx4besC0c5AAiuSWU9dgBEB8pPm5AfMD3ohZtswKl15mi69ZbwMXr7aD1ZqNKLrBgjvGUhar2NR0uFGQkVKnaJVtoKn2NJVfRqsqb7MqK1VtSWiTalddHUXXUkMdWHkqDRnVFsxRGZQlI8un0sCiyjYOtIsAAAjESURBVKHsslCOqr8QU1OdGMCiDCHfzgAHJkVqo2SVSdEgJA8v2IzLexwdGrSB1RfY0FVXmF18sdmipcokV98nSeq86dUcWtwDeI88QjYhn39vuUTZoRdR/+lC5A1DE20JDJ3L388F9PMteBkInCovyTtjTVMQ5c4VRFlhnEHug29BO/fAqdBPmZE3Ty/58sfGpm5TfKTFEXHjRiBphHTLuPdnYrNr0Md9KhM95gpQZrrOBtGeqXYlA05prJ2WS8X0RSKMLn1fztHsJSWgDNrAlZ8R4e0wDOQFF1zgP7HBdJv1R+hFvvDaORuNIJARnoVL3Mz8iBsQDP15gOyVdUWrzZ9vdv75VrvmGlt07Xpr6v6wXOYDlbIdVvxRK9ox4ajmquAxeWZjeGdF5q4wUyjDx5HsSQzWgNIPlOxoV9gu2DHFHZUHOKIK+Q3EEaU5wlVlkLZRrMrTo1OpHIyje5MFTaepR+WpnhHdj6r8sW5VYWXRVFKYaDtrkXXXXGSLP7Xezr5hvdnKVbKkmqtjjKUDZSkBHisQoxiAfJANcgkZIZu8guevZwp5TynqRoGi3uhgXD9MndHRw/sJHaNdlE09IHUCc6lvlEW90Bw8DH5GXL7dAcRBT/ABJF/0EZ4pk3vyzSXNQQd0wTeegw7oB6k7L4f+K/RwH+0I+pFnoJeVC+OHu9KbVVPXIQ3sg4NDNiSsySnhd3xmw5rK8nvestE1yTXpTO97sKIFNiUSE539EHwM3mNkMYZx7ImflaAuN9oKT19Nn2pvP0TboQta8CDZjMFQxq+D8nz22Wf7+/+kGXj55Ze7//qv/+rvp7rFzIgBeKaw22+/3T9IwNd2YN7PA2guZiOZDKatct/kJtuWH9vBZ5+15gfvWfvQfnlq8r7kGRZlpAY6fJWkZU1NfxsLhm3+ZZfa0tvvMNP0XNwx+8k7Vn/2BTv0zDPWGj9qg0M1FwJTaL7mM6E5Ot92hOG8cl2QISy1itZZvsIWffo6q1z1CRm48zR1Vsd4+yXb+6PHbXLL2zY8OiYKcf+liP4xX3m3civHa12rLjnbqmvX2IL111rxYx+3Zm2hr0nymqFDUR2UtUt5unt27/H3f/kdFc5mIXSEBkATsuAnD3j3Nj9FiDSnA+RH/oywfDmFHUp+h4WRFeUCoIM0K1eu9C8v8XEAdCMU+kRAJ+e3Ub73ve/5O9k8A3md46MbvM/MV2F4J5r1oujgpwtMm55++mk/h0dH4JAwHZf6qZt2X3TRRb0v0fDdgaCJXU9o5fwev4hIJ6KDQg/5MYzQiAx4L50vUuVldboATdQB7RxJoZ9yHAVdgDbiQDYU+DQdtNNPV69e7WtpAHRwpIYjPPF7PNCe5ydXnoG2hyuM8vmne+joB98gySDK6YeugklF2ZQR9uUi8eemG2+0yy67zJYtX+6bTf2bXNH2uML/Hz3+I3v7J2/bwQMHnOduwBQ3qfaj++vWrrMbb7rRv24V8gnaor1coYMzkBz1gR4+kEN5GEriQuc8/5EjR7r8QBNz8lDWKBTgHmVBaWO0+nkBYtIs1Y2kTJ8fy/HX9A7wSt9OaxzYq0h5J2JCUV4eU22+o+dffRzSiH/OSqut/ai1z1pmbQm4IkUvbPvA2j99xybq8jM1fR/wKTXC7Vi9wtojnUQGUhe+BVnSFLuzcIGV115srXNXWnfoLIXJaB74wOrv/tQKe/dZqT5uLRnYoqbN/OwrH+htlTo2OTRgw4t5V1tTat4VX3CWaJMXoxr8s5ZoE9a0kMwrio9sEGQINrwUEFmw68aIh7GMuOjYpwPkB6iLUTXet6aTUm50TNIxPVm8eHFPN/J6czxA4engu3fvdiMcZQUQTztoE2VTB+0k/EzaRX74CKLrQWsYSK50smhPdDBoIy9Gkg4ELzCu5Am6oQ+aoZWBAuNE3JnQC1AvNEAb/OeMHjKJevNX6od2kPrzsgja+X17aCdtQD4d5Wh4JrBnHF331aemgZJkw7TnT5ieVUg2VZeO8jc7SgUEvfPnL/CvD0Gn643/mw6kDdq4Z4DGMI4ePeabPaGHEY8MFi1a6HozqHKD9/k03AdP4QM6Hs8APKac4J+jmN8lIRgNCIgCwzDynCf8ZwqQJgspp9A3OYCSDJ97jLzJIiUwvkbUmhSNLRknpq0yZu2mRsWmdauif56m5gsWW6c87GUUW/KQpfB2ZL+eG/47MUU+TyYPlMraZbb51TnVXnbE+flWNl74KG57ySKrDw1LUQZtSO5ls6n6j45Y8RjvVU/aJN+b1PS+Ku8SA4ln2BgsWGVwgZmmBprP+PcrORLkypYfpJ29MoiqD/5jKD1YdITgQ1YoO8jzmXbIAOqkLK50zn7dII4wPMrobK5Mp6gXUSblR7lxjXoxUOhchBF/JnpHfjoAEEaCMDDqDF4CUXcA8f39hDDy5ttOfvKeKb0A5VMGVyD4RliUn6chPHyeA/LpaD9lRHogrqSjVSHlLNghvzYJxFEh8pIuXaOcrKysPL66kzZnpuphms2UO+UTLQrPVdeDoJ2r6wu8Vzt4JgdroWzURHtpv99TV1+Bwad8mQHcB68DCXM+6cZTcgkkAcA1LwAgH/8zBXSEgUx6i5HkUc3wnWhcShqBXSvIIPLzC5hPX2skkp0UtsBhnrw6/fFfDyRTjQ2atqbb/Kqg4gvy+DQfVqTC2bLuqByV25aB891vGVX1AOvWSjKpErSwoOy6USLF8U61XFDOTLaVt8Lnzfj9HI771GTw2IzRox9ZgnaIYJTVf3FWzxl43IkhZAFyH3Am8oly8vKOa9TDNa9QhIWSngzy5eWvAPcYl7zOEZa/ngnQySg3ys9fo2ye8zQB+Xojrj8NQLpIG/GnS3PQRDnQFLQDhEW5/el4DuOepzHSRFg8RzmAm7TsOZdVMO3BtZTzulNZsxsCPGNKTx/tTkuTwlOdvYhUXrrtQZ52wOl1o6y4nrxSGyiXJQEv3oP7S5sOeR7MBlN8Mfu/cr4iEotqlXQAAAAASUVORK5CYII=;" vertex="1" parent="VVqcYURe2gfnDvIVS-2d-105">
          <mxGeometry x="950" y="261.5" width="196" height="155.37" as="geometry" />
        </mxCell>
        <mxCell id="3NP8SoBvH1XfvLIH81yX-3" value="&lt;font style=&quot;color: light-dark(rgb(0, 0, 0), rgb(153, 76, 0));&quot;&gt;CIDR&amp;nbsp; : 10.11.0.0/16&lt;/font&gt;" style="text;whiteSpace=wrap;html=1;fontColor=light-dark(#000000,#330066);fontSize=62;fontStyle=1" vertex="1" parent="VVqcYURe2gfnDvIVS-2d-105">
          <mxGeometry x="35" y="109" width="688" height="53" as="geometry" />
        </mxCell>
        <mxCell id="3NP8SoBvH1XfvLIH81yX-4" value="&lt;font style=&quot;font-size: 26px; color: light-dark(rgb(0, 0, 0), rgb(51, 0, 0));&quot;&gt;10.11.1.0/24&lt;/font&gt;" style="text;whiteSpace=wrap;html=1;fontColor=light-dark(#000000,#330066);fontSize=62;fontStyle=1" vertex="1" parent="VVqcYURe2gfnDvIVS-2d-105">
          <mxGeometry x="456" y="257" width="221.75" height="87" as="geometry" />
        </mxCell>
        <mxCell id="C26DziEsk0qb_1Ea8kbx-23" style="edgeStyle=orthogonalEdgeStyle;rounded=0;orthogonalLoop=1;jettySize=auto;html=1;fontColor=light-dark(#000000,#4C0099);fontSize=16;strokeColor=light-dark(#000000,#4C0099);strokeWidth=5;" parent="KaTq5aqVhibnrpRyyDtL-56" source="C26DziEsk0qb_1Ea8kbx-21" target="VVqcYURe2gfnDvIVS-2d-5" edge="1">
          <mxGeometry relative="1" as="geometry">
            <mxPoint x="3468" y="2043" as="targetPoint" />
            <Array as="points">
              <mxPoint x="4080" y="3166" />
            </Array>
          </mxGeometry>
        </mxCell>
        <mxCell id="VVqcYURe2gfnDvIVS-2d-77" value="" style="outlineConnect=0;fontColor=#232F3E;gradientColor=none;fillColor=#7AA116;strokeColor=none;dashed=0;verticalLabelPosition=bottom;verticalAlign=top;align=center;html=1;fontSize=12;fontStyle=0;aspect=fixed;pointerEvents=1;shape=mxgraph.aws4.bucket_with_objects;strokeWidth=13;perimeterSpacing=8;" parent="KaTq5aqVhibnrpRyyDtL-56" vertex="1">
          <mxGeometry x="107" y="2447" width="234.62" height="244" as="geometry" />
        </mxCell>
        <mxCell id="5MR8Zh-9qisxg6gN4qTq-9" style="edgeStyle=orthogonalEdgeStyle;rounded=0;orthogonalLoop=1;jettySize=auto;html=1;strokeColor=light-dark(#000000,#660033);strokeWidth=9;exitX=0.75;exitY=1;exitDx=0;exitDy=0;" parent="KaTq5aqVhibnrpRyyDtL-56" source="C26DziEsk0qb_1Ea8kbx-25" target="VVqcYURe2gfnDvIVS-2d-77" edge="1">
          <mxGeometry relative="1" as="geometry">
            <Array as="points">
              <mxPoint x="4613" y="3594" />
              <mxPoint x="623" y="3594" />
              <mxPoint x="623" y="2680" />
            </Array>
            <mxPoint x="4294" y="2677" as="sourcePoint" />
            <mxPoint x="1456" y="2015" as="targetPoint" />
          </mxGeometry>
        </mxCell>
        <mxCell id="C26DziEsk0qb_1Ea8kbx-33" style="edgeStyle=orthogonalEdgeStyle;rounded=0;orthogonalLoop=1;jettySize=auto;html=1;strokeColor=light-dark(#000000,#006633);strokeWidth=9;" parent="KaTq5aqVhibnrpRyyDtL-56" source="VVqcYURe2gfnDvIVS-2d-43" target="VVqcYURe2gfnDvIVS-2d-77" edge="1">
          <mxGeometry relative="1" as="geometry">
            <Array as="points">
              <mxPoint x="905" y="2214" />
              <mxPoint x="905" y="2501" />
            </Array>
          </mxGeometry>
        </mxCell>
        <mxCell id="C26DziEsk0qb_1Ea8kbx-30" style="edgeStyle=orthogonalEdgeStyle;rounded=0;orthogonalLoop=1;jettySize=auto;html=1;strokeColor=light-dark(#000000,#330066);strokeWidth=9;" parent="KaTq5aqVhibnrpRyyDtL-56" source="C26DziEsk0qb_1Ea8kbx-27" target="VVqcYURe2gfnDvIVS-2d-77" edge="1">
          <mxGeometry relative="1" as="geometry">
            <Array as="points">
              <mxPoint x="651" y="2607" />
              <mxPoint x="651" y="2607" />
            </Array>
          </mxGeometry>
        </mxCell>
        <mxCell id="VVqcYURe2gfnDvIVS-2d-86" value="" style="edgeStyle=orthogonalEdgeStyle;rounded=0;orthogonalLoop=1;jettySize=auto;html=1;strokeColor=light-dark(#000000,#663300);strokeWidth=9;" parent="KaTq5aqVhibnrpRyyDtL-56" source="VVqcYURe2gfnDvIVS-2d-77" target="VVqcYURe2gfnDvIVS-2d-85" edge="1">
          <mxGeometry relative="1" as="geometry">
            <mxPoint x="2759" y="1751.8000000000002" as="sourcePoint" />
            <mxPoint x="2759" y="1979.8000000000002" as="targetPoint" />
            <Array as="points">
              <mxPoint x="224" y="2787" />
              <mxPoint x="224" y="2787" />
            </Array>
          </mxGeometry>
        </mxCell>
        <mxCell id="98MHwAq_paq7Vv6iNTmb-11" style="edgeStyle=orthogonalEdgeStyle;rounded=0;orthogonalLoop=1;jettySize=auto;html=1;entryX=0.5;entryY=0;entryDx=0;entryDy=0;strokeColor=light-dark(#000000,#660066);strokeWidth=9;" parent="KaTq5aqVhibnrpRyyDtL-56" source="98MHwAq_paq7Vv6iNTmb-5" target="VVqcYURe2gfnDvIVS-2d-5" edge="1">
          <mxGeometry relative="1" as="geometry">
            <Array as="points">
              <mxPoint x="2208" y="1492" />
            </Array>
          </mxGeometry>
        </mxCell>
        <mxCell id="98MHwAq_paq7Vv6iNTmb-13" style="edgeStyle=orthogonalEdgeStyle;rounded=0;orthogonalLoop=1;jettySize=auto;html=1;strokeColor=light-dark(#000000,#660066);strokeWidth=9;" parent="KaTq5aqVhibnrpRyyDtL-56" source="98MHwAq_paq7Vv6iNTmb-5" target="VVqcYURe2gfnDvIVS-2d-105" edge="1">
          <mxGeometry relative="1" as="geometry">
            <Array as="points">
              <mxPoint x="3066" y="1400" />
              <mxPoint x="3066" y="1400" />
            </Array>
          </mxGeometry>
        </mxCell>
        <mxCell id="98MHwAq_paq7Vv6iNTmb-14" style="edgeStyle=orthogonalEdgeStyle;rounded=0;orthogonalLoop=1;jettySize=auto;html=1;entryX=0;entryY=0.5;entryDx=0;entryDy=0;strokeColor=light-dark(#000000,#660066);strokeWidth=9;" parent="KaTq5aqVhibnrpRyyDtL-56" source="98MHwAq_paq7Vv6iNTmb-5" target="KaTq5aqVhibnrpRyyDtL-1" edge="1">
          <mxGeometry relative="1" as="geometry">
            <Array as="points">
              <mxPoint x="1320" y="1273" />
              <mxPoint x="1320" y="608" />
            </Array>
          </mxGeometry>
        </mxCell>
        <mxCell id="98MHwAq_paq7Vv6iNTmb-5" value="" style="sketch=0;points=[[0,0,0],[0.25,0,0],[0.5,0,0],[0.75,0,0],[1,0,0],[0,1,0],[0.25,1,0],[0.5,1,0],[0.75,1,0],[1,1,0],[0,0.25,0],[0,0.5,0],[0,0.75,0],[1,0.25,0],[1,0.5,0],[1,0.75,0]];outlineConnect=0;fontColor=#232F3E;fillColor=#8C4FFF;strokeColor=#ffffff;dashed=0;verticalLabelPosition=bottom;verticalAlign=top;align=center;html=1;fontSize=12;fontStyle=0;aspect=fixed;shape=mxgraph.aws4.resourceIcon;resIcon=mxgraph.aws4.transit_gateway;" parent="KaTq5aqVhibnrpRyyDtL-56" vertex="1">
          <mxGeometry x="447" y="1235" width="330.5" height="330.5" as="geometry" />
        </mxCell>
        <mxCell id="VVqcYURe2gfnDvIVS-2d-10" value="Internet&#xa;gateway" style="outlineConnect=0;fontColor=light-dark(#232F3E, #021731);gradientColor=none;strokeColor=light-dark(#232F3E,#0000FF);fillColor=none;dashed=0;verticalLabelPosition=bottom;verticalAlign=top;align=center;html=1;fontSize=41;fontStyle=0;aspect=fixed;shape=mxgraph.aws4.resourceIcon;resIcon=mxgraph.aws4.internet_gateway;strokeWidth=10;textShadow=1;" parent="KaTq5aqVhibnrpRyyDtL-56" vertex="1">
          <mxGeometry x="961" y="1728" width="270" height="270" as="geometry" />
        </mxCell>
        <mxCell id="98MHwAq_paq7Vv6iNTmb-15" value="&lt;h1&gt;&lt;font style=&quot;color: light-dark(rgb(0, 0, 0), rgb(51, 0, 0)); font-size: 56px;&quot;&gt;Transit Getway&lt;/font&gt;&lt;/h1&gt;" style="text;strokeColor=none;fillColor=none;html=1;fontSize=24;fontStyle=1;verticalAlign=middle;align=center;" parent="KaTq5aqVhibnrpRyyDtL-56" vertex="1">
          <mxGeometry x="560" y="1594" width="100" height="40" as="geometry" />
        </mxCell>
        <mxCell id="98MHwAq_paq7Vv6iNTmb-18" style="edgeStyle=orthogonalEdgeStyle;rounded=0;orthogonalLoop=1;jettySize=auto;html=1;exitX=0.75;exitY=0;exitDx=0;exitDy=0;entryX=0.75;entryY=1;entryDx=0;entryDy=0;" parent="KaTq5aqVhibnrpRyyDtL-56" source="VVqcYURe2gfnDvIVS-2d-80" target="VVqcYURe2gfnDvIVS-2d-80" edge="1">
          <mxGeometry relative="1" as="geometry" />
        </mxCell>
        <mxCell id="KaTq5aqVhibnrpRyyDtL-1" value="DEPARTMENT VPC" style="points=[[0,0],[0.25,0],[0.5,0],[0.75,0],[1,0],[1,0.25],[1,0.5],[1,0.75],[1,1],[0.75,1],[0.5,1],[0.25,1],[0,1],[0,0.75],[0,0.5],[0,0.25]];outlineConnect=0;gradientColor=none;html=1;whiteSpace=wrap;fontSize=43;fontStyle=0;container=1;pointerEvents=0;collapsible=0;recursiveResize=0;shape=mxgraph.aws4.group;grIcon=mxgraph.aws4.group_vpc2;strokeColor=light-dark(#8C4FFF,#006600);fillColor=none;verticalAlign=top;align=left;spacingLeft=30;fontColor=#AAB7B8;strokeWidth=7;perimeterSpacing=6;" parent="KaTq5aqVhibnrpRyyDtL-56" vertex="1">
          <mxGeometry x="1481" y="49" width="1565" height="1097" as="geometry" />
        </mxCell>
        <mxCell id="3NP8SoBvH1XfvLIH81yX-22" value="&lt;font style=&quot;font-size: 41px; color: light-dark(rgb(0, 0, 0), rgb(0, 51, 102));&quot;&gt;CIDR&amp;nbsp; : 10.12.0.0/16&lt;/font&gt;" style="text;whiteSpace=wrap;html=1;fontColor=light-dark(#000000,#330066);fontSize=62;fontStyle=1" vertex="1" parent="KaTq5aqVhibnrpRyyDtL-1">
          <mxGeometry x="49" y="29" width="410" height="78" as="geometry" />
        </mxCell>
        <mxCell id="KaTq5aqVhibnrpRyyDtL-59" value="Private subnet" style="points=[[0,0],[0.25,0],[0.5,0],[0.75,0],[1,0],[1,0.25],[1,0.5],[1,0.75],[1,1],[0.75,1],[0.5,1],[0.25,1],[0,1],[0,0.75],[0,0.5],[0,0.25]];outlineConnect=0;gradientColor=none;html=1;whiteSpace=wrap;fontSize=20;fontStyle=0;container=1;pointerEvents=0;collapsible=0;recursiveResize=0;shape=mxgraph.aws4.group;grIcon=mxgraph.aws4.group_security_group;grStroke=0;strokeColor=#00A4A6;fillColor=light-dark(#E6F6F7,#99CCFF);verticalAlign=top;align=left;spacingLeft=30;fontColor=light-dark(#147EBA,#000066);dashed=0;" parent="KaTq5aqVhibnrpRyyDtL-1" vertex="1">
          <mxGeometry x="273.5" y="186.5" width="988" height="341.5" as="geometry" />
        </mxCell>
        <mxCell id="KaTq5aqVhibnrpRyyDtL-63" value="&lt;h1&gt;&lt;font style=&quot;color: light-dark(rgb(51, 0, 0), rgb(20, 17, 17)); font-size: 30px;&quot;&gt;EC2&lt;/font&gt;&lt;/h1&gt;" style="text;strokeColor=none;fillColor=none;html=1;fontSize=24;fontStyle=1;verticalAlign=middle;align=center;" parent="KaTq5aqVhibnrpRyyDtL-59" vertex="1">
          <mxGeometry x="377" y="259.5" width="232" height="53" as="geometry" />
        </mxCell>
        <mxCell id="KaTq5aqVhibnrpRyyDtL-64" value="&lt;h1&gt;&lt;font style=&quot;color: light-dark(rgb(51, 0, 0), rgb(20, 17, 17)); font-size: 33px;&quot;&gt;EC2&lt;/font&gt;&lt;/h1&gt;" style="text;strokeColor=none;fillColor=none;html=1;fontSize=24;fontStyle=1;verticalAlign=middle;align=center;" parent="KaTq5aqVhibnrpRyyDtL-59" vertex="1">
          <mxGeometry x="685" y="259.5" width="232" height="53" as="geometry" />
        </mxCell>
        <mxCell id="LgYwcrg43erPUWLEfsrs-13" value="" style="image;sketch=0;aspect=fixed;html=1;points=[];align=center;fontSize=12;image=img/lib/mscae/Docker.svg;strokeWidth=5;imageBorder=none;shadow=1;" parent="KaTq5aqVhibnrpRyyDtL-59" vertex="1">
          <mxGeometry x="761" y="-28.5" width="120.83" height="99.08" as="geometry" />
        </mxCell>
        <mxCell id="KaTq5aqVhibnrpRyyDtL-61" value="&lt;h1&gt;&lt;font style=&quot;color: light-dark(rgb(51, 0, 0), rgb(20, 17, 17)); font-size: 30px;&quot;&gt;EC2&lt;/font&gt;&lt;/h1&gt;" style="text;strokeColor=none;fillColor=none;html=1;fontSize=24;fontStyle=1;verticalAlign=middle;align=center;" parent="KaTq5aqVhibnrpRyyDtL-1" vertex="1">
          <mxGeometry x="385.5" y="456" width="232" height="53" as="geometry" />
        </mxCell>
        <mxCell id="KaTq5aqVhibnrpRyyDtL-60" value="" style="points=[[0,0,0],[0.25,0,0],[0.5,0,0],[0.75,0,0],[1,0,0],[0,1,0],[0.25,1,0],[0.5,1,0],[0.75,1,0],[1,1,0],[0,0.25,0],[0,0.5,0],[0,0.75,0],[1,0.25,0],[1,0.5,0],[1,0.75,0]];outlineConnect=0;fontColor=#232F3E;fillColor=#ED7100;strokeColor=#ffffff;dashed=0;verticalLabelPosition=bottom;verticalAlign=top;align=center;html=1;fontSize=12;fontStyle=0;aspect=fixed;shape=mxgraph.aws4.resourceIcon;resIcon=mxgraph.aws4.ec2;" parent="KaTq5aqVhibnrpRyyDtL-1" vertex="1">
          <mxGeometry x="385.5" y="262" width="198" height="198" as="geometry" />
        </mxCell>
        <mxCell id="KaTq5aqVhibnrpRyyDtL-62" value="" style="points=[[0,0,0],[0.25,0,0],[0.5,0,0],[0.75,0,0],[1,0,0],[0,1,0],[0.25,1,0],[0.5,1,0],[0.75,1,0],[1,1,0],[0,0.25,0],[0,0.5,0],[0,0.75,0],[1,0.25,0],[1,0.5,0],[1,0.75,0]];outlineConnect=0;fontColor=#232F3E;fillColor=#ED7100;strokeColor=#ffffff;dashed=0;verticalLabelPosition=bottom;verticalAlign=top;align=center;html=1;fontSize=12;fontStyle=0;aspect=fixed;shape=mxgraph.aws4.resourceIcon;resIcon=mxgraph.aws4.ec2;" parent="KaTq5aqVhibnrpRyyDtL-1" vertex="1">
          <mxGeometry x="681.5" y="262" width="195" height="195" as="geometry" />
        </mxCell>
        <mxCell id="KaTq5aqVhibnrpRyyDtL-65" value="" style="points=[[0,0,0],[0.25,0,0],[0.5,0,0],[0.75,0,0],[1,0,0],[0,1,0],[0.25,1,0],[0.5,1,0],[0.75,1,0],[1,1,0],[0,0.25,0],[0,0.5,0],[0,0.75,0],[1,0.25,0],[1,0.5,0],[1,0.75,0]];outlineConnect=0;fontColor=#232F3E;fillColor=#ED7100;strokeColor=#ffffff;dashed=0;verticalLabelPosition=bottom;verticalAlign=top;align=center;html=1;fontSize=12;fontStyle=0;aspect=fixed;shape=mxgraph.aws4.resourceIcon;resIcon=mxgraph.aws4.ec2;" parent="KaTq5aqVhibnrpRyyDtL-1" vertex="1">
          <mxGeometry x="964.5" y="262" width="185" height="185" as="geometry" />
        </mxCell>
        <mxCell id="LgYwcrg43erPUWLEfsrs-14" value="" style="image;sketch=0;aspect=fixed;html=1;points=[];align=center;fontSize=12;image=img/lib/mscae/Docker.svg;strokeWidth=5;imageBorder=none;shadow=1;" parent="KaTq5aqVhibnrpRyyDtL-1" vertex="1">
          <mxGeometry x="475.5" y="161.00000000000009" width="120.83" height="99.08" as="geometry" />
        </mxCell>
        <mxCell id="LgYwcrg43erPUWLEfsrs-15" value="" style="image;sketch=0;aspect=fixed;html=1;points=[];align=center;fontSize=12;image=img/lib/mscae/Docker.svg;strokeWidth=5;imageBorder=none;shadow=1;" parent="KaTq5aqVhibnrpRyyDtL-1" vertex="1">
          <mxGeometry x="760.5" y="162.92" width="120.83" height="99.08" as="geometry" />
        </mxCell>
        <mxCell id="3NP8SoBvH1XfvLIH81yX-5" value="Public subnet" style="points=[[0,0],[0.25,0],[0.5,0],[0.75,0],[1,0],[1,0.25],[1,0.5],[1,0.75],[1,1],[0.75,1],[0.5,1],[0.25,1],[0,1],[0,0.75],[0,0.5],[0,0.25]];outlineConnect=0;gradientColor=none;fontSize=24;fontStyle=1;container=1;pointerEvents=0;collapsible=0;recursiveResize=0;shape=mxgraph.aws4.group;grIcon=mxgraph.aws4.group_security_group;grStroke=0;strokeColor=light-dark(#82B366,#006600);fillColor=light-dark(#000000,#CCFF99);verticalAlign=top;align=left;spacingLeft=30;dashed=0;strokeWidth=22;perimeterSpacing=5;labelBackgroundColor=none;textShadow=0;html=1;whiteSpace=wrap;fontFamily=Helvetica;labelBorderColor=none;spacing=-1;fontColor=light-dark(#000000,#009900);" vertex="1" parent="KaTq5aqVhibnrpRyyDtL-1">
          <mxGeometry x="881.5" y="683" width="389" height="212.5" as="geometry" />
        </mxCell>
        <mxCell id="3NP8SoBvH1XfvLIH81yX-7" value="" style="points=[[0,0,0],[0.25,0,0],[0.5,0,0],[0.75,0,0],[1,0,0],[0,1,0],[0.25,1,0],[0.5,1,0],[0.75,1,0],[1,1,0],[0,0.25,0],[0,0.5,0],[0,0.75,0],[1,0.25,0],[1,0.5,0],[1,0.75,0]];outlineConnect=0;fontColor=#232F3E;fillColor=#ED7100;strokeColor=#ffffff;dashed=0;verticalLabelPosition=bottom;verticalAlign=top;align=center;html=1;fontSize=13;fontStyle=0;aspect=fixed;shape=mxgraph.aws4.resourceIcon;resIcon=mxgraph.aws4.ec2;" vertex="1" parent="3NP8SoBvH1XfvLIH81yX-5">
          <mxGeometry x="23" y="57" width="113" height="113" as="geometry" />
        </mxCell>
        <mxCell id="3NP8SoBvH1XfvLIH81yX-6" value="&lt;h1&gt;&lt;font style=&quot;color: light-dark(rgb(51, 0, 0), rgb(20, 17, 17)); font-size: 25px;&quot;&gt;JUMP SERVER&lt;/font&gt;&lt;/h1&gt;" style="text;strokeColor=none;fillColor=none;html=1;fontSize=24;fontStyle=1;verticalAlign=middle;align=center;" vertex="1" parent="3NP8SoBvH1XfvLIH81yX-5">
          <mxGeometry x="-12" y="154.5" width="232" height="53" as="geometry" />
        </mxCell>
        <mxCell id="3NP8SoBvH1XfvLIH81yX-10" value="" style="outlineConnect=0;fontColor=#232F3E;gradientColor=none;fillColor=#8C4FFF;strokeColor=none;dashed=0;verticalLabelPosition=bottom;verticalAlign=top;align=center;html=1;fontSize=12;fontStyle=0;aspect=fixed;pointerEvents=1;shape=mxgraph.aws4.nat_gateway;" vertex="1" parent="3NP8SoBvH1XfvLIH81yX-5">
          <mxGeometry x="237" y="45.75" width="121" height="121" as="geometry" />
        </mxCell>
        <mxCell id="3NP8SoBvH1XfvLIH81yX-11" value="&lt;h1&gt;&lt;font style=&quot;color: light-dark(rgb(51, 0, 0), rgb(20, 17, 17)); font-size: 27px;&quot;&gt;NAT Getway&lt;/font&gt;&lt;/h1&gt;" style="text;strokeColor=none;fillColor=none;html=1;fontSize=24;fontStyle=1;verticalAlign=middle;align=center;" vertex="1" parent="3NP8SoBvH1XfvLIH81yX-5">
          <mxGeometry x="218" y="154.5" width="168" height="53" as="geometry" />
        </mxCell>
        <mxCell id="KaTq5aqVhibnrpRyyDtL-54" value="Availability Zone-a" style="fillColor=none;strokeColor=#147EBA;dashed=1;verticalAlign=top;fontStyle=0;fontColor=#147EBA;whiteSpace=wrap;html=1;strokeWidth=7;rounded=1;glass=0;arcSize=17;fontSize=28;" parent="KaTq5aqVhibnrpRyyDtL-1" vertex="1">
          <mxGeometry x="101.5" y="119" width="1362" height="940" as="geometry" />
        </mxCell>
        <mxCell id="3NP8SoBvH1XfvLIH81yX-12" value="Auto Scaling group" style="points=[[0,0],[0.25,0],[0.5,0],[0.75,0],[1,0],[1,0.25],[1,0.5],[1,0.75],[1,1],[0.75,1],[0.5,1],[0.25,1],[0,1],[0,0.75],[0,0.5],[0,0.25]];outlineConnect=0;gradientColor=none;html=1;whiteSpace=wrap;fontSize=23;fontStyle=0;container=1;pointerEvents=0;collapsible=0;recursiveResize=0;shape=mxgraph.aws4.groupCenter;grIcon=mxgraph.aws4.group_auto_scaling_group;grStroke=1;strokeColor=#D86613;fillColor=none;verticalAlign=top;align=center;fontColor=#D86613;dashed=1;spacingTop=25;strokeWidth=7;" vertex="1" parent="KaTq5aqVhibnrpRyyDtL-1">
          <mxGeometry x="213" y="639" width="1151" height="333" as="geometry" />
        </mxCell>
        <mxCell id="3NP8SoBvH1XfvLIH81yX-13" value="" style="sketch=0;outlineConnect=0;fontColor=#232F3E;gradientColor=none;fillColor=#8C4FFF;strokeColor=none;dashed=0;verticalLabelPosition=bottom;verticalAlign=top;align=center;html=1;fontSize=12;fontStyle=0;aspect=fixed;pointerEvents=1;shape=mxgraph.aws4.application_load_balancer;strokeWidth=15;" vertex="1" parent="3NP8SoBvH1XfvLIH81yX-12">
          <mxGeometry x="514.5" y="221" width="95" height="95" as="geometry" />
        </mxCell>
        <mxCell id="3NP8SoBvH1XfvLIH81yX-17" style="edgeStyle=orthogonalEdgeStyle;rounded=0;orthogonalLoop=1;jettySize=auto;html=1;entryX=0.249;entryY=0.372;entryDx=0;entryDy=0;entryPerimeter=0;strokeColor=light-dark(#232F3E,#CC6600);strokeWidth=6;" edge="1" parent="KaTq5aqVhibnrpRyyDtL-1" source="3NP8SoBvH1XfvLIH81yX-12" target="KaTq5aqVhibnrpRyyDtL-54">
          <mxGeometry relative="1" as="geometry">
            <Array as="points">
              <mxPoint x="789" y="587" />
              <mxPoint x="441" y="587" />
            </Array>
          </mxGeometry>
        </mxCell>
        <mxCell id="3NP8SoBvH1XfvLIH81yX-19" style="edgeStyle=orthogonalEdgeStyle;rounded=0;orthogonalLoop=1;jettySize=auto;html=1;entryX=0.519;entryY=0.368;entryDx=0;entryDy=0;entryPerimeter=0;strokeColor=light-dark(#232F3E,#CC6600);strokeWidth=6;" edge="1" parent="KaTq5aqVhibnrpRyyDtL-1" source="3NP8SoBvH1XfvLIH81yX-12" target="KaTq5aqVhibnrpRyyDtL-54">
          <mxGeometry relative="1" as="geometry">
            <Array as="points">
              <mxPoint x="789" y="587" />
              <mxPoint x="808" y="587" />
            </Array>
          </mxGeometry>
        </mxCell>
        <mxCell id="3NP8SoBvH1XfvLIH81yX-21" style="edgeStyle=orthogonalEdgeStyle;rounded=0;orthogonalLoop=1;jettySize=auto;html=1;entryX=0.678;entryY=0.363;entryDx=0;entryDy=0;entryPerimeter=0;strokeColor=light-dark(#232F3E,#CC6600);strokeWidth=6;" edge="1" parent="KaTq5aqVhibnrpRyyDtL-1" source="3NP8SoBvH1XfvLIH81yX-12" target="KaTq5aqVhibnrpRyyDtL-54">
          <mxGeometry relative="1" as="geometry">
            <Array as="points">
              <mxPoint x="789" y="588" />
              <mxPoint x="1025" y="588" />
            </Array>
          </mxGeometry>
        </mxCell>
        <mxCell id="KaTq5aqVhibnrpRyyDtL-93" value="Public subnet" style="points=[[0,0],[0.25,0],[0.5,0],[0.75,0],[1,0],[1,0.25],[1,0.5],[1,0.75],[1,1],[0.75,1],[0.5,1],[0.25,1],[0,1],[0,0.75],[0,0.5],[0,0.25]];outlineConnect=0;gradientColor=none;fontSize=24;fontStyle=1;container=1;pointerEvents=0;collapsible=0;recursiveResize=0;shape=mxgraph.aws4.group;grIcon=mxgraph.aws4.group_security_group;grStroke=0;strokeColor=light-dark(#82B366,#006600);fillColor=light-dark(#000000,#CCFF99);verticalAlign=top;align=left;spacingLeft=30;dashed=0;strokeWidth=22;perimeterSpacing=5;labelBackgroundColor=none;textShadow=0;html=1;whiteSpace=wrap;fontFamily=Helvetica;labelBorderColor=none;spacing=-1;fontColor=light-dark(#000000,#009900);" parent="KaTq5aqVhibnrpRyyDtL-1" vertex="1">
          <mxGeometry x="289.5" y="706" width="380" height="212.5" as="geometry" />
        </mxCell>
        <mxCell id="KaTq5aqVhibnrpRyyDtL-94" value="&lt;h1&gt;&lt;font style=&quot;color: light-dark(rgb(51, 0, 0), rgb(20, 17, 17)); font-size: 25px;&quot;&gt;JUMP SERVER&lt;/font&gt;&lt;/h1&gt;" style="text;strokeColor=none;fillColor=none;html=1;fontSize=24;fontStyle=1;verticalAlign=middle;align=center;" parent="KaTq5aqVhibnrpRyyDtL-1" vertex="1">
          <mxGeometry x="373.5" y="857.5" width="232" height="53" as="geometry" />
        </mxCell>
        <mxCell id="KaTq5aqVhibnrpRyyDtL-95" value="" style="points=[[0,0,0],[0.25,0,0],[0.5,0,0],[0.75,0,0],[1,0,0],[0,1,0],[0.25,1,0],[0.5,1,0],[0.75,1,0],[1,1,0],[0,0.25,0],[0,0.5,0],[0,0.75,0],[1,0.25,0],[1,0.5,0],[1,0.75,0]];outlineConnect=0;fontColor=#232F3E;fillColor=#ED7100;strokeColor=#ffffff;dashed=0;verticalLabelPosition=bottom;verticalAlign=top;align=center;html=1;fontSize=13;fontStyle=0;aspect=fixed;shape=mxgraph.aws4.resourceIcon;resIcon=mxgraph.aws4.ec2;" parent="KaTq5aqVhibnrpRyyDtL-1" vertex="1">
          <mxGeometry x="429.5" y="738.5" width="129" height="129" as="geometry" />
        </mxCell>
        <mxCell id="3NP8SoBvH1XfvLIH81yX-23" value="&lt;font style=&quot;font-size: 25px;&quot;&gt;10.12.1.0/24&lt;/font&gt;" style="text;whiteSpace=wrap;html=1;fontColor=light-dark(#000000,#330066);fontSize=62;fontStyle=1" vertex="1" parent="KaTq5aqVhibnrpRyyDtL-1">
          <mxGeometry x="286" y="696" width="146" height="90" as="geometry" />
        </mxCell>
        <mxCell id="3NP8SoBvH1XfvLIH81yX-24" value="&lt;font style=&quot;font-size: 25px;&quot;&gt;10.12.2.0/24&lt;/font&gt;" style="text;whiteSpace=wrap;html=1;fontColor=light-dark(#000000,#330066);fontSize=62;fontStyle=1" vertex="1" parent="KaTq5aqVhibnrpRyyDtL-1">
          <mxGeometry x="881.5" y="670" width="146" height="90" as="geometry" />
        </mxCell>
        <mxCell id="3NP8SoBvH1XfvLIH81yX-25" value="&lt;font style=&quot;font-size: 25px;&quot;&gt;10.12.3.0/24&lt;/font&gt;" style="text;whiteSpace=wrap;html=1;fontColor=light-dark(#000000,#330066);fontSize=62;fontStyle=1" vertex="1" parent="KaTq5aqVhibnrpRyyDtL-1">
          <mxGeometry x="273.5" y="178" width="146" height="90" as="geometry" />
        </mxCell>
        <mxCell id="LgYwcrg43erPUWLEfsrs-16" value="Amazon ECR" style="sketch=0;outlineConnect=0;fontColor=light-dark(#232F3E,#FFFFFF);gradientColor=none;strokeColor=#ffffff;fillColor=light-dark(#232F3E,#CC6600);dashed=0;verticalLabelPosition=middle;verticalAlign=bottom;align=center;html=1;whiteSpace=wrap;fontSize=31;fontStyle=1;spacing=3;shape=mxgraph.aws4.productIcon;prIcon=mxgraph.aws4.ecr;" parent="KaTq5aqVhibnrpRyyDtL-56" vertex="1">
          <mxGeometry x="3578" y="2461" width="218" height="216" as="geometry" />
        </mxCell>
        <mxCell id="LgYwcrg43erPUWLEfsrs-17" style="edgeStyle=orthogonalEdgeStyle;rounded=0;orthogonalLoop=1;jettySize=auto;html=1;fontColor=light-dark(#000000,#000000);strokeColor=light-dark(#000000,#000000);strokeWidth=6;" parent="KaTq5aqVhibnrpRyyDtL-56" source="LgYwcrg43erPUWLEfsrs-7" target="LgYwcrg43erPUWLEfsrs-16" edge="1">
          <mxGeometry relative="1" as="geometry">
            <Array as="points">
              <mxPoint x="3687" y="2416" />
            </Array>
          </mxGeometry>
        </mxCell>
        <mxCell id="3NP8SoBvH1XfvLIH81yX-16" style="edgeStyle=orthogonalEdgeStyle;rounded=0;orthogonalLoop=1;jettySize=auto;html=1;strokeColor=light-dark(#000000,#330066);strokeWidth=6;" edge="1" parent="KaTq5aqVhibnrpRyyDtL-56" source="3NP8SoBvH1XfvLIH81yX-14" target="3NP8SoBvH1XfvLIH81yX-13">
          <mxGeometry relative="1" as="geometry" />
        </mxCell>
        <mxCell id="3NP8SoBvH1XfvLIH81yX-14" value="" style="shadow=0;dashed=0;html=1;strokeColor=none;fillColor=#4495D1;labelPosition=center;verticalLabelPosition=bottom;verticalAlign=top;align=center;outlineConnect=0;shape=mxgraph.veeam.portal_admin;" vertex="1" parent="KaTq5aqVhibnrpRyyDtL-56">
          <mxGeometry x="1888" y="1186" width="130.4" height="123" as="geometry" />
        </mxCell>
        <mxCell id="3NP8SoBvH1XfvLIH81yX-15" value="&lt;h1&gt;&lt;font style=&quot;color: light-dark(rgb(51, 0, 0), rgb(20, 17, 17)); font-size: 27px;&quot;&gt;Admin User&lt;/font&gt;&lt;/h1&gt;" style="text;strokeColor=none;fillColor=none;html=1;fontSize=24;fontStyle=1;verticalAlign=middle;align=center;" vertex="1" parent="KaTq5aqVhibnrpRyyDtL-56">
          <mxGeometry x="1869.2" y="1302" width="168" height="53" as="geometry" />
        </mxCell>
      </root>
    </mxGraphModel>
  </diagram>
</mxfile>
